<?xml version="1.0" encoding="UTF-8" standalone="no"?>
<svg
   xmlns:dc="http://purl.org/dc/elements/1.1/"
   xmlns:cc="http://creativecommons.org/ns#"
   xmlns:rdf="http://www.w3.org/1999/02/22-rdf-syntax-ns#"
   xmlns:svg="http://www.w3.org/2000/svg"
   xmlns="http://www.w3.org/2000/svg"
   xmlns:sodipodi="http://sodipodi.sourceforge.net/DTD/sodipodi-0.dtd"
   xmlns:inkscape="http://www.inkscape.org/namespaces/inkscape"
   inkscape:version="1.0 (4035a4fb49, 2020-05-01)"
   sodipodi:docname="Image selection diagram.svg"
   id="svg151"
   stroke-miterlimit="10"
   stroke-linecap="square"
   stroke="none"
   fill="none"
   viewBox="0.0 0.0 960.0 540.0"
   version="1.1">
  <metadata
     id="metadata157">
    <rdf:RDF>
      <cc:Work
         rdf:about="">
        <dc:format>image/svg+xml</dc:format>
        <dc:type
           rdf:resource="http://purl.org/dc/dcmitype/StillImage" />
      </cc:Work>
    </rdf:RDF>
  </metadata>
  <defs
     id="defs155" />
  <sodipodi:namedview
     inkscape:current-layer="svg151"
     inkscape:window-maximized="0"
     inkscape:window-y="0"
     inkscape:window-x="0"
     inkscape:cy="387.55271"
     inkscape:cx="652.81129"
     inkscape:zoom="0.5921875"
     showgrid="false"
     id="namedview153"
     inkscape:window-height="914"
     inkscape:window-width="1716"
     inkscape:pageshadow="2"
     inkscape:pageopacity="0"
     guidetolerance="10"
     gridtolerance="10"
     objecttolerance="10"
     borderopacity="1"
     bordercolor="#666666"
     pagecolor="#ffffff" />
  <clipPath
     id="g73c8b81204_0_0.0">
    <path
       id="path2"
       clip-rule="nonzero"
       d="m0 0l960.0 0l0 540.0l-960.0 0l0 -540.0z" />
  </clipPath>
  <g
     transform="translate(-42.216359,38.83905)"
     id="g1125">
    <path
       id="path7"
       fill-rule="evenodd"
       d="m 302.89064,110.80515 v 0 c 0,-4.58362 3.71576,-8.29938 8.29938,-8.29938 h 141.19653 c 2.20114,0 4.3121,0.87439 5.86856,2.43083 1.55642,1.55643 2.43081,3.66741 2.43081,5.86855 v 33.19652 c 0,4.58362 -3.71575,8.29938 -8.29937,8.29938 H 311.19002 c -4.58362,0 -8.29938,-3.71576 -8.29938,-8.29938 z"
       fill="#cfe2f3" />
    <path
       id="path9"
       fill-rule="evenodd"
       d="m 302.89064,110.80515 v 0 c 0,-4.58362 3.71576,-8.29938 8.29938,-8.29938 h 141.19653 c 2.20114,0 4.3121,0.87439 5.86856,2.43083 1.55642,1.55643 2.43081,3.66741 2.43081,5.86855 v 33.19652 c 0,4.58362 -3.71575,8.29938 -8.29937,8.29938 H 311.19002 c -4.58362,0 -8.29938,-3.71576 -8.29938,-8.29938 z"
       stroke-linecap="butt"
       stroke-linejoin="round"
       stroke-width="2"
       stroke="#595959" />
    <path
       id="path11"
       fill-rule="nonzero"
       d="m 322.52267,133.2634 v -11.45313 h 1.5625 l 6.01562,8.98438 v -8.98438 h 1.45313 v 11.45313 h -1.5625 l -6.01563,-9 v 9 z m 17.07031,-2.67188 1.45312,0.17188 q -0.34375,1.28125 -1.28125,1.98437 -0.92187,0.70313 -2.35937,0.70313 -1.82813,0 -2.89063,-1.125 -1.0625,-1.125 -1.0625,-3.14063 0,-2.09375 1.07813,-3.25 1.07812,-1.15625 2.79687,-1.15625 1.65625,0 2.70313,1.14063 1.0625,1.125 1.0625,3.17187 0,0.125 0,0.375 h -6.1875 q 0.0781,1.375 0.76562,2.10938 0.70313,0.71875 1.73438,0.71875 0.78125,0 1.32812,-0.40625 0.54688,-0.40625 0.85938,-1.29688 z m -4.60938,-2.28125 h 4.625 q -0.0937,-1.04687 -0.53125,-1.5625 -0.67187,-0.8125 -1.73437,-0.8125 -0.96875,0 -1.64063,0.65625 -0.65625,0.64063 -0.71875,1.71875 z m 13.50782,2.28125 1.45312,0.17188 q -0.34375,1.28125 -1.28125,1.98437 -0.92187,0.70313 -2.35937,0.70313 -1.82813,0 -2.89063,-1.125 -1.0625,-1.125 -1.0625,-3.14063 0,-2.09375 1.07813,-3.25 1.07812,-1.15625 2.79687,-1.15625 1.65625,0 2.70313,1.14063 1.0625,1.125 1.0625,3.17187 0,0.125 0,0.375 h -6.1875 q 0.0781,1.375 0.76562,2.10938 0.70313,0.71875 1.73438,0.71875 0.78125,0 1.32812,-0.40625 0.54688,-0.40625 0.85938,-1.29688 z m -4.60938,-2.28125 h 4.625 q -0.0937,-1.04687 -0.53125,-1.5625 -0.67187,-0.8125 -1.73437,-0.8125 -0.96875,0 -1.64063,0.65625 -0.65625,0.64063 -0.71875,1.71875 z m 13.21094,4.95313 v -1.04688 q -0.78125,1.23438 -2.3125,1.23438 -1,0 -1.82813,-0.54688 -0.82812,-0.54687 -1.29687,-1.53125 -0.45313,-0.98437 -0.45313,-2.25 0,-1.25 0.40625,-2.25 0.42188,-1.01562 1.25,-1.54687 0.82813,-0.54688 1.85938,-0.54688 0.75,0 1.32812,0.3125 0.59375,0.3125 0.95313,0.82813 v -4.10938 h 1.40625 v 11.45313 z m -4.4375,-4.14063 q 0,1.59375 0.67187,2.39063 0.67188,0.78125 1.57813,0.78125 0.92187,0 1.5625,-0.75 0.65625,-0.76563 0.65625,-2.3125 0,-1.70313 -0.65625,-2.5 -0.65625,-0.79688 -1.625,-0.79688 -0.9375,0 -1.5625,0.76563 -0.625,0.76562 -0.625,2.42187 z m 17.8125,3.10938 q -0.78125,0.67187 -1.5,0.95312 -0.71875,0.26563 -1.54688,0.26563 -1.375,0 -2.10937,-0.67188 -0.73438,-0.67187 -0.73438,-1.70312 0,-0.60938 0.28125,-1.10938 0.28125,-0.51562 0.71875,-0.8125 0.45313,-0.3125 1.01563,-0.46875 0.42187,-0.10937 1.25,-0.20312 1.70312,-0.20313 2.51562,-0.48438 0,-0.29687 0,-0.375 0,-0.85937 -0.39062,-1.20312 -0.54688,-0.48438 -1.60938,-0.48438 -0.98437,0 -1.46875,0.35938 -0.46875,0.34375 -0.6875,1.21875 l -1.375,-0.1875 q 0.1875,-0.875 0.60938,-1.42188 0.4375,-0.54687 1.25,-0.82812 0.8125,-0.29688 1.875,-0.29688 1.0625,0 1.71875,0.25 0.67187,0.25 0.98437,0.625 0.3125,0.375 0.4375,0.95313 0.0781,0.35937 0.0781,1.29687 v 1.875 q 0,1.96875 0.0781,2.48438 0.0937,0.51562 0.35937,1 h -1.46875 q -0.21875,-0.4375 -0.28125,-1.03125 z m -0.10938,-3.14063 q -0.76562,0.3125 -2.29687,0.53125 -0.875,0.125 -1.23438,0.28125 -0.35937,0.15625 -0.5625,0.46875 -0.1875,0.29688 -0.1875,0.65625 0,0.5625 0.42188,0.9375 0.4375,0.375 1.25,0.375 0.8125,0 1.4375,-0.34375 0.64062,-0.35937 0.9375,-0.98437 0.23437,-0.46875 0.23437,-1.40625 z m 3.60157,4.17188 v -8.29688 h 1.26562 v 1.17188 q 0.90625,-1.35938 2.64063,-1.35938 0.75,0 1.375,0.26563 0.625,0.26562 0.9375,0.70312 0.3125,0.4375 0.4375,1.04688 0.0781,0.39062 0.0781,1.35937 v 5.10938 h -1.40625 v -5.04688 q 0,-0.85937 -0.17188,-1.28125 -0.15625,-0.4375 -0.57812,-0.6875 -0.40625,-0.25 -0.96875,-0.25 -0.90625,0 -1.5625,0.57813 -0.64063,0.5625 -0.64063,2.15625 v 4.53125 z m 8.89843,-9.84375 v -1.60938 h 1.40625 v 1.60938 z m 0,9.84375 v -8.29688 h 1.40625 v 8.29688 z m 3.55469,0 v -8.29688 h 1.25 v 1.15625 q 0.39063,-0.60937 1.03125,-0.96875 0.65625,-0.375 1.48438,-0.375 0.92187,0 1.51562,0.39063 0.59375,0.375 0.82813,1.0625 0.98437,-1.45313 2.5625,-1.45313 1.23437,0 1.89062,0.6875 0.67188,0.67188 0.67188,2.09375 v 5.70313 h -1.39063 v -5.23438 q 0,-0.84375 -0.14062,-1.20312 -0.14063,-0.375 -0.5,-0.59375 -0.35938,-0.23438 -0.84375,-0.23438 -0.875,0 -1.45313,0.57813 -0.57812,0.57812 -0.57812,1.85937 v 4.82813 h -1.40625 v -5.39063 q 0,-0.9375 -0.34375,-1.40625 -0.34375,-0.46875 -1.125,-0.46875 -0.59375,0 -1.09375,0.3125 -0.5,0.3125 -0.73438,0.92188 -0.21875,0.59375 -0.21875,1.71875 v 4.3125 z m 18.73438,-1.03125 q -0.78125,0.67187 -1.5,0.95312 -0.71875,0.26563 -1.54688,0.26563 -1.375,0 -2.10937,-0.67188 -0.73438,-0.67187 -0.73438,-1.70312 0,-0.60938 0.28125,-1.10938 0.28125,-0.51562 0.71875,-0.8125 0.45313,-0.3125 1.01563,-0.46875 0.42187,-0.10937 1.25,-0.20312 1.70312,-0.20313 2.51562,-0.48438 0,-0.29687 0,-0.375 0,-0.85937 -0.39062,-1.20312 -0.54688,-0.48438 -1.60938,-0.48438 -0.98437,0 -1.46875,0.35938 -0.46875,0.34375 -0.6875,1.21875 l -1.375,-0.1875 q 0.1875,-0.875 0.60938,-1.42188 0.4375,-0.54687 1.25,-0.82812 0.8125,-0.29688 1.875,-0.29688 1.0625,0 1.71875,0.25 0.67187,0.25 0.98437,0.625 0.3125,0.375 0.4375,0.95313 0.0781,0.35937 0.0781,1.29687 v 1.875 q 0,1.96875 0.0781,2.48438 0.0937,0.51562 0.35938,1 h -1.46875 q -0.21875,-0.4375 -0.28125,-1.03125 z m -0.10938,-3.14063 q -0.76562,0.3125 -2.29687,0.53125 -0.875,0.125 -1.23438,0.28125 -0.35937,0.15625 -0.5625,0.46875 -0.1875,0.29688 -0.1875,0.65625 0,0.5625 0.42188,0.9375 0.4375,0.375 1.25,0.375 0.8125,0 1.4375,-0.34375 0.64062,-0.35937 0.9375,-0.98437 0.23437,-0.46875 0.23437,-1.40625 z m 6.66406,2.90625 0.20313,1.25 q -0.59375,0.125 -1.0625,0.125 -0.76563,0 -1.1875,-0.23437 -0.42188,-0.25 -0.59375,-0.64063 -0.17188,-0.40625 -0.17188,-1.67187 v -4.76563 h -1.03125 v -1.09375 h 1.03125 v -2.0625 l 1.40625,-0.84375 v 2.90625 h 1.40625 v 1.09375 h -1.40625 v 4.84375 q 0,0.60938 0.0625,0.78125 0.0781,0.17188 0.25,0.28125 0.17188,0.0937 0.48438,0.0937 0.23437,0 0.60937,-0.0625 z m 1.38282,-8.57812 v -1.60938 h 1.40625 v 1.60938 z m 0,9.84375 v -8.29688 h 1.40625 v 8.29688 z m 3.02343,-4.15625 q 0,-2.29688 1.28125,-3.40625 1.07813,-0.92188 2.60938,-0.92188 1.71875,0 2.79687,1.125 1.09375,1.10938 1.09375,3.09375 0,1.59375 -0.48437,2.51563 -0.48438,0.92187 -1.40625,1.4375 -0.90625,0.5 -2,0.5 -1.73438,0 -2.8125,-1.10938 -1.07813,-1.125 -1.07813,-3.23437 z m 1.45313,0 q 0,1.59375 0.6875,2.39062 0.70312,0.79688 1.75,0.79688 1.04687,0 1.73437,-0.79688 0.70313,-0.79687 0.70313,-2.4375 0,-1.53125 -0.70313,-2.32812 -0.6875,-0.79688 -1.73437,-0.79688 -1.04688,0 -1.75,0.79688 -0.6875,0.78125 -0.6875,2.375 z m 7.97656,4.15625 v -8.29688 h 1.26563 v 1.17188 q 0.90625,-1.35938 2.64062,-1.35938 0.75,0 1.375,0.26563 0.625,0.26562 0.9375,0.70312 0.3125,0.4375 0.4375,1.04688 0.0781,0.39062 0.0781,1.35937 v 5.10938 h -1.40625 v -5.04688 q 0,-0.85937 -0.17188,-1.28125 -0.15625,-0.4375 -0.57812,-0.6875 -0.40625,-0.25 -0.96875,-0.25 -0.90625,0 -1.5625,0.57813 -0.64063,0.5625 -0.64063,2.15625 v 4.53125 z m 11.52344,-2.82813 q 0,-0.28125 0,-0.42187 0,-0.82813 0.23437,-1.42188 0.17188,-0.45312 0.54688,-0.92187 0.28125,-0.32813 1.01562,-0.96875 0.73438,-0.65625 0.95313,-1.03125 0.21875,-0.39063 0.21875,-0.84375 0,-0.8125 -0.64063,-1.4375 -0.64062,-0.625 -1.57812,-0.625 -0.89063,0 -1.5,0.5625 -0.59375,0.5625 -0.78125,1.76562 l -1.45313,-0.17187 q 0.20313,-1.60938 1.15625,-2.45313 0.96875,-0.85937 2.5625,-0.85937 1.67188,0 2.67188,0.92187 1,0.90625 1,2.20313 0,0.75 -0.35938,1.39062 -0.34375,0.625 -1.35937,1.53125 -0.6875,0.60938 -0.90625,0.90625 -0.20313,0.28125 -0.3125,0.65625 -0.0937,0.375 -0.10938,1.21875 z m -0.0781,2.82813 v -1.60938 h 1.59375 v 1.60938 z"
       fill="#000000" />
    <path
       id="path13"
       fill-rule="evenodd"
       d="m 206.09801,206.52431 v 0 c 0,-4.58363 3.71576,-8.29938 8.29939,-8.29938 h 100.81857 c 2.2011,0 4.3121,0.87439 5.86853,2.43082 1.55642,1.55644 2.43084,3.66742 2.43084,5.86856 v 33.1965 c 0,4.58362 -3.71575,8.29938 -8.29937,8.29938 H 214.3974 c -4.58362,0 -8.29938,-3.71576 -8.29938,-8.29938 z"
       fill="#fff2cc" />
    <path
       id="path15"
       fill-rule="evenodd"
       d="m 206.09801,206.52431 v 0 c 0,-4.58363 3.71576,-8.29938 8.29939,-8.29938 h 100.81857 c 2.2011,0 4.3121,0.87439 5.86853,2.43082 1.55642,1.55644 2.43084,3.66742 2.43084,5.86856 v 33.1965 c 0,4.58362 -3.71575,8.29938 -8.29937,8.29938 H 214.3974 c -4.58362,0 -8.29938,-3.71576 -8.29938,-8.29938 z"
       stroke-linecap="butt"
       stroke-linejoin="round"
       stroke-width="2"
       stroke="#595959" />
    <path
       id="path17"
       fill-rule="nonzero"
       d="m 257.97462,224.7638 v -1.92188 h 4.98438 v 4.5625 q -0.73438,0.70313 -2.10938,1.25 -1.375,0.53125 -2.79687,0.53125 -1.79688,0 -3.14063,-0.75 -1.32812,-0.76562 -2,-2.17187 -0.67187,-1.40625 -0.67187,-3.04688 0,-1.79687 0.75,-3.1875 0.75,-1.39062 2.20312,-2.125 1.09375,-0.57812 2.73438,-0.57812 2.14062,0 3.32812,0.90625 1.20313,0.89062 1.54688,2.46875 l -2.29688,0.42187 q -0.23437,-0.84375 -0.90625,-1.32812 -0.67187,-0.48438 -1.67187,-0.48438 -1.51563,0 -2.40625,0.96875 -0.89063,0.95313 -0.89063,2.84375 0,2.03125 0.90625,3.0625 0.90625,1.01563 2.375,1.01563 0.71875,0 1.45313,-0.28125 0.73437,-0.29688 1.25,-0.70313 v -1.45312 z m 7.03906,4.21875 v -11.45313 h 2.3125 v 11.45313 z m 4.53907,0 v -11.45313 h 7.84375 v 1.9375 h -5.53125 v 2.70313 h 4.78125 v 1.9375 h -4.78125 v 4.875 z"
       fill="#000000" />
    <path
       id="path19"
       fill-rule="evenodd"
       d="m 396.54683,209.20153 v 0 c 0,-6.06221 4.91437,-10.97659 10.97659,-10.97659 h 180.59799 c 2.9112,0 5.70313,1.15645 7.7616,3.21496 2.05854,2.0585 3.21497,4.85045 3.21497,7.76163 v 43.90506 c 0,6.06223 -4.91436,10.97659 -10.97657,10.97659 H 407.52343 c -6.06223,0 -10.97659,-4.91436 -10.97659,-10.97659 z"
       fill="#cfe2f3" />
    <path
       id="path21"
       fill-rule="evenodd"
       d="m 396.54683,209.20153 v 0 c 0,-6.06221 4.91437,-10.97659 10.97659,-10.97659 h 180.59799 c 2.9112,0 5.70313,1.15645 7.7616,3.21496 2.05854,2.0585 3.21497,4.85045 3.21497,7.76163 v 43.90506 c 0,6.06223 -4.91436,10.97659 -10.97657,10.97659 H 407.52343 c -6.06223,0 -10.97659,-4.91436 -10.97659,-10.97659 z"
       stroke-linecap="butt"
       stroke-linejoin="round"
       stroke-width="2"
       stroke="#595959" />
    <path
       id="path23"
       fill-rule="nonzero"
       d="m 422.55288,218.01406 v -11.45313 h 1.5625 l 6.01563,8.98438 v -8.98438 h 1.45312 v 11.45313 h -1.5625 l -6.01562,-9 v 9 z m 17.07031,-2.67188 1.45313,0.17188 q -0.34375,1.28125 -1.28125,1.98437 -0.92188,0.70313 -2.35938,0.70313 -1.82812,0 -2.89062,-1.125 -1.0625,-1.125 -1.0625,-3.14063 0,-2.09375 1.07812,-3.25 1.07813,-1.15625 2.79688,-1.15625 1.65625,0 2.70312,1.14063 1.0625,1.125 1.0625,3.17187 0,0.125 0,0.375 h -6.1875 q 0.0781,1.375 0.76563,2.10938 0.70312,0.71875 1.73437,0.71875 0.78125,0 1.32813,-0.40625 0.54687,-0.40625 0.85937,-1.29688 z m -4.60937,-2.28125 h 4.625 q -0.0937,-1.04687 -0.53125,-1.5625 -0.67188,-0.8125 -1.73438,-0.8125 -0.96875,0 -1.64062,0.65625 -0.65625,0.64063 -0.71875,1.71875 z m 13.50781,2.28125 1.45313,0.17188 q -0.34375,1.28125 -1.28125,1.98437 -0.92188,0.70313 -2.35938,0.70313 -1.82812,0 -2.89062,-1.125 -1.0625,-1.125 -1.0625,-3.14063 0,-2.09375 1.07812,-3.25 1.07813,-1.15625 2.79688,-1.15625 1.65625,0 2.70312,1.14063 1.0625,1.125 1.0625,3.17187 0,0.125 0,0.375 h -6.1875 q 0.0781,1.375 0.76563,2.10938 0.70312,0.71875 1.73437,0.71875 0.78125,0 1.32813,-0.40625 0.54687,-0.40625 0.85937,-1.29688 z m -4.60937,-2.28125 h 4.625 q -0.0937,-1.04687 -0.53125,-1.5625 -0.67188,-0.8125 -1.73438,-0.8125 -0.96875,0 -1.64062,0.65625 -0.65625,0.64063 -0.71875,1.71875 z m 13.21093,4.95313 v -1.04688 q -0.78125,1.23438 -2.3125,1.23438 -1,0 -1.82812,-0.54688 -0.82813,-0.54687 -1.29688,-1.53125 -0.45312,-0.98437 -0.45312,-2.25 0,-1.25 0.40625,-2.25 0.42187,-1.01562 1.25,-1.54687 0.82812,-0.54688 1.85937,-0.54688 0.75,0 1.32813,0.3125 0.59375,0.3125 0.95312,0.82813 v -4.10938 h 1.40625 v 11.45313 z m -4.4375,-4.14063 q 0,1.59375 0.67188,2.39063 0.67187,0.78125 1.57812,0.78125 0.92188,0 1.5625,-0.75 0.65625,-0.76563 0.65625,-2.3125 0,-1.70313 -0.65625,-2.5 -0.65625,-0.79688 -1.625,-0.79688 -0.9375,0 -1.5625,0.76563 -0.625,0.76562 -0.625,2.42187 z m 15.46875,2.875 0.20313,1.25 q -0.59375,0.125 -1.0625,0.125 -0.76563,0 -1.1875,-0.23437 -0.42188,-0.25 -0.59375,-0.64063 -0.17188,-0.40625 -0.17188,-1.67187 v -4.76563 h -1.03125 v -1.09375 h 1.03125 v -2.0625 l 1.40625,-0.84375 v 2.90625 h 1.40625 v 1.09375 h -1.40625 v 4.84375 q 0,0.60938 0.0625,0.78125 0.0781,0.17188 0.25,0.28125 0.17188,0.0937 0.48438,0.0937 0.23437,0 0.60937,-0.0625 z m 0.85157,-2.89062 q 0,-2.29688 1.28125,-3.40625 1.07812,-0.92188 2.60937,-0.92188 1.71875,0 2.79688,1.125 1.09375,1.10938 1.09375,3.09375 0,1.59375 -0.48438,2.51563 -0.48437,0.92187 -1.40625,1.4375 -0.90625,0.5 -2,0.5 -1.73437,0 -2.8125,-1.10938 -1.07812,-1.125 -1.07812,-3.23437 z m 1.45312,0 q 0,1.59375 0.6875,2.39062 0.70313,0.79688 1.75,0.79688 1.04688,0 1.73438,-0.79688 0.70312,-0.79687 0.70312,-2.4375 0,-1.53125 -0.70312,-2.32812 -0.6875,-0.79688 -1.73438,-0.79688 -1.04687,0 -1.75,0.79688 -0.6875,0.78125 -0.6875,2.375 z m 12.42188,7.34375 v -11.48438 h 1.28125 v 1.07813 q 0.45312,-0.64063 1.01562,-0.95313 0.57813,-0.3125 1.39063,-0.3125 1.0625,0 1.875,0.54688 0.8125,0.54687 1.21875,1.54687 0.42187,0.98438 0.42187,2.17188 0,1.28125 -0.46875,2.29687 -0.45312,1.01563 -1.32812,1.5625 -0.85938,0.54688 -1.82813,0.54688 -0.70312,0 -1.26562,-0.29688 -0.54688,-0.29687 -0.90625,-0.75 v 4.04688 z m 1.26562,-7.29688 q 0,1.60938 0.64063,2.375 0.65625,0.76563 1.57812,0.76563 0.9375,0 1.60938,-0.79688 0.67187,-0.79687 0.67187,-2.45312 0,-1.59375 -0.65625,-2.375 -0.65625,-0.79688 -1.5625,-0.79688 -0.89062,0 -1.59375,0.84375 -0.6875,0.84375 -0.6875,2.4375 z m 7.6172,4.10938 v -8.29688 h 1.26562 v 1.25 q 0.48438,-0.875 0.89063,-1.15625 0.40625,-0.28125 0.90625,-0.28125 0.70312,0 1.4375,0.45313 l -0.48438,1.29687 q -0.51562,-0.29687 -1.03125,-0.29687 -0.45312,0 -0.82812,0.28125 -0.35938,0.26562 -0.51563,0.76562 -0.23437,0.75 -0.23437,1.64063 v 4.34375 z m 11.01562,-2.67188 1.45313,0.17188 q -0.34375,1.28125 -1.28125,1.98437 -0.92188,0.70313 -2.35938,0.70313 -1.82812,0 -2.89062,-1.125 -1.0625,-1.125 -1.0625,-3.14063 0,-2.09375 1.07812,-3.25 1.07813,-1.15625 2.79688,-1.15625 1.65625,0 2.70312,1.14063 1.0625,1.125 1.0625,3.17187 0,0.125 0,0.375 h -6.1875 q 0.0781,1.375 0.76563,2.10938 0.70312,0.71875 1.73437,0.71875 0.78125,0 1.32813,-0.40625 0.54687,-0.40625 0.85937,-1.29688 z m -4.60937,-2.28125 h 4.625 q -0.0937,-1.04687 -0.53125,-1.5625 -0.67188,-0.8125 -1.73438,-0.8125 -0.96875,0 -1.64062,0.65625 -0.65625,0.64063 -0.71875,1.71875 z m 7.27343,2.46875 1.39062,-0.21875 q 0.10938,0.84375 0.64063,1.29688 0.54687,0.4375 1.5,0.4375 0.96875,0 1.4375,-0.39063 0.46875,-0.40625 0.46875,-0.9375 0,-0.46875 -0.40625,-0.75 -0.29688,-0.1875 -1.4375,-0.46875 -1.54688,-0.39062 -2.15625,-0.67187 -0.59375,-0.29688 -0.90625,-0.79688 -0.29688,-0.5 -0.29688,-1.10937 0,-0.5625 0.25,-1.03125 0.25,-0.46875 0.6875,-0.78125 0.32813,-0.25 0.89063,-0.40625 0.57812,-0.17188 1.21875,-0.17188 0.98437,0 1.71875,0.28125 0.73437,0.28125 1.07812,0.76563 0.35938,0.46875 0.5,1.28125 l -1.375,0.1875 q -0.0937,-0.64063 -0.54687,-1 -0.45313,-0.35938 -1.26563,-0.35938 -0.96875,0 -1.39062,0.32813 -0.40625,0.3125 -0.40625,0.73437 0,0.28125 0.17187,0.5 0.17188,0.21875 0.53125,0.375 0.21875,0.0781 1.25,0.35938 1.48438,0.39062 2.07813,0.65625 0.59375,0.25 0.92187,0.73437 0.34375,0.48438 0.34375,1.20313 0,0.70312 -0.42187,1.32812 -0.40625,0.60938 -1.1875,0.95313 -0.76563,0.34375 -1.73438,0.34375 -1.625,0 -2.46875,-0.67188 -0.84375,-0.67187 -1.07812,-2 z m 14.23437,-0.1875 1.45312,0.17188 q -0.34375,1.28125 -1.28125,1.98437 -0.92187,0.70313 -2.35937,0.70313 -1.82813,0 -2.89063,-1.125 -1.0625,-1.125 -1.0625,-3.14063 0,-2.09375 1.07813,-3.25 1.07812,-1.15625 2.79687,-1.15625 1.65625,0 2.70313,1.14063 1.0625,1.125 1.0625,3.17187 0,0.125 0,0.375 h -6.1875 q 0.0781,1.375 0.76562,2.10938 0.70313,0.71875 1.73438,0.71875 0.78125,0 1.32812,-0.40625 0.54688,-0.40625 0.85938,-1.29688 z m -4.60938,-2.28125 h 4.625 q -0.0937,-1.04687 -0.53125,-1.5625 -0.67187,-0.8125 -1.73437,-0.8125 -0.96875,0 -1.64063,0.65625 -0.65625,0.64063 -0.71875,1.71875 z m 7.82032,4.95313 v -8.29688 h 1.26562 v 1.25 q 0.48438,-0.875 0.89063,-1.15625 0.40625,-0.28125 0.90625,-0.28125 0.70312,0 1.4375,0.45313 l -0.48438,1.29687 q -0.51562,-0.29687 -1.03125,-0.29687 -0.45312,0 -0.82812,0.28125 -0.35938,0.26562 -0.51563,0.76562 -0.23437,0.75 -0.23437,1.64063 v 4.34375 z m 7.64062,0 -3.15625,-8.29688 h 1.48438 l 1.78125,4.96875 q 0.29687,0.79688 0.53125,1.67188 0.1875,-0.65625 0.53125,-1.57813 l 1.84375,-5.0625 h 1.4375 l -3.14063,8.29688 z m 11.375,-2.67188 1.45313,0.17188 q -0.34375,1.28125 -1.28125,1.98437 -0.92188,0.70313 -2.35938,0.70313 -1.82812,0 -2.89062,-1.125 -1.0625,-1.125 -1.0625,-3.14063 0,-2.09375 1.07812,-3.25 1.07813,-1.15625 2.79688,-1.15625 1.65625,0 2.70312,1.14063 1.0625,1.125 1.0625,3.17187 0,0.125 0,0.375 h -6.1875 q 0.0781,1.375 0.76563,2.10938 0.70312,0.71875 1.73437,0.71875 0.78125,0 1.32813,-0.40625 0.54687,-0.40625 0.85937,-1.29688 z m -4.60937,-2.28125 h 4.625 q -0.0937,-1.04687 -0.53125,-1.5625 -0.67188,-0.8125 -1.73438,-0.8125 -0.96875,0 -1.64062,0.65625 -0.65625,0.64063 -0.71875,1.71875 z m 12.60937,4.95313 v -7.20313 h -1.23437 v -1.09375 h 1.23437 v -0.89062 q 0,-0.82813 0.15625,-1.23438 0.20313,-0.54687 0.70313,-0.89062 0.51562,-0.34375 1.4375,-0.34375 0.59375,0 1.3125,0.14062 l -0.20313,1.23438 q -0.4375,-0.0781 -0.82812,-0.0781 -0.64063,0 -0.90625,0.28125 -0.26563,0.26563 -0.26563,1.01563 v 0.76562 h 1.60938 v 1.09375 h -1.60938 v 7.20313 z m 4.1172,-9.84375 v -1.60938 h 1.40625 v 1.60938 z m 0,9.84375 v -8.29688 h 1.40625 v 8.29688 z m 3.55469,0 v -8.29688 h 1.26562 v 1.17188 q 0.90625,-1.35938 2.64063,-1.35938 0.75,0 1.375,0.26563 0.625,0.26562 0.9375,0.70312 0.3125,0.4375 0.4375,1.04688 0.0781,0.39062 0.0781,1.35937 v 5.10938 h -1.40625 v -5.04688 q 0,-0.85937 -0.17187,-1.28125 -0.15625,-0.4375 -0.57813,-0.6875 -0.40625,-0.25 -0.96875,-0.25 -0.90625,0 -1.5625,0.57813 -0.64062,0.5625 -0.64062,2.15625 v 4.53125 z m 14.57031,-2.67188 1.45312,0.17188 q -0.34375,1.28125 -1.28125,1.98437 -0.92187,0.70313 -2.35937,0.70313 -1.82813,0 -2.89063,-1.125 -1.0625,-1.125 -1.0625,-3.14063 0,-2.09375 1.07813,-3.25 1.07812,-1.15625 2.79687,-1.15625 1.65625,0 2.70313,1.14063 1.0625,1.125 1.0625,3.17187 0,0.125 0,0.375 h -6.1875 q 0.0781,1.375 0.76562,2.10938 0.70313,0.71875 1.73438,0.71875 0.78125,0 1.32812,-0.40625 0.54688,-0.40625 0.85938,-1.29688 z m -4.60938,-2.28125 h 4.625 q -0.0937,-1.04687 -0.53125,-1.5625 -0.67187,-0.8125 -1.73437,-0.8125 -0.96875,0 -1.64063,0.65625 -0.65625,0.64063 -0.71875,1.71875 z"
       fill="#000000" />
    <path
       id="path25"
       fill-rule="nonzero"
       d="m 438.44351,237.01406 v -1.04687 q -0.78125,1.23437 -2.3125,1.23437 -1,0 -1.82813,-0.54687 -0.82812,-0.54688 -1.29687,-1.53125 -0.45313,-0.98438 -0.45313,-2.25 0,-1.25 0.40625,-2.25 0.42188,-1.01563 1.25,-1.54688 0.82813,-0.54687 1.85938,-0.54687 0.75,0 1.32812,0.3125 0.59375,0.3125 0.95313,0.82812 v -4.10937 h 1.40625 v 11.45312 z m -4.4375,-4.14062 q 0,1.59375 0.67187,2.39062 0.67188,0.78125 1.57813,0.78125 0.92187,0 1.5625,-0.75 0.65625,-0.76562 0.65625,-2.3125 0,-1.70312 -0.65625,-2.5 -0.65625,-0.79687 -1.625,-0.79687 -0.9375,0 -1.5625,0.76562 -0.625,0.76563 -0.625,2.42188 z m 13.63281,1.46875 1.45312,0.17187 q -0.34375,1.28125 -1.28125,1.98438 -0.92187,0.70312 -2.35937,0.70312 -1.82813,0 -2.89063,-1.125 -1.0625,-1.125 -1.0625,-3.14062 0,-2.09375 1.07813,-3.25 1.07812,-1.15625 2.79687,-1.15625 1.65625,0 2.70313,1.14062 1.0625,1.125 1.0625,3.17188 0,0.125 0,0.375 h -6.1875 q 0.0781,1.375 0.76562,2.10937 0.70313,0.71875 1.73438,0.71875 0.78125,0 1.32812,-0.40625 0.54688,-0.40625 0.85938,-1.29687 z m -4.60938,-2.28125 h 4.625 q -0.0937,-1.04688 -0.53125,-1.5625 -0.67187,-0.8125 -1.73437,-0.8125 -0.96875,0 -1.64063,0.65625 -0.65625,0.64062 -0.71875,1.71875 z m 10.89844,3.6875 0.20313,1.25 q -0.59375,0.125 -1.0625,0.125 -0.76563,0 -1.1875,-0.23438 -0.42188,-0.25 -0.59375,-0.64062 -0.17188,-0.40625 -0.17188,-1.67188 v -4.76562 h -1.03125 v -1.09375 h 1.03125 v -2.0625 l 1.40625,-0.84375 v 2.90625 h 1.40625 v 1.09375 h -1.40625 v 4.84375 q 0,0.60937 0.0625,0.78125 0.0781,0.17187 0.25,0.28125 0.17188,0.0937 0.48438,0.0937 0.23437,0 0.60937,-0.0625 z m 6.78906,0.23437 q -0.78125,0.67188 -1.5,0.95313 -0.71875,0.26562 -1.54687,0.26562 -1.375,0 -2.10938,-0.67187 -0.73437,-0.67188 -0.73437,-1.70313 0,-0.60937 0.28125,-1.10937 0.28125,-0.51563 0.71875,-0.8125 0.45312,-0.3125 1.01562,-0.46875 0.42188,-0.10938 1.25,-0.20313 1.70313,-0.20312 2.51563,-0.48437 0,-0.29688 0,-0.375 0,-0.85938 -0.39063,-1.20313 -0.54687,-0.48437 -1.60937,-0.48437 -0.98438,0 -1.46875,0.35937 -0.46875,0.34375 -0.6875,1.21875 l -1.375,-0.1875 q 0.1875,-0.875 0.60937,-1.42187 0.4375,-0.54688 1.25,-0.82813 0.8125,-0.29687 1.875,-0.29687 1.0625,0 1.71875,0.25 0.67188,0.25 0.98438,0.625 0.3125,0.375 0.4375,0.95312 0.0781,0.35938 0.0781,1.29688 v 1.875 q 0,1.96875 0.0781,2.48437 0.0937,0.51563 0.35938,1 h -1.46875 q -0.21875,-0.4375 -0.28125,-1.03125 z m -0.10937,-3.14062 q -0.76563,0.3125 -2.29688,0.53125 -0.875,0.125 -1.23437,0.28125 -0.35938,0.15625 -0.5625,0.46875 -0.1875,0.29687 -0.1875,0.65625 0,0.5625 0.42187,0.9375 0.4375,0.375 1.25,0.375 0.8125,0 1.4375,-0.34375 0.64063,-0.35938 0.9375,-0.98438 0.23438,-0.46875 0.23438,-1.40625 z m 3.60156,-5.67188 v -1.60937 h 1.40625 v 1.60937 z m 0,9.84375 v -8.29687 h 1.40625 v 8.29687 z m 3.52344,0 v -11.45312 h 1.40625 v 11.45312 z m 3.94531,0 v -1.60937 h 1.60938 v 1.60937 q 0,0.89063 -0.3125,1.42188 -0.3125,0.54687 -1,0.84375 l -0.39063,-0.59375 q 0.45313,-0.20313 0.65625,-0.57813 0.21875,-0.375 0.23438,-1.09375 z m 10.0625,0 -2.54687,-8.29687 h 1.45312 l 1.32813,4.78125 0.48437,1.78125 q 0.0312,-0.125 0.4375,-1.70313 l 1.3125,-4.85937 h 1.45313 l 1.23437,4.8125 0.42188,1.57812 0.46875,-1.59375 1.42187,-4.79687 h 1.375 l -2.59375,8.29687 h -1.46875 l -1.3125,-4.96875 -0.32812,-1.42187 -1.67188,6.39062 z m 10.02344,-9.84375 v -1.60937 h 1.40625 v 1.60937 z m 0,9.84375 v -8.29687 h 1.40625 v 8.29687 z m 6.61719,-1.26562 0.20312,1.25 q -0.59375,0.125 -1.0625,0.125 -0.76562,0 -1.1875,-0.23438 -0.42187,-0.25 -0.59375,-0.64062 -0.17187,-0.40625 -0.17187,-1.67188 v -4.76562 h -1.03125 v -1.09375 h 1.03125 v -2.0625 l 1.40625,-0.84375 v 2.90625 h 1.40625 v 1.09375 h -1.40625 v 4.84375 q 0,0.60937 0.0625,0.78125 0.0781,0.17187 0.25,0.28125 0.17187,0.0937 0.48437,0.0937 0.23438,0 0.60938,-0.0625 z m 1.38281,1.26562 v -11.45312 h 1.40625 v 4.10937 q 0.98438,-1.14062 2.48438,-1.14062 0.92187,0 1.59375,0.35937 0.6875,0.35938 0.96875,1 0.29687,0.64063 0.29687,1.85938 v 5.26562 h -1.40625 v -5.26562 q 0,-1.04688 -0.45312,-1.53125 -0.45313,-0.48438 -1.29688,-0.48438 -0.625,0 -1.17187,0.32813 -0.54688,0.32812 -0.78125,0.89062 -0.23438,0.54688 -0.23438,1.51563 v 4.54687 z m 13.34375,0 v -11.45312 h 1.40625 v 4.10937 q 0.98437,-1.14062 2.48437,-1.14062 0.92188,0 1.59375,0.35937 0.6875,0.35938 0.96875,1 0.29688,0.64063 0.29688,1.85938 v 5.26562 h -1.40625 v -5.26562 q 0,-1.04688 -0.45313,-1.53125 -0.45312,-0.48438 -1.29687,-0.48438 -0.625,0 -1.17188,0.32813 -0.54687,0.32812 -0.78125,0.89062 -0.23437,0.54688 -0.23437,1.51563 v 4.54687 z m 8.89844,-9.84375 v -1.60937 h 1.40625 v 1.60937 z m 0,9.84375 v -8.29687 h 1.40625 v 8.29687 z m 3.28906,0.6875 1.375,0.20313 q 0.0781,0.64062 0.46875,0.92187 0.53125,0.39063 1.4375,0.39063 0.96875,0 1.5,-0.39063 0.53125,-0.39062 0.71875,-1.09375 0.10937,-0.42187 0.10937,-1.8125 -0.92187,1.09375 -2.29687,1.09375 -1.71875,0 -2.65625,-1.23437 -0.9375,-1.23438 -0.9375,-2.96875 0,-1.1875 0.42187,-2.1875 0.4375,-1 1.25,-1.54688 0.82813,-0.54687 1.92188,-0.54687 1.46875,0 2.42187,1.1875 v -1 h 1.29688 v 7.17187 q 0,1.9375 -0.39063,2.75 -0.39062,0.8125 -1.25,1.28125 -0.85937,0.46875 -2.10937,0.46875 -1.48438,0 -2.40625,-0.67187 -0.90625,-0.67188 -0.875,-2.01563 z m 1.17187,-4.98437 q 0,1.625 0.64063,2.375 0.65625,0.75 1.625,0.75 0.96875,0 1.625,-0.73438 0.65625,-0.75 0.65625,-2.34375 0,-1.53125 -0.67188,-2.29687 -0.67187,-0.78125 -1.625,-0.78125 -0.9375,0 -1.59375,0.76562 -0.65625,0.76563 -0.65625,2.26563 z m 7.99218,4.29687 v -11.45312 h 1.40625 v 4.10937 q 0.98438,-1.14062 2.48438,-1.14062 0.92187,0 1.59375,0.35937 0.6875,0.35938 0.96875,1 0.29687,0.64063 0.29687,1.85938 v 5.26562 h -1.40625 v -5.26562 q 0,-1.04688 -0.45312,-1.53125 -0.45313,-0.48438 -1.29688,-0.48438 -0.625,0 -1.17187,0.32813 -0.54688,0.32812 -0.78125,0.89062 -0.23438,0.54688 -0.23438,1.51563 v 4.54687 z m 14.57032,-2.67187 1.45313,0.17187 q -0.34375,1.28125 -1.28125,1.98438 -0.92188,0.70312 -2.35938,0.70312 -1.82812,0 -2.89062,-1.125 -1.0625,-1.125 -1.0625,-3.14062 0,-2.09375 1.07812,-3.25 1.07813,-1.15625 2.79688,-1.15625 1.65625,0 2.70312,1.14062 1.0625,1.125 1.0625,3.17188 0,0.125 0,0.375 h -6.1875 q 0.0781,1.375 0.76563,2.10937 0.70312,0.71875 1.73437,0.71875 0.78125,0 1.32813,-0.40625 0.54687,-0.40625 0.85937,-1.29687 z m -4.60937,-2.28125 h 4.625 q -0.0937,-1.04688 -0.53125,-1.5625 -0.67188,-0.8125 -1.73438,-0.8125 -0.96875,0 -1.64062,0.65625 -0.65625,0.64062 -0.71875,1.71875 z m 7.27344,2.46875 1.39062,-0.21875 q 0.10938,0.84375 0.64063,1.29687 0.54687,0.4375 1.5,0.4375 0.96875,0 1.4375,-0.39062 0.46875,-0.40625 0.46875,-0.9375 0,-0.46875 -0.40625,-0.75 -0.29688,-0.1875 -1.4375,-0.46875 -1.54688,-0.39063 -2.15625,-0.67188 -0.59375,-0.29687 -0.90625,-0.79687 -0.29688,-0.5 -0.29688,-1.10938 0,-0.5625 0.25,-1.03125 0.25,-0.46875 0.6875,-0.78125 0.32813,-0.25 0.89063,-0.40625 0.57812,-0.17187 1.21875,-0.17187 0.98437,0 1.71875,0.28125 0.73437,0.28125 1.07812,0.76562 0.35938,0.46875 0.5,1.28125 l -1.375,0.1875 q -0.0937,-0.64062 -0.54687,-1 -0.45313,-0.35937 -1.26563,-0.35937 -0.96875,0 -1.39062,0.32812 -0.40625,0.3125 -0.40625,0.73438 0,0.28125 0.17187,0.5 0.17188,0.21875 0.53125,0.375 0.21875,0.0781 1.25,0.35937 1.48438,0.39063 2.07813,0.65625 0.59375,0.25 0.92187,0.73438 0.34375,0.48437 0.34375,1.20312 0,0.70313 -0.42187,1.32813 -0.40625,0.60937 -1.1875,0.95312 -0.76563,0.34375 -1.73438,0.34375 -1.625,0 -2.46875,-0.67187 -0.84375,-0.67188 -1.07812,-2 z m 11.625,1.21875 0.20312,1.25 q -0.59375,0.125 -1.0625,0.125 -0.76562,0 -1.1875,-0.23438 -0.42187,-0.25 -0.59375,-0.64062 -0.17187,-0.40625 -0.17187,-1.67188 v -4.76562 h -1.03125 v -1.09375 h 1.03125 v -2.0625 l 1.40625,-0.84375 v 2.90625 h 1.40625 v 1.09375 h -1.40625 v 4.84375 q 0,0.60937 0.0625,0.78125 0.0781,0.17187 0.25,0.28125 0.17187,0.0937 0.48437,0.0937 0.23438,0 0.60938,-0.0625 z"
       fill="#000000" />
    <path
       id="path27"
       fill-rule="nonzero"
       d="m 457.5099,256.01406 v -8.29687 h 1.26563 v 1.25 q 0.48437,-0.875 0.89062,-1.15625 0.40625,-0.28125 0.90625,-0.28125 0.70313,0 1.4375,0.45312 l -0.48437,1.29688 q -0.51563,-0.29688 -1.03125,-0.29688 -0.45313,0 -0.82813,0.28125 -0.35937,0.26563 -0.51562,0.76563 -0.23438,0.75 -0.23438,1.64062 v 4.34375 z m 11.01563,-2.67187 1.45312,0.17187 q -0.34375,1.28125 -1.28125,1.98438 -0.92187,0.70312 -2.35937,0.70312 -1.82813,0 -2.89063,-1.125 -1.0625,-1.125 -1.0625,-3.14062 0,-2.09375 1.07813,-3.25 1.07812,-1.15625 2.79687,-1.15625 1.65625,0 2.70313,1.14062 1.0625,1.125 1.0625,3.17188 0,0.125 0,0.375 h -6.1875 q 0.0781,1.375 0.76562,2.10937 0.70313,0.71875 1.73438,0.71875 0.78125,0 1.32812,-0.40625 0.54688,-0.40625 0.85938,-1.29687 z m -4.60938,-2.28125 h 4.625 q -0.0937,-1.04688 -0.53125,-1.5625 -0.67187,-0.8125 -1.73437,-0.8125 -0.96875,0 -1.64063,0.65625 -0.65625,0.64062 -0.71875,1.71875 z m 7.27344,2.46875 1.39062,-0.21875 q 0.10938,0.84375 0.64063,1.29687 0.54687,0.4375 1.5,0.4375 0.96875,0 1.4375,-0.39062 0.46875,-0.40625 0.46875,-0.9375 0,-0.46875 -0.40625,-0.75 -0.29688,-0.1875 -1.4375,-0.46875 -1.54688,-0.39063 -2.15625,-0.67188 -0.59375,-0.29687 -0.90625,-0.79687 -0.29688,-0.5 -0.29688,-1.10938 0,-0.5625 0.25,-1.03125 0.25,-0.46875 0.6875,-0.78125 0.32813,-0.25 0.89063,-0.40625 0.57812,-0.17187 1.21875,-0.17187 0.98437,0 1.71875,0.28125 0.73437,0.28125 1.07812,0.76562 0.35938,0.46875 0.5,1.28125 l -1.375,0.1875 q -0.0937,-0.64062 -0.54687,-1 -0.45313,-0.35937 -1.26563,-0.35937 -0.96875,0 -1.39062,0.32812 -0.40625,0.3125 -0.40625,0.73438 0,0.28125 0.17187,0.5 0.17188,0.21875 0.53125,0.375 0.21875,0.0781 1.25,0.35937 1.48438,0.39063 2.07813,0.65625 0.59375,0.25 0.92187,0.73438 0.34375,0.48437 0.34375,1.20312 0,0.70313 -0.42187,1.32813 -0.40625,0.60937 -1.1875,0.95312 -0.76563,0.34375 -1.73438,0.34375 -1.625,0 -2.46875,-0.67187 -0.84375,-0.67188 -1.07812,-2 z m 8.03125,-1.67188 q 0,-2.29687 1.28125,-3.40625 1.07812,-0.92187 2.60937,-0.92187 1.71875,0 2.79688,1.125 1.09375,1.10937 1.09375,3.09375 0,1.59375 -0.48438,2.51562 -0.48437,0.92188 -1.40625,1.4375 -0.90625,0.5 -2,0.5 -1.73437,0 -2.8125,-1.10937 -1.07812,-1.125 -1.07812,-3.23438 z m 1.45312,0 q 0,1.59375 0.6875,2.39063 0.70313,0.79687 1.75,0.79687 1.04688,0 1.73438,-0.79687 0.70312,-0.79688 0.70312,-2.4375 0,-1.53125 -0.70312,-2.32813 -0.6875,-0.79687 -1.73438,-0.79687 -1.04687,0 -1.75,0.79687 -0.6875,0.78125 -0.6875,2.375 z m 7.94531,4.15625 v -11.45312 h 1.40625 v 11.45312 z m 9.02344,0 v -1.21875 q -0.96875,1.40625 -2.64062,1.40625 -0.73438,0 -1.375,-0.28125 -0.625,-0.28125 -0.9375,-0.70312 -0.3125,-0.4375 -0.4375,-1.04688 -0.0781,-0.42187 -0.0781,-1.3125 v -5.14062 h 1.40625 v 4.59375 q 0,1.10937 0.0781,1.48437 0.14062,0.5625 0.5625,0.875 0.4375,0.3125 1.0625,0.3125 0.64062,0 1.1875,-0.3125 0.5625,-0.32812 0.78125,-0.89062 0.23437,-0.5625 0.23437,-1.625 v -4.4375 h 1.40625 v 8.29687 z m 6.52345,-1.26562 0.20312,1.25 q -0.59375,0.125 -1.0625,0.125 -0.76562,0 -1.1875,-0.23438 -0.42187,-0.25 -0.59375,-0.64062 -0.17187,-0.40625 -0.17187,-1.67188 v -4.76562 h -1.03125 v -1.09375 h 1.03125 v -2.0625 l 1.40625,-0.84375 v 2.90625 h 1.40625 v 1.09375 h -1.40625 v 4.84375 q 0,0.60937 0.0625,0.78125 0.0781,0.17187 0.25,0.28125 0.17187,0.0937 0.48437,0.0937 0.23438,0 0.60938,-0.0625 z m 1.3828,-8.57813 v -1.60937 h 1.40625 v 1.60937 z m 0,9.84375 v -8.29687 h 1.40625 v 8.29687 z m 3.02345,-4.15625 q 0,-2.29687 1.28125,-3.40625 1.07812,-0.92187 2.60937,-0.92187 1.71875,0 2.79687,1.125 1.09375,1.10937 1.09375,3.09375 0,1.59375 -0.48437,2.51562 -0.48438,0.92188 -1.40625,1.4375 -0.90625,0.5 -2,0.5 -1.73437,0 -2.8125,-1.10937 -1.07812,-1.125 -1.07812,-3.23438 z m 1.45312,0 q 0,1.59375 0.6875,2.39063 0.70313,0.79687 1.75,0.79687 1.04687,0 1.73437,-0.79687 0.70313,-0.79688 0.70313,-2.4375 0,-1.53125 -0.70313,-2.32813 -0.6875,-0.79687 -1.73437,-0.79687 -1.04687,0 -1.75,0.79687 -0.6875,0.78125 -0.6875,2.375 z m 7.97657,4.15625 v -8.29687 h 1.26562 v 1.17187 q 0.90625,-1.35937 2.64063,-1.35937 0.75,0 1.375,0.26562 0.625,0.26563 0.9375,0.70313 0.3125,0.4375 0.4375,1.04687 0.0781,0.39063 0.0781,1.35938 v 5.10937 h -1.40625 v -5.04687 q 0,-0.85938 -0.17187,-1.28125 -0.15625,-0.4375 -0.57813,-0.6875 -0.40625,-0.25 -0.96875,-0.25 -0.90625,0 -1.5625,0.57812 -0.64062,0.5625 -0.64062,2.15625 v 4.53125 z m 15.96875,-2.82812 q 0,-0.28125 0,-0.42188 0,-0.82812 0.23437,-1.42187 0.17188,-0.45313 0.54688,-0.92188 0.28125,-0.32812 1.01562,-0.96875 0.73438,-0.65625 0.95313,-1.03125 0.21875,-0.39062 0.21875,-0.84375 0,-0.8125 -0.64063,-1.4375 -0.64062,-0.625 -1.57812,-0.625 -0.89063,0 -1.5,0.5625 -0.59375,0.5625 -0.78125,1.76563 l -1.45313,-0.17188 q 0.20313,-1.60937 1.15625,-2.45312 0.96875,-0.85938 2.5625,-0.85938 1.67188,0 2.67188,0.92188 1,0.90625 1,2.20312 0,0.75 -0.35938,1.39063 -0.34375,0.625 -1.35937,1.53125 -0.6875,0.60937 -0.90625,0.90625 -0.20313,0.28125 -0.3125,0.65625 -0.0937,0.375 -0.10938,1.21875 z m -0.0781,2.82812 v -1.60937 h 1.59375 v 1.60937 z"
       fill="#000000" />
    <path
       id="path29"
       fill-rule="evenodd"
       d="m 534.90378,419.93377 v 0 c 0,-4.58362 3.71577,-8.29938 8.29939,-8.29938 h 86.33037 c 2.20111,0 4.31214,0.87439 5.86853,2.43082 1.55645,1.55643 2.43084,3.66742 2.43084,5.86856 v 33.1965 c 0,4.58362 -3.71575,8.29938 -8.29937,8.29938 h -86.33037 c -4.58362,0 -8.29939,-3.71576 -8.29939,-8.29938 z"
       fill="#fff2cc" />
    <path
       id="path31"
       fill-rule="evenodd"
       d="m 534.90378,419.93377 v 0 c 0,-4.58362 3.71577,-8.29938 8.29939,-8.29938 h 86.33037 c 2.20111,0 4.31214,0.87439 5.86853,2.43082 1.55645,1.55643 2.43084,3.66742 2.43084,5.86856 v 33.1965 c 0,4.58362 -3.71575,8.29938 -8.29937,8.29938 h -86.33037 c -4.58362,0 -8.29939,-3.71576 -8.29939,-8.29938 z"
       stroke-linecap="butt"
       stroke-linejoin="round"
       stroke-width="2"
       stroke="#595959" />
    <path
       id="path33"
       fill-rule="nonzero"
       d="m 570.32148,430.9389 h 2.3125 v 7.25 q 0,1.42187 -0.25,2.1875 -0.34375,1 -1.23438,1.60937 -0.875,0.60938 -2.3125,0.60938 -1.70312,0 -2.625,-0.95313 -0.90625,-0.95312 -0.90625,-2.79687 l 2.17188,-0.25 q 0.0469,0.98437 0.29687,1.39062 0.375,0.625 1.14063,0.625 0.76562,0 1.07812,-0.4375 0.32813,-0.45312 0.32813,-1.84375 z m 4.77344,11.45312 V 430.9389 h 3.70312 q 2.10938,0 2.75,0.17187 0.98438,0.25 1.64063,1.125 0.67187,0.85938 0.67187,2.21875 0,1.0625 -0.39062,1.78125 -0.375,0.71875 -0.96875,1.125 -0.57813,0.40625 -1.1875,0.54688 -0.82813,0.15625 -2.40625,0.15625 h -1.5 v 4.32812 z m 2.3125,-9.51562 v 3.25 h 1.26562 q 1.35938,0 1.8125,-0.17188 0.46875,-0.1875 0.73438,-0.5625 0.26562,-0.39062 0.26562,-0.90625 0,-0.625 -0.375,-1.03125 -0.35937,-0.40625 -0.92187,-0.5 -0.42188,-0.0781 -1.67188,-0.0781 z m 8.35937,9.51562 V 430.9389 h 8.48438 v 1.9375 h -6.17188 v 2.53125 h 5.75 v 1.9375 h -5.75 v 3.10937 h 6.39063 v 1.9375 z m 16,-4.21875 v -1.92187 h 4.98438 v 4.5625 q -0.73438,0.70312 -2.10938,1.25 -1.375,0.53125 -2.79687,0.53125 -1.79688,0 -3.14063,-0.75 -1.32812,-0.76563 -2,-2.17188 -0.67187,-1.40625 -0.67187,-3.04687 0,-1.79688 0.75,-3.1875 0.75,-1.39063 2.20312,-2.125 1.09375,-0.57813 2.73438,-0.57813 2.14062,0 3.32812,0.90625 1.20313,0.89063 1.54688,2.46875 l -2.29688,0.42188 q -0.23437,-0.84375 -0.90625,-1.32813 -0.67187,-0.48437 -1.67187,-0.48437 -1.51563,0 -2.40625,0.96875 -0.89063,0.95312 -0.89063,2.84375 0,2.03125 0.90625,3.0625 0.90625,1.01562 2.375,1.01562 0.71875,0 1.45313,-0.28125 0.73437,-0.29687 1.25,-0.70312 v -1.45313 z"
       fill="#000000" />
    <path
       id="path35"
       fill-rule="evenodd"
       d="m 311.15575,318.30645 v 0 c 0,-4.58362 3.71576,-8.29938 8.29938,-8.29938 h 86.33038 c 2.20111,0 4.3121,0.87442 5.86853,2.43085 1.55645,1.55643 2.43084,3.66742 2.43084,5.86853 v 33.19653 c 0,4.58362 -3.71575,8.29938 -8.29937,8.29938 h -86.33038 c -4.58362,0 -8.29938,-3.71576 -8.29938,-8.29938 z"
       fill="#fff2cc" />
    <path
       id="path37"
       fill-rule="evenodd"
       d="m 311.15575,318.30645 v 0 c 0,-4.58362 3.71576,-8.29938 8.29938,-8.29938 h 86.33038 c 2.20111,0 4.3121,0.87442 5.86853,2.43085 1.55645,1.55643 2.43084,3.66742 2.43084,5.86853 v 33.19653 c 0,4.58362 -3.71575,8.29938 -8.29937,8.29938 h -86.33038 c -4.58362,0 -8.29938,-3.71576 -8.29938,-8.29938 z"
       stroke-linecap="butt"
       stroke-linejoin="round"
       stroke-width="2"
       stroke="#595959" />
    <path
       id="path39"
       fill-rule="nonzero"
       d="M 346.45625,340.76473 V 329.3116 h 3.70312 q 2.10938,0 2.75,0.17188 0.98438,0.25 1.64063,1.125 0.67187,0.85937 0.67187,2.21875 0,1.0625 -0.39062,1.78125 -0.375,0.71875 -0.96875,1.125 -0.57813,0.40625 -1.1875,0.54687 -0.82813,0.15625 -2.40625,0.15625 h -1.5 v 4.32813 z m 2.3125,-9.51563 v 3.25 h 1.26562 q 1.35938,0 1.8125,-0.17187 0.46875,-0.1875 0.73438,-0.5625 0.26562,-0.39063 0.26562,-0.90625 0,-0.625 -0.375,-1.03125 -0.35937,-0.40625 -0.92187,-0.5 -0.42188,-0.0781 -1.67188,-0.0781 z m 8.375,9.51563 V 329.3116 h 2.25 l 4.6875,7.64063 v -7.64063 h 2.15625 v 11.45313 h -2.32813 L 359.3,333.29598 v 7.46875 z m 16.86719,-4.21875 v -1.92188 h 4.98437 v 4.5625 q -0.73437,0.70313 -2.10937,1.25 -1.375,0.53125 -2.79688,0.53125 -1.79687,0 -3.14062,-0.75 -1.32813,-0.76562 -2,-2.17187 -0.67188,-1.40625 -0.67188,-3.04688 0,-1.79687 0.75,-3.1875 0.75,-1.39062 2.20313,-2.125 1.09375,-0.57812 2.73437,-0.57812 2.14063,0 3.32813,0.90625 1.20312,0.89062 1.54687,2.46875 l -2.29687,0.42187 q -0.23438,-0.84375 -0.90625,-1.32812 -0.67188,-0.48438 -1.67188,-0.48438 -1.51562,0 -2.40625,0.96875 -0.89062,0.95313 -0.89062,2.84375 0,2.03125 0.90625,3.0625 0.90625,1.01563 2.375,1.01563 0.71875,0 1.45312,-0.28125 0.73438,-0.29688 1.25,-0.70313 v -1.45312 z"
       fill="#000000" />
    <path
       id="path41"
       fill-rule="evenodd"
       d="m 407.09801,13.870779 v 0 c 0,-4.896732 3.96957,-8.866322 8.8663,-8.866322 h 148.91302 c 2.3515,0 4.60669,0.934128 6.26947,2.596886 1.66272,1.662758 2.59687,3.917942 2.59687,6.269436 v 35.464214 c 0,4.896728 -3.96961,8.866318 -8.86634,8.866318 H 415.96431 c -4.89673,0 -8.8663,-3.96959 -8.8663,-8.866318 z"
       fill="#cfe2f3" />
    <path
       id="path43"
       fill-rule="evenodd"
       d="m 407.09801,13.870779 v 0 c 0,-4.896732 3.96957,-8.866322 8.8663,-8.866322 h 148.91302 c 2.3515,0 4.60669,0.934128 6.26947,2.596886 1.66272,1.662758 2.59687,3.917942 2.59687,6.269436 v 35.464214 c 0,4.896728 -3.96961,8.866318 -8.86634,8.866318 H 415.96431 c -4.89673,0 -8.8663,-3.96959 -8.8663,-8.866318 z"
       stroke-linecap="butt"
       stroke-linejoin="round"
       stroke-width="2"
       stroke="#595959" />
    <path
       id="path45"
       fill-rule="nonzero"
       d="M 426.99896,27.962884 V 16.509759 h 1.51562 v 11.453125 z m 3.44531,-2.484375 1.39063,-0.21875 q 0.10937,0.84375 0.64062,1.296875 0.54688,0.4375 1.5,0.4375 0.96875,0 1.4375,-0.390625 0.46875,-0.40625 0.46875,-0.9375 0,-0.46875 -0.40625,-0.75 -0.29687,-0.1875 -1.4375,-0.46875 -1.54687,-0.390625 -2.15625,-0.671875 -0.59375,-0.296875 -0.90625,-0.796875 -0.29687,-0.5 -0.29687,-1.109375 0,-0.5625 0.25,-1.03125 0.25,-0.46875 0.6875,-0.78125 0.32812,-0.25 0.89062,-0.40625 0.57813,-0.171875 1.21875,-0.171875 0.98438,0 1.71875,0.28125 0.73438,0.28125 1.07813,0.765625 0.35937,0.46875 0.5,1.28125 l -1.375,0.1875 q -0.0937,-0.640625 -0.54688,-1 -0.45312,-0.359375 -1.26562,-0.359375 -0.96875,0 -1.39063,0.328125 -0.40625,0.3125 -0.40625,0.734375 0,0.28125 0.17188,0.5 0.17187,0.21875 0.53125,0.375 0.21875,0.07813 1.25,0.359375 1.48437,0.390625 2.07812,0.65625 0.59375,0.25 0.92188,0.734375 0.34375,0.484375 0.34375,1.203125 0,0.703125 -0.42188,1.328125 -0.40625,0.609375 -1.1875,0.953125 -0.76562,0.34375 -1.73437,0.34375 -1.625,0 -2.46875,-0.671875 -0.84375,-0.671875 -1.07813,-2 z m 13.00781,-7.359375 v -1.609375 h 1.40625 v 1.609375 z m 0,9.84375 v -8.296875 h 1.40625 v 8.296875 z m 6.61719,-1.265625 0.20313,1.25 q -0.59375,0.125 -1.0625,0.125 -0.76563,0 -1.1875,-0.234375 -0.42188,-0.25 -0.59375,-0.640625 -0.17188,-0.40625 -0.17188,-1.671875 v -4.765625 h -1.03125 v -1.09375 h 1.03125 v -2.0625 l 1.40625,-0.84375 v 2.90625 h 1.40625 v 1.09375 h -1.40625 v 4.84375 q 0,0.609375 0.0625,0.78125 0.0781,0.171875 0.25,0.28125 0.17188,0.09375 0.48438,0.09375 0.23437,0 0.60937,-0.0625 z m 11.23438,0.234375 q -0.78125,0.671875 -1.5,0.953125 -0.71875,0.265625 -1.54688,0.265625 -1.375,0 -2.10937,-0.671875 -0.73438,-0.671875 -0.73438,-1.703125 0,-0.609375 0.28125,-1.109375 0.28125,-0.515625 0.71875,-0.8125 0.45313,-0.3125 1.01563,-0.46875 0.42187,-0.109375 1.25,-0.203125 1.70312,-0.203125 2.51562,-0.484375 0,-0.296875 0,-0.375 0,-0.859375 -0.39062,-1.203125 -0.54688,-0.484375 -1.60938,-0.484375 -0.98437,0 -1.46875,0.359375 -0.46875,0.34375 -0.6875,1.21875 l -1.375,-0.1875 q 0.1875,-0.875 0.60938,-1.421875 0.4375,-0.546875 1.25,-0.828125 0.8125,-0.296875 1.875,-0.296875 1.0625,0 1.71875,0.25 0.67187,0.25 0.98437,0.625 0.3125,0.375 0.4375,0.953125 0.0781,0.359375 0.0781,1.296875 v 1.875 q 0,1.96875 0.0781,2.484375 0.0937,0.515625 0.35938,1 h -1.46875 q -0.21875,-0.4375 -0.28125,-1.03125 z m -0.10938,-3.140625 q -0.76562,0.3125 -2.29687,0.53125 -0.875,0.125 -1.23438,0.28125 -0.35937,0.15625 -0.5625,0.46875 -0.1875,0.296875 -0.1875,0.65625 0,0.5625 0.42188,0.9375 0.4375,0.375 1.25,0.375 0.8125,0 1.4375,-0.34375 0.64062,-0.359375 0.9375,-0.984375 0.23437,-0.46875 0.23437,-1.40625 z m 8.01563,4.171875 V 16.509759 h 1.40625 v 11.453125 z m 3.05468,-4.15625 q 0,-2.296875 1.28125,-3.40625 1.07813,-0.921875 2.60938,-0.921875 1.71875,0 2.79687,1.125 1.09375,1.109375 1.09375,3.09375 0,1.59375 -0.48437,2.515625 -0.48438,0.921875 -1.40625,1.4375 -0.90625,0.5 -2,0.5 -1.73438,0 -2.8125,-1.109375 -1.07813,-1.125 -1.07813,-3.234375 z m 1.45313,0 q 0,1.59375 0.6875,2.390625 0.70312,0.796875 1.75,0.796875 1.04687,0 1.73437,-0.796875 0.70313,-0.796875 0.70313,-2.4375 0,-1.53125 -0.70313,-2.328125 -0.6875,-0.796875 -1.73437,-0.796875 -1.04688,0 -1.75,0.796875 -0.6875,0.78125 -0.6875,2.375 z m 7.71094,4.84375 1.375,0.203125 q 0.0781,0.640625 0.46875,0.921875 0.53125,0.390625 1.4375,0.390625 0.96875,0 1.5,-0.390625 0.53128,-0.390625 0.71878,-1.09375 0.10937,-0.421875 0.10937,-1.8125 -0.9219,1.09375 -2.2969,1.09375 -1.71875,0 -2.65625,-1.234375 -0.9375,-1.234375 -0.9375,-2.96875 0,-1.1875 0.42187,-2.1875 0.4375,-1 1.25,-1.546875 0.82813,-0.546875 1.92188,-0.546875 1.46875,0 2.4219,1.1875 v -1 h 1.29688 v 7.171875 q 0,1.9375 -0.39063,2.75 -0.39062,0.8125 -1.25,1.28125 -0.8594,0.46875 -2.1094,0.46875 -1.48438,0 -2.40625,-0.671875 -0.90625,-0.671875 -0.875,-2.015625 z m 1.17187,-4.984375 q 0,1.625 0.64063,2.375 0.65625,0.75 1.625,0.75 0.96875,0 1.625,-0.734375 0.65628,-0.75 0.65628,-2.34375 0,-1.53125 -0.67191,-2.296875 -0.67187,-0.78125 -1.625,-0.78125 -0.9375,0 -1.59375,0.765625 -0.65625,0.765625 -0.65625,2.265625 z m 7.46096,0.140625 q 0,-2.296875 1.28125,-3.40625 1.07813,-0.921875 2.60938,-0.921875 1.71875,0 2.79687,1.125 1.09375,1.109375 1.09375,3.09375 0,1.59375 -0.48437,2.515625 -0.48438,0.921875 -1.40625,1.4375 -0.90625,0.5 -2,0.5 -1.73438,0 -2.8125,-1.109375 -1.07813,-1.125 -1.07813,-3.234375 z m 1.45313,0 q 0,1.59375 0.6875,2.390625 0.70312,0.796875 1.75,0.796875 1.04687,0 1.73437,-0.796875 0.70313,-0.796875 0.70313,-2.4375 0,-1.53125 -0.70313,-2.328125 -0.6875,-0.796875 -1.73437,-0.796875 -1.04688,0 -1.75,0.796875 -0.6875,0.78125 -0.6875,2.375 z m 8.33593,4.15625 v -1.609375 h 1.60938 v 1.609375 q 0,0.890625 -0.3125,1.421875 -0.3125,0.546875 -1,0.84375 l -0.39063,-0.59375 q 0.45313,-0.203125 0.65625,-0.578125 0.21875,-0.375 0.23438,-1.09375 z m 8.53125,-9.84375 v -1.609375 h 1.40625 v 1.609375 z m 0,9.84375 v -8.296875 h 1.40625 v 8.296875 z m 8.96094,-3.046875 1.39063,0.1875 q -0.23438,1.421875 -1.17188,2.234375 -0.92187,0.8125 -2.28125,0.8125 -1.70312,0 -2.75,-1.109375 -1.03125,-1.125 -1.03125,-3.203125 0,-1.34375 0.4375,-2.34375 0.45313,-1.015625 1.35938,-1.515625 0.92187,-0.5 1.98437,-0.5 1.35938,0 2.21875,0.6875 0.85938,0.671875 1.09375,1.9375 l -1.35937,0.203125 q -0.20313,-0.828125 -0.70313,-1.25 -0.48437,-0.421875 -1.1875,-0.421875 -1.0625,0 -1.73437,0.765625 -0.65625,0.75 -0.65625,2.40625 0,1.671875 0.64062,2.4375 0.64063,0.75 1.67188,0.75 0.82812,0 1.375,-0.5 0.5625,-0.515625 0.70312,-1.578125 z m 2.0625,-1.109375 q 0,-2.296875 1.28125,-3.40625 1.07813,-0.921875 2.60938,-0.921875 1.71875,0 2.79687,1.125 1.09375,1.109375 1.09375,3.09375 0,1.59375 -0.48437,2.515625 -0.48438,0.921875 -1.40625,1.4375 -0.90625,0.5 -2,0.5 -1.73438,0 -2.8125,-1.109375 -1.07813,-1.125 -1.07813,-3.234375 z m 1.45313,0 q 0,1.59375 0.6875,2.390625 0.70312,0.796875 1.75,0.796875 1.04687,0 1.73437,-0.796875 0.70313,-0.796875 0.70313,-2.4375 0,-1.53125 -0.70313,-2.328125 -0.6875,-0.796875 -1.73437,-0.796875 -1.04688,0 -1.75,0.796875 -0.6875,0.78125 -0.6875,2.375 z m 7.97656,4.15625 v -8.296875 h 1.26562 v 1.171875 q 0.90625,-1.359375 2.64063,-1.359375 0.75,0 1.375,0.265625 0.625,0.265625 0.9375,0.703125 0.3125,0.4375 0.4375,1.046875 0.0781,0.390625 0.0781,1.359375 v 5.109375 h -1.40625 v -5.046875 q 0,-0.859375 -0.17187,-1.28125 -0.15625,-0.4375 -0.57813,-0.6875 -0.40625,-0.25 -0.96875,-0.25 -0.90625,0 -1.5625,0.578125 -0.64062,0.5625 -0.64062,2.15625 v 4.53125 z m 12.8125,-4.15625 q 0,-2.296875 1.28125,-3.40625 1.07812,-0.921875 2.60937,-0.921875 1.71875,0 2.79688,1.125 1.09375,1.109375 1.09375,3.09375 0,1.59375 -0.48438,2.515625 -0.48437,0.921875 -1.40625,1.4375 -0.90625,0.5 -2,0.5 -1.73437,0 -2.8125,-1.109375 -1.07812,-1.125 -1.07812,-3.234375 z m 1.45312,0 q 0,1.59375 0.6875,2.390625 0.70313,0.796875 1.75,0.796875 1.04688,0 1.73438,-0.796875 0.70312,-0.796875 0.70312,-2.4375 0,-1.53125 -0.70312,-2.328125 -0.6875,-0.796875 -1.73438,-0.796875 -1.04687,0 -1.75,0.796875 -0.6875,0.78125 -0.6875,2.375 z m 7.96094,4.15625 v -8.296875 h 1.26563 v 1.25 q 0.48437,-0.875 0.89062,-1.15625 0.40625,-0.28125 0.90625,-0.28125 0.70313,0 1.4375,0.453125 l -0.48437,1.296875 q -0.51563,-0.296875 -1.03125,-0.296875 -0.45313,0 -0.82813,0.28125 -0.35937,0.265625 -0.51562,0.765625 -0.23438,0.75 -0.23438,1.640625 v 4.34375 z"
       fill="#000000" />
    <path
       id="path47"
       fill-rule="nonzero"
       d="m 451.01848,37.119134 v -1.609375 h 1.40625 v 1.609375 z m 0,9.84375 v -8.296875 h 1.40625 v 8.296875 z m 3.52344,0 V 35.509759 h 1.40625 v 11.453125 z m 3.55468,0 V 35.509759 h 1.40625 v 11.453125 z m 9.02344,0 v -1.21875 q -0.96875,1.40625 -2.64062,1.40625 -0.73438,0 -1.375,-0.28125 -0.625,-0.28125 -0.9375,-0.703125 -0.3125,-0.4375 -0.4375,-1.046875 -0.0781,-0.421875 -0.0781,-1.3125 v -5.140625 h 1.40625 v 4.59375 q 0,1.109375 0.0781,1.484375 0.14062,0.5625 0.5625,0.875 0.4375,0.3125 1.0625,0.3125 0.64062,0 1.1875,-0.3125 0.5625,-0.328125 0.78125,-0.890625 0.23437,-0.5625 0.23437,-1.625 v -4.4375 h 1.40625 v 8.296875 z m 2.89844,-2.484375 1.39062,-0.21875 q 0.10938,0.84375 0.64063,1.296875 0.54687,0.4375 1.5,0.4375 0.96875,0 1.4375,-0.390625 0.46875,-0.40625 0.46875,-0.9375 0,-0.46875 -0.40625,-0.75 -0.29688,-0.1875 -1.4375,-0.46875 -1.54688,-0.390625 -2.15625,-0.671875 -0.59375,-0.296875 -0.90625,-0.796875 -0.29688,-0.5 -0.29688,-1.109375 0,-0.5625 0.25,-1.03125 0.25,-0.46875 0.6875,-0.78125 0.32813,-0.25 0.89063,-0.40625 0.57812,-0.171875 1.21875,-0.171875 0.98437,0 1.71875,0.28125 0.73437,0.28125 1.07812,0.765625 0.35938,0.46875 0.5,1.28125 l -1.375,0.1875 q -0.0937,-0.640625 -0.54687,-1 -0.45313,-0.359375 -1.26563,-0.359375 -0.96875,0 -1.39062,0.328125 -0.40625,0.3125 -0.40625,0.734375 0,0.28125 0.17187,0.5 0.17188,0.21875 0.53125,0.375 0.21875,0.07813 1.25,0.359375 1.48438,0.390625 2.07813,0.65625 0.59375,0.25 0.92187,0.734375 0.34375,0.484375 0.34375,1.203125 0,0.703125 -0.42187,1.328125 -0.40625,0.609375 -1.1875,0.953125 -0.76563,0.34375 -1.73438,0.34375 -1.625,0 -2.46875,-0.671875 -0.84375,-0.671875 -1.07812,-2 z m 11.625,1.21875 0.20312,1.25 q -0.59375,0.125 -1.0625,0.125 -0.76562,0 -1.1875,-0.234375 -0.42187,-0.25 -0.59375,-0.640625 -0.17187,-0.40625 -0.17187,-1.671875 v -4.765625 h -1.03125 v -1.09375 h 1.03125 v -2.0625 l 1.40625,-0.84375 v 2.90625 h 1.40625 v 1.09375 h -1.40625 v 4.84375 q 0,0.609375 0.0625,0.78125 0.0781,0.171875 0.25,0.28125 0.17187,0.09375 0.48437,0.09375 0.23438,0 0.60938,-0.0625 z m 1.36719,1.265625 v -8.296875 h 1.26562 v 1.25 q 0.48438,-0.875 0.89063,-1.15625 0.40625,-0.28125 0.90625,-0.28125 0.70315,0 1.43753,0.453125 l -0.48438,1.296875 q -0.51565,-0.296875 -1.03128,-0.296875 -0.45312,0 -0.82812,0.28125 -0.35938,0.265625 -0.51563,0.765625 -0.23437,0.75 -0.23437,1.640625 v 4.34375 z m 10.75003,-1.03125 q -0.78125,0.671875 -1.5,0.953125 -0.71875,0.265625 -1.54688,0.265625 -1.375,0 -2.10937,-0.671875 -0.73438,-0.671875 -0.73438,-1.703125 0,-0.609375 0.28125,-1.109375 0.28125,-0.515625 0.71875,-0.8125 0.45313,-0.3125 1.01563,-0.46875 0.42187,-0.109375 1.25,-0.203125 1.70312,-0.203125 2.51562,-0.484375 0,-0.296875 0,-0.375 0,-0.859375 -0.39062,-1.203125 -0.54688,-0.484375 -1.60938,-0.484375 -0.98437,0 -1.46875,0.359375 -0.46875,0.34375 -0.6875,1.21875 l -1.375,-0.1875 q 0.1875,-0.875 0.60938,-1.421875 0.4375,-0.546875 1.25,-0.828125 0.8125,-0.296875 1.875,-0.296875 1.0625,0 1.71875,0.25 0.67187,0.25 0.98437,0.625 0.3125,0.375 0.4375,0.953125 0.0781,0.359375 0.0781,1.296875 v 1.875 q 0,1.96875 0.0781,2.484375 0.0937,0.515625 0.35938,1 h -1.46875 q -0.21875,-0.4375 -0.28125,-1.03125 z m -0.10938,-3.140625 q -0.76562,0.3125 -2.29687,0.53125 -0.875,0.125 -1.23438,0.28125 -0.35937,0.15625 -0.5625,0.46875 -0.1875,0.296875 -0.1875,0.65625 0,0.5625 0.42188,0.9375 0.4375,0.375 1.25,0.375 0.8125,0 1.4375,-0.34375 0.64062,-0.359375 0.9375,-0.984375 0.23437,-0.46875 0.23437,-1.40625 z m 6.66408,2.90625 0.20312,1.25 q -0.59375,0.125 -1.0625,0.125 -0.76562,0 -1.1875,-0.234375 -0.42187,-0.25 -0.59375,-0.640625 -0.17187,-0.40625 -0.17187,-1.671875 v -4.765625 h -1.03125 v -1.09375 h 1.03125 v -2.0625 l 1.40625,-0.84375 v 2.90625 h 1.40625 v 1.09375 h -1.40625 v 4.84375 q 0,0.609375 0.0625,0.78125 0.0781,0.171875 0.25,0.28125 0.17187,0.09375 0.48437,0.09375 0.23438,0 0.60938,-0.0625 z m 1.3828,-8.578125 v -1.609375 h 1.40625 v 1.609375 z m 0,9.84375 v -8.296875 h 1.40625 v 8.296875 z m 3.02345,-4.15625 q 0,-2.296875 1.28125,-3.40625 1.07812,-0.921875 2.60937,-0.921875 1.71875,0 2.79688,1.125 1.09374,1.109375 1.09374,3.09375 0,1.59375 -0.48438,2.515625 -0.48436,0.921875 -1.40624,1.4375 -0.90625,0.5 -2,0.5 -1.73437,0 -2.8125,-1.109375 -1.07812,-1.125 -1.07812,-3.234375 z m 1.45312,0 q 0,1.59375 0.6875,2.390625 0.70313,0.796875 1.75,0.796875 1.04688,0 1.73438,-0.796875 0.70312,-0.796875 0.70312,-2.4375 0,-1.53125 -0.70312,-2.328125 -0.6875,-0.796875 -1.73438,-0.796875 -1.04687,0 -1.75,0.796875 -0.6875,0.78125 -0.6875,2.375 z m 7.97655,4.15625 v -8.296875 h 1.26563 v 1.171875 q 0.90625,-1.359375 2.64062,-1.359375 0.75,0 1.375,0.265625 0.625,0.265625 0.9375,0.703125 0.3125,0.4375 0.4375,1.046875 0.0781,0.390625 0.0781,1.359375 v 5.109375 h -1.40625 v -5.046875 q 0,-0.859375 -0.17188,-1.28125 -0.15625,-0.4375 -0.57812,-0.6875 -0.40625,-0.25 -0.96875,-0.25 -0.90625,0 -1.5625,0.578125 -0.64063,0.5625 -0.64063,2.15625 v 4.53125 z m 11.52344,-2.828125 q 0,-0.28125 0,-0.421875 0,-0.828125 0.23438,-1.421875 0.17187,-0.453125 0.54687,-0.921875 0.28125,-0.328125 1.01563,-0.96875 0.73437,-0.65625 0.95312,-1.03125 0.21875,-0.390625 0.21875,-0.84375 0,-0.8125 -0.64062,-1.4375 -0.64063,-0.625 -1.57813,-0.625 -0.89062,0 -1.5,0.5625 -0.59375,0.5625 -0.78125,1.765625 l -1.45312,-0.171875 q 0.20312,-1.609375 1.15625,-2.453125 0.96875,-0.859375 2.5625,-0.859375 1.67187,0 2.67187,0.921875 1,0.90625 1,2.203125 0,0.75 -0.35937,1.390625 -0.34375,0.625 -1.35938,1.53125 -0.6875,0.609375 -0.90625,0.90625 -0.20312,0.28125 -0.3125,0.65625 -0.0937,0.375 -0.10937,1.21875 z m -0.0781,2.828125 v -1.609375 h 1.59375 v 1.609375 z"
       fill="#000000" />
    <path
       id="path49"
       fill-rule="evenodd"
       d="m 528.95363,110.80515 v 0 c 0,-4.58362 3.71576,-8.29938 8.29938,-8.29938 h 141.19653 c 2.20111,0 4.31213,0.87439 5.86853,2.43083 1.55645,1.55643 2.43084,3.66741 2.43084,5.86855 v 33.19652 c 0,4.58362 -3.71575,8.29938 -8.29937,8.29938 H 537.25301 c -4.58362,0 -8.29938,-3.71576 -8.29938,-8.29938 z"
       fill="#fff2cc" />
    <path
       id="path51"
       fill-rule="evenodd"
       d="m 528.95363,110.80515 v 0 c 0,-4.58362 3.71576,-8.29938 8.29938,-8.29938 h 141.19653 c 2.20111,0 4.31213,0.87439 5.86853,2.43083 1.55645,1.55643 2.43084,3.66741 2.43084,5.86855 v 33.19652 c 0,4.58362 -3.71575,8.29938 -8.29937,8.29938 H 537.25301 c -4.58362,0 -8.29938,-3.71576 -8.29938,-8.29938 z"
       stroke-linecap="butt"
       stroke-linejoin="round"
       stroke-width="2"
       stroke="#595959" />
    <path
       id="path53"
       fill-rule="nonzero"
       d="m 591.53488,129.52903 2.25,-0.21875 q 0.20312,1.14062 0.82812,1.67187 0.625,0.53125 1.67188,0.53125 1.125,0 1.6875,-0.46875 0.5625,-0.48437 0.5625,-1.10937 0,-0.40625 -0.23438,-0.6875 -0.23437,-0.29688 -0.82812,-0.5 -0.40625,-0.14063 -1.85938,-0.5 -1.85937,-0.46875 -2.60937,-1.14063 -1.04688,-0.9375 -1.04688,-2.29687 0,-0.875 0.48438,-1.64063 0.5,-0.76562 1.4375,-1.15625 0.9375,-0.40625 2.25,-0.40625 2.15625,0 3.25,0.95313 1.09375,0.9375 1.14062,2.51562 l -2.3125,0.10938 q -0.14062,-0.89063 -0.64062,-1.26563 -0.48438,-0.39062 -1.45313,-0.39062 -1.01562,0 -1.57812,0.40625 -0.375,0.26562 -0.375,0.71875 0,0.40625 0.34375,0.6875 0.4375,0.375 2.125,0.78125 1.6875,0.39062 2.5,0.8125 0.8125,0.42187 1.26562,1.17187 0.45313,0.73438 0.45313,1.8125 0,0.98438 -0.54688,1.84375 -0.54687,0.85938 -1.54687,1.28125 -1,0.42188 -2.48438,0.42188 -2.17187,0 -3.34375,-1 -1.15625,-1.01563 -1.39062,-2.9375 z m 14.1875,3.73437 -4.10938,-11.45312 h 2.51563 l 2.90625,8.46875 2.79687,-8.46875 h 2.45313 l -4.09375,11.45312 z m 13.07812,-4.21875 v -1.92187 h 4.98438 v 4.5625 q -0.73438,0.70312 -2.10938,1.25 -1.375,0.53125 -2.79687,0.53125 -1.79688,0 -3.14063,-0.75 -1.32812,-0.76563 -2,-2.17188 -0.67187,-1.40625 -0.67187,-3.04687 0,-1.79688 0.75,-3.1875 0.75,-1.39063 2.20312,-2.125 1.09375,-0.57813 2.73438,-0.57813 2.14062,0 3.32812,0.90625 1.20313,0.89063 1.54688,2.46875 l -2.29688,0.42188 q -0.23437,-0.84375 -0.90625,-1.32813 -0.67187,-0.48437 -1.67187,-0.48437 -1.51563,0 -2.40625,0.96875 -0.89063,0.95312 -0.89063,2.84375 0,2.03125 0.90625,3.0625 0.90625,1.01562 2.375,1.01562 0.71875,0 1.45313,-0.28125 0.73437,-0.29687 1.25,-0.70312 v -1.45313 z"
       fill="#000000" />
    <path
       id="path55"
       fill-rule="evenodd"
       d="M 490.42089,58.201314 381.79095,102.51627"
       fill-opacity="0"
       fill="#000000" />
    <path
       id="path57"
       fill-rule="evenodd"
       d="m 490.42089,58.201314 -97.51892,39.78228"
       stroke-linecap="butt"
       stroke-linejoin="round"
       stroke-width="2"
       stroke="#595959" />
    <path
       id="path59"
       fill-rule="evenodd"
       d="m 391.65413,94.924864 -7.156,6.487006 9.65161,-0.36953 z"
       stroke-linecap="butt"
       stroke-width="2"
       stroke="#595959"
       fill="#595959" />
    <path
       id="path61"
       fill-rule="evenodd"
       d="M 490.42089,58.201314 607.83818,102.51627"
       fill-opacity="0"
       fill="#000000" />
    <path
       id="path63"
       fill-rule="evenodd"
       d="m 490.42089,58.201314 106.19024,40.07772"
       stroke-linecap="butt"
       stroke-linejoin="round"
       stroke-width="2"
       stroke="#595959" />
    <path
       id="path65"
       fill-rule="evenodd"
       d="m 595.44468,101.3697 9.65802,0.11417 -7.32507,-6.295506 z"
       stroke-linecap="butt"
       stroke-width="2"
       stroke="#595959"
       fill="#595959" />
    <path
       id="path67"
       fill-rule="evenodd"
       d="M 381.78829,152.30105 264.81191,198.2223"
       fill-opacity="0"
       fill="#000000" />
    <path
       id="path69"
       fill-rule="evenodd"
       d="M 381.78829,152.30105 275.98201,193.83727"
       stroke-linecap="butt"
       stroke-linejoin="round"
       stroke-width="2"
       stroke="#595959" />
    <path
       id="path71"
       fill-rule="evenodd"
       d="m 274.77488,190.76226 -7.24136,6.39163 9.65567,-0.24162 z"
       stroke-linecap="butt"
       stroke-width="2"
       stroke="#595959"
       fill="#595959" />
    <path
       id="path73"
       fill-rule="evenodd"
       d="M 381.78829,152.30105 497.81977,198.2223"
       fill-opacity="0"
       fill="#000000" />
    <path
       id="path75"
       fill-rule="evenodd"
       d="m 381.78829,152.30105 104.87356,41.50532"
       stroke-linecap="butt"
       stroke-linejoin="round"
       stroke-width="2"
       stroke="#595959" />
    <path
       id="path77"
       fill-rule="evenodd"
       d="m 485.44619,196.87803 9.65496,0.26834 -7.22362,-6.41165 z"
       stroke-linecap="butt"
       stroke-width="2"
       stroke="#595959"
       fill="#595959" />
    <path
       id="path79"
       fill-rule="evenodd"
       d="m 269.03764,148.92571 h 62.42521 v 32.91339 h -62.42521 z"
       fill-opacity="0"
       fill="#000000" />
    <path
       id="path81"
       fill-rule="nonzero"
       d="m 289.02708,175.84571 v -5.625 l -4.89063,-7.73438 h 3.17188 l 3.14062,5.28125 3.07813,-5.28125 h 3.10937 l -4.92187,7.75 v 5.60938 z m 13.49174,-3.07813 2.54687,0.42188 q -0.48437,1.40625 -1.54687,2.14062 -1.0625,0.73438 -2.65625,0.73438 -2.51563,0 -3.73438,-1.65625 -0.95312,-1.3125 -0.95312,-3.32813 0,-2.40625 1.25,-3.76562 1.26562,-1.35938 3.1875,-1.35938 2.15625,0 3.40625,1.42188 1.25,1.42187 1.1875,4.375 h -6.40625 q 0.0312,1.14062 0.60937,1.78125 0.59375,0.625 1.48438,0.625 0.59375,0 1,-0.32813 0.42187,-0.32812 0.625,-1.0625 z m 0.15625,-2.59375 q -0.0312,-1.10937 -0.57813,-1.6875 -0.54687,-0.57812 -1.32812,-0.57812 -0.84375,0 -1.39063,0.60937 -0.54687,0.60938 -0.53125,1.65625 z m 3.71947,2.90625 2.5625,-0.39062 q 0.17188,0.75 0.67188,1.14062 0.5,0.39063 1.40625,0.39063 0.98437,0 1.48437,-0.375 0.34375,-0.25 0.34375,-0.67188 0,-0.29687 -0.1875,-0.48437 -0.1875,-0.1875 -0.85937,-0.34375 -3.09375,-0.6875 -3.92188,-1.25 -1.14062,-0.78125 -1.14062,-2.17188 0,-1.26562 0.98437,-2.10937 1,-0.85938 3.07813,-0.85938 1.98437,0 2.95312,0.65625 0.96875,0.64063 1.32813,1.90625 l -2.40625,0.4375 q -0.15625,-0.5625 -0.59375,-0.85937 -0.42188,-0.29688 -1.23438,-0.29688 -1,0 -1.4375,0.28125 -0.29687,0.20313 -0.29687,0.51563 0,0.26562 0.25,0.46875 0.34375,0.25 2.39062,0.71875 2.04688,0.45312 2.85938,1.14062 0.79687,0.67188 0.79687,1.89063 0,1.34375 -1.10937,2.29687 -1.10938,0.95313 -3.28125,0.95313 -1.98438,0 -3.14063,-0.79688 -1.14062,-0.8125 -1.5,-2.1875 z"
       fill="#274e13" />
    <path
       id="path83"
       fill-rule="evenodd"
       d="m 549.21878,53.980834 h 62.42517 v 32.91338 h -62.42517 z"
       fill-opacity="0"
       fill="#000000" />
    <path
       id="path85"
       fill-rule="nonzero"
       d="m 563.07814,80.900834 v -5.625 l -4.89063,-7.73437 h 3.17188 l 3.14062,5.28125 3.07813,-5.28125 h 3.10937 l -4.92187,7.75 v 5.60937 z m 13.4917,-3.07812 2.54687,0.42187 q -0.48437,1.40625 -1.54687,2.14063 -1.0625,0.73437 -2.65625,0.73437 -2.51563,0 -3.73438,-1.65625 -0.95312,-1.3125 -0.95312,-3.32812 0,-2.40625 1.25,-3.76563 1.26562,-1.35937 3.1875,-1.35937 2.15625,0 3.40625,1.42187 1.25,1.42188 1.1875,4.375 h -6.40625 q 0.0312,1.14063 0.60937,1.78125 0.59375,0.625 1.48438,0.625 0.59375,0 1,-0.32812 0.42187,-0.32813 0.625,-1.0625 z m 0.15625,-2.59375 q -0.0312,-1.10938 -0.57813,-1.6875 -0.54687,-0.57813 -1.32812,-0.57813 -0.84375,0 -1.39063,0.60938 -0.54687,0.60937 -0.53125,1.65625 z m 3.71948,2.90625 2.5625,-0.39063 q 0.17188,0.75 0.67188,1.14063 0.5,0.39062 1.40625,0.39062 0.98437,0 1.48437,-0.375 0.34375,-0.25 0.34375,-0.67187 0,-0.29688 -0.1875,-0.48438 -0.1875,-0.1875 -0.85937,-0.34375 -3.09375,-0.6875 -3.92188,-1.25 -1.14062,-0.78125 -1.14062,-2.17187 0,-1.26563 0.98437,-2.10938 1,-0.85937 3.07813,-0.85937 1.98437,0 2.95312,0.65625 0.96875,0.64062 1.32813,1.90625 l -2.40625,0.4375 q -0.15625,-0.5625 -0.59375,-0.85938 -0.42188,-0.29687 -1.23438,-0.29687 -1,0 -1.4375,0.28125 -0.29687,0.20312 -0.29687,0.51562 0,0.26563 0.25,0.46875 0.34375,0.25 2.39062,0.71875 2.04688,0.45313 2.85938,1.14063 0.79687,0.67187 0.79687,1.89062 0,1.34375 -1.10937,2.29688 -1.10938,0.95312 -3.28125,0.95312 -1.98438,0 -3.14063,-0.79687 -1.14062,-0.8125 -1.5,-2.1875 z"
       fill="#274e13" />
    <path
       id="path87"
       fill-rule="evenodd"
       d="m 381.78829,53.980834 h 62.4252 v 32.91338 h -62.4252 z"
       fill-opacity="0"
       fill="#000000" />
    <path
       id="path89"
       fill-rule="nonzero"
       d="m 392.17892,80.900834 v -13.35937 h 2.625 l 5.45312,8.92187 v -8.92187 h 2.51563 v 13.35937 h -2.70313 l -5.39062,-8.70312 v 8.70312 z m 12.83233,-4.96875 q 0,-1.28125 0.625,-2.46875 0.625,-1.20312 1.78125,-1.82812 1.15625,-0.625 2.57813,-0.625 2.1875,0 3.59375,1.42187 1.40625,1.42188 1.40625,3.60938 0,2.1875 -1.42188,3.64062 -1.42187,1.4375 -3.5625,1.4375 -1.32812,0 -2.54687,-0.59375 -1.20313,-0.60937 -1.82813,-1.76562 -0.625,-1.17188 -0.625,-2.82813 z m 2.625,0.125 q 0,1.45313 0.67188,2.21875 0.6875,0.75 1.6875,0.75 1,0 1.67187,-0.75 0.6875,-0.76562 0.6875,-2.23437 0,-1.42188 -0.6875,-2.1875 -0.67187,-0.76563 -1.67187,-0.76563 -1,0 -1.6875,0.76563 -0.67188,0.76562 -0.67188,2.20312 z"
       fill="#990000" />
    <path
       id="path91"
       fill-rule="evenodd"
       d="m 458.94317,148.92571 h 62.42519 v 32.91339 h -62.4252 z"
       fill-opacity="0"
       fill="#000000" />
    <path
       id="path93"
       fill-rule="nonzero"
       d="m 479.11189,175.84571 v -13.35938 h 2.625 l 5.45313,8.92188 v -8.92188 h 2.51562 v 13.35938 h -2.70312 l -5.39063,-8.70313 v 8.70313 z m 12.83234,-4.96875 q 0,-1.28125 0.625,-2.46875 0.625,-1.20313 1.78125,-1.82813 1.15625,-0.625 2.57812,-0.625 2.1875,0 3.59375,1.42188 1.40625,1.42187 1.40625,3.60937 0,2.1875 -1.42187,3.64063 -1.42188,1.4375 -3.5625,1.4375 -1.32813,0 -2.54688,-0.59375 -1.20312,-0.60938 -1.82812,-1.76563 -0.625,-1.17187 -0.625,-2.82812 z m 2.625,0.125 q 0,1.45312 0.67187,2.21875 0.6875,0.75 1.6875,0.75 1,0 1.67188,-0.75 0.6875,-0.76563 0.6875,-2.23438 0,-1.42187 -0.6875,-2.1875 -0.67188,-0.76562 -1.67188,-0.76562 -1,0 -1.6875,0.76562 -0.67187,0.76563 -0.67187,2.20313 z"
       fill="#990000" />
    <path
       id="path95"
       fill-rule="evenodd"
       d="M 497.82238,264.08318 364.49957,307.04381"
       fill-opacity="0"
       fill="#000000" />
    <path
       id="path97"
       fill-rule="evenodd"
       d="M 497.82238,264.08318 375.92124,303.36342"
       stroke-linecap="butt"
       stroke-linejoin="round"
       stroke-width="2"
       stroke="#595959" />
    <path
       id="path99"
       fill-rule="evenodd"
       d="m 374.90807,300.21917 -7.62559,5.92792 9.65195,0.36059 z"
       stroke-linecap="butt"
       stroke-width="2"
       stroke="#595959"
       fill="#595959" />
    <path
       id="path101"
       fill-rule="evenodd"
       d="M 497.82238,264.08318 645.6964,308.74462"
       fill-opacity="0"
       fill="#000000" />
    <path
       id="path103"
       fill-rule="evenodd"
       d="m 497.82238,264.08318 136.38654,41.19196"
       stroke-linecap="butt"
       stroke-linejoin="round"
       stroke-width="2"
       stroke="#595959" />
    <path
       id="path105"
       fill-rule="evenodd"
       d="m 633.25378,308.4375 9.64368,-0.53821 -7.73346,-5.78653 z"
       stroke-linecap="butt"
       stroke-width="2"
       stroke="#595959"
       fill="#595959" />
    <path
       id="path107"
       fill-rule="evenodd"
       d="m 571.62031,256.49264 h 62.42517 v 32.91339 h -62.42517 z"
       fill-opacity="0"
       fill="#000000" />
    <path
       id="path109"
       fill-rule="nonzero"
       d="m 591.78908,283.41265 v -13.35938 h 2.625 l 5.45313,8.92188 v -8.92188 h 2.51562 v 13.35938 h -2.70312 l -5.39063,-8.70313 v 8.70313 z m 12.83235,-4.96875 q 0,-1.28125 0.625,-2.46875 0.625,-1.20313 1.78125,-1.82813 1.15625,-0.625 2.57812,-0.625 2.1875,0 3.59375,1.42188 1.40625,1.42187 1.40625,3.60937 0,2.1875 -1.42187,3.64063 -1.42188,1.4375 -3.5625,1.4375 -1.32813,0 -2.54688,-0.59375 -1.20312,-0.60938 -1.82812,-1.76563 -0.625,-1.17187 -0.625,-2.82812 z m 2.625,0.125 q 0,1.45312 0.67187,2.21875 0.6875,0.75 1.6875,0.75 1,0 1.67188,-0.75 0.6875,-0.76563 0.6875,-2.23438 0,-1.42187 -0.6875,-2.1875 -0.67188,-0.76562 -1.67188,-0.76562 -1,0 -1.6875,0.76562 -0.67187,0.76563 -0.67187,2.20313 z"
       fill="#990000" />
    <path
       id="path111"
       fill-rule="evenodd"
       d="m 364.49696,256.49264 h 62.4252 v 32.91339 h -62.4252 z"
       fill-opacity="0"
       fill="#000000" />
    <path
       id="path113"
       fill-rule="nonzero"
       d="m 384.4864,283.41265 v -5.625 l -4.89063,-7.73438 h 3.17188 l 3.14062,5.28125 3.07813,-5.28125 h 3.10937 l -4.92187,7.75 v 5.60938 z m 13.49173,-3.07813 2.54688,0.42188 q -0.48438,1.40625 -1.54688,2.14062 -1.0625,0.73438 -2.65625,0.73438 -2.51562,0 -3.73437,-1.65625 -0.95313,-1.3125 -0.95313,-3.32813 0,-2.40625 1.25,-3.76562 1.26563,-1.35938 3.1875,-1.35938 2.15625,0 3.40625,1.42188 1.25,1.42187 1.1875,4.375 h -6.40625 q 0.0312,1.14062 0.60938,1.78125 0.59375,0.625 1.48437,0.625 0.59375,0 1,-0.32813 0.42188,-0.32812 0.625,-1.0625 z m 0.15625,-2.59375 q -0.0312,-1.10937 -0.57812,-1.6875 -0.54688,-0.57812 -1.32813,-0.57812 -0.84375,0 -1.39062,0.60937 -0.54688,0.60938 -0.53125,1.65625 z m 3.71948,2.90625 2.5625,-0.39062 q 0.17188,0.75 0.67188,1.14062 0.5,0.39063 1.40625,0.39063 0.98437,0 1.48437,-0.375 0.34375,-0.25 0.34375,-0.67188 0,-0.29687 -0.1875,-0.48437 -0.1875,-0.1875 -0.85937,-0.34375 -3.09375,-0.6875 -3.92188,-1.25 -1.14062,-0.78125 -1.14062,-2.17188 0,-1.26562 0.98437,-2.10937 1,-0.85938 3.07813,-0.85938 1.98437,0 2.95312,0.65625 0.96875,0.64063 1.32813,1.90625 l -2.40625,0.4375 q -0.15625,-0.5625 -0.59375,-0.85937 -0.42188,-0.29688 -1.23438,-0.29688 -1,0 -1.4375,0.28125 -0.29687,0.20313 -0.29687,0.51563 0,0.26562 0.25,0.46875 0.34375,0.25 2.39062,0.71875 2.04688,0.45312 2.85938,1.14062 0.79687,0.67188 0.79687,1.89063 0,1.34375 -1.10937,2.29687 -1.10938,0.95313 -3.28125,0.95313 -1.98438,0 -3.14063,-0.79688 -1.14062,-0.8125 -1.5,-2.1875 z"
       fill="#274e13" />
    <path
       id="path115"
       fill-rule="evenodd"
       d="m 674.02974,419.93377 v 0 c 0,-4.58362 3.71576,-8.29938 8.29938,-8.29938 h 86.33038 c 2.20118,0 4.31213,0.87439 5.86859,2.43082 1.55639,1.55643 2.43079,3.66742 2.43079,5.86856 v 33.1965 c 0,4.58362 -3.71575,8.29938 -8.29937,8.29938 h -86.33038 c -4.58362,0 -8.29938,-3.71576 -8.29938,-8.29938 z"
       fill="#fff2cc" />
    <path
       id="path117"
       fill-rule="evenodd"
       d="m 674.02974,419.93377 v 0 c 0,-4.58362 3.71576,-8.29938 8.29938,-8.29938 h 86.33038 c 2.20118,0 4.31213,0.87439 5.86859,2.43082 1.55639,1.55643 2.43079,3.66742 2.43079,5.86856 v 33.1965 c 0,4.58362 -3.71575,8.29938 -8.29937,8.29938 h -86.33038 c -4.58362,0 -8.29938,-3.71576 -8.29938,-8.29938 z"
       stroke-linecap="butt"
       stroke-linejoin="round"
       stroke-width="2"
       stroke="#595959" />
    <path
       id="path119"
       fill-rule="nonzero"
       d="m 706.21308,442.39202 -2.73437,-11.45313 h 2.35937 l 1.73438,7.85938 2.09375,-7.85938 h 2.75 l 2,8 1.76562,-8 h 2.32813 l -2.78125,11.45313 h -2.45313 l -2.28125,-8.5625 -2.28125,8.5625 z m 17.96875,-2.64063 2.1875,0.35938 q -0.42187,1.20312 -1.32812,1.84375 -0.90625,0.625 -2.28125,0.625 -2.15625,0 -3.20313,-1.42188 -0.8125,-1.125 -0.8125,-2.85937 0,-2.0625 1.07813,-3.21875 1.07812,-1.17188 2.71875,-1.17188 1.85937,0 2.92187,1.21875 1.07813,1.21875 1.03125,3.75 h -5.5 q 0.0156,0.96875 0.51563,1.51563 0.51562,0.54687 1.28125,0.54687 0.51562,0 0.85937,-0.28125 0.35938,-0.28125 0.53125,-0.90625 z m 0.125,-2.21875 q -0.0156,-0.95312 -0.48437,-1.45312 -0.46875,-0.5 -1.14063,-0.5 -0.71875,0 -1.1875,0.53125 -0.46875,0.51562 -0.46875,1.42187 z m 3.88281,4.85938 v -11.45313 h 2.1875 v 4.125 q 1.01563,-1.15625 2.40625,-1.15625 1.51563,0 2.5,1.09375 1,1.09375 1,3.15625 0,2.125 -1.01562,3.28125 -1,1.14063 -2.45313,1.14063 -0.70312,0 -1.40625,-0.35938 -0.6875,-0.35937 -1.1875,-1.04687 v 1.21875 z m 2.17188,-4.32813 q 0,1.28125 0.40625,1.90625 0.57812,0.875 1.51562,0.875 0.73438,0 1.23438,-0.625 0.51562,-0.625 0.51562,-1.95312 0,-1.42188 -0.51562,-2.04688 -0.51563,-0.64062 -1.3125,-0.64062 -0.79688,0 -1.32813,0.625 -0.51562,0.60937 -0.51562,1.85937 z m 7.71094,4.32813 v -11.45313 h 3.70312 q 2.10938,0 2.75,0.17188 0.98438,0.25 1.64063,1.125 0.67187,0.85937 0.67187,2.21875 0,1.0625 -0.39062,1.78125 -0.375,0.71875 -0.96875,1.125 -0.57813,0.40625 -1.1875,0.54687 -0.82813,0.15625 -2.40625,0.15625 h -1.5 v 4.32813 z m 2.3125,-9.51563 v 3.25 h 1.26562 q 1.35938,0 1.8125,-0.17187 0.46875,-0.1875 0.73438,-0.5625 0.26562,-0.39063 0.26562,-0.90625 0,-0.625 -0.375,-1.03125 -0.35937,-0.40625 -0.92187,-0.5 -0.42188,-0.0781 -1.67188,-0.0781 z"
       fill="#000000" />
    <path
       id="path121"
       fill-rule="evenodd"
       d="m 562.38148,317.60567 v 0 c 0,-4.89673 3.96955,-8.8663 8.86627,-8.8663 h 148.91309 c 2.35145,0 4.60663,0.93411 6.26941,2.59686 1.66278,1.66278 2.59686,3.91797 2.59686,6.26944 v 35.46423 c 0,4.89673 -3.96954,8.86631 -8.86627,8.86631 H 571.24775 c -4.89673,0 -8.86627,-3.96958 -8.86627,-8.86631 z"
       fill="#cfe2f3" />
    <path
       id="path123"
       fill-rule="evenodd"
       d="m 562.38148,317.60567 v 0 c 0,-4.89673 3.96955,-8.8663 8.86627,-8.8663 h 148.91309 c 2.35145,0 4.60663,0.93411 6.26941,2.59686 1.66278,1.66278 2.59686,3.91797 2.59686,6.26944 v 35.46423 c 0,4.89673 -3.96954,8.86631 -8.86627,8.86631 H 571.24775 c -4.89673,0 -8.86627,-3.96958 -8.86627,-8.86631 z"
       stroke-linecap="butt"
       stroke-linejoin="round"
       stroke-width="2"
       stroke="#595959" />
    <path
       id="path125"
       fill-rule="nonzero"
       d="m 589.99728,331.69778 v -11.45312 h 1.5625 l 6.01562,8.98437 v -8.98437 h 1.45313 v 11.45312 h -1.5625 l -6.01563,-9 v 9 z m 17.07031,-2.67187 1.45313,0.17187 q -0.34375,1.28125 -1.28125,1.98438 -0.92188,0.70312 -2.35938,0.70312 -1.82812,0 -2.89062,-1.125 -1.0625,-1.125 -1.0625,-3.14062 0,-2.09375 1.07812,-3.25 1.07813,-1.15625 2.79688,-1.15625 1.65625,0 2.70312,1.14062 1.0625,1.125 1.0625,3.17188 0,0.125 0,0.375 h -6.1875 q 0.0781,1.375 0.76563,2.10937 0.70312,0.71875 1.73437,0.71875 0.78125,0 1.32813,-0.40625 0.54687,-0.40625 0.85937,-1.29687 z m -4.60937,-2.28125 h 4.625 q -0.0937,-1.04688 -0.53125,-1.5625 -0.67188,-0.8125 -1.73438,-0.8125 -0.96875,0 -1.64062,0.65625 -0.65625,0.64062 -0.71875,1.71875 z m 13.50781,2.28125 1.45312,0.17187 q -0.34375,1.28125 -1.28125,1.98438 -0.92187,0.70312 -2.35937,0.70312 -1.82813,0 -2.89063,-1.125 -1.0625,-1.125 -1.0625,-3.14062 0,-2.09375 1.07813,-3.25 1.07812,-1.15625 2.79687,-1.15625 1.65625,0 2.70313,1.14062 1.0625,1.125 1.0625,3.17188 0,0.125 0,0.375 h -6.1875 q 0.0781,1.375 0.76562,2.10937 0.70313,0.71875 1.73438,0.71875 0.78125,0 1.32812,-0.40625 0.54688,-0.40625 0.85938,-1.29687 z m -4.60938,-2.28125 h 4.625 q -0.0937,-1.04688 -0.53125,-1.5625 -0.67187,-0.8125 -1.73437,-0.8125 -0.96875,0 -1.64063,0.65625 -0.65625,0.64062 -0.71875,1.71875 z m 13.21094,4.95312 v -1.04687 q -0.78125,1.23437 -2.3125,1.23437 -1,0 -1.82812,-0.54687 -0.82813,-0.54688 -1.29688,-1.53125 -0.45312,-0.98438 -0.45312,-2.25 0,-1.25 0.40625,-2.25 0.42187,-1.01563 1.25,-1.54688 0.82812,-0.54687 1.85937,-0.54687 0.75,0 1.32813,0.3125 0.59375,0.3125 0.95312,0.82812 v -4.10937 h 1.40625 v 11.45312 z m -4.4375,-4.14062 q 0,1.59375 0.67188,2.39062 0.67187,0.78125 1.57812,0.78125 0.92188,0 1.5625,-0.75 0.65625,-0.76562 0.65625,-2.3125 0,-1.70312 -0.65625,-2.5 -0.65625,-0.79687 -1.625,-0.79687 -0.9375,0 -1.5625,0.76562 -0.625,0.76563 -0.625,2.42188 z m 15.46875,2.875 0.20313,1.25 q -0.59375,0.125 -1.0625,0.125 -0.76563,0 -1.1875,-0.23438 -0.42188,-0.25 -0.59375,-0.64062 -0.17188,-0.40625 -0.17188,-1.67188 v -4.76562 h -1.03125 v -1.09375 h 1.03125 v -2.0625 l 1.40625,-0.84375 v 2.90625 h 1.40625 v 1.09375 h -1.40625 v 4.84375 q 0,0.60937 0.0625,0.78125 0.0781,0.17187 0.25,0.28125 0.17188,0.0937 0.48438,0.0937 0.23437,0 0.60937,-0.0625 z m 0.85156,-2.89063 q 0,-2.29687 1.28125,-3.40625 1.07813,-0.92187 2.60938,-0.92187 1.71875,0 2.79687,1.125 1.09375,1.10937 1.09375,3.09375 0,1.59375 -0.48437,2.51562 -0.48438,0.92188 -1.40625,1.4375 -0.90625,0.5 -2,0.5 -1.73438,0 -2.8125,-1.10937 -1.07813,-1.125 -1.07813,-3.23438 z m 1.45313,0 q 0,1.59375 0.6875,2.39063 0.70312,0.79687 1.75,0.79687 1.04687,0 1.73437,-0.79687 0.70313,-0.79688 0.70313,-2.4375 0,-1.53125 -0.70313,-2.32813 -0.6875,-0.79687 -1.73437,-0.79687 -1.04688,0 -1.75,0.79687 -0.6875,0.78125 -0.6875,2.375 z m 11.85937,1.67188 1.39063,-0.21875 q 0.10937,0.84375 0.64062,1.29687 0.54688,0.4375 1.5,0.4375 0.96875,0 1.4375,-0.39062 0.46875,-0.40625 0.46875,-0.9375 0,-0.46875 -0.40625,-0.75 -0.29687,-0.1875 -1.4375,-0.46875 -1.54687,-0.39063 -2.15625,-0.67188 -0.59375,-0.29687 -0.90625,-0.79687 -0.29687,-0.5 -0.29687,-1.10938 0,-0.5625 0.25,-1.03125 0.25,-0.46875 0.6875,-0.78125 0.32812,-0.25 0.89062,-0.40625 0.57813,-0.17187 1.21875,-0.17187 0.98438,0 1.71875,0.28125 0.73438,0.28125 1.07813,0.76562 0.35937,0.46875 0.5,1.28125 l -1.375,0.1875 q -0.0937,-0.64062 -0.54688,-1 -0.45312,-0.35937 -1.26562,-0.35937 -0.96875,0 -1.39063,0.32812 -0.40625,0.3125 -0.40625,0.73438 0,0.28125 0.17188,0.5 0.17187,0.21875 0.53125,0.375 0.21875,0.0781 1.25,0.35937 1.48437,0.39063 2.07812,0.65625 0.59375,0.25 0.92188,0.73438 0.34375,0.48437 0.34375,1.20312 0,0.70313 -0.42188,1.32813 -0.40625,0.60937 -1.1875,0.95312 -0.76562,0.34375 -1.73437,0.34375 -1.625,0 -2.46875,-0.67187 -0.84375,-0.67188 -1.07813,-2 z m 14,2.48437 v -1.21875 q -0.96875,1.40625 -2.64062,1.40625 -0.73438,0 -1.375,-0.28125 -0.625,-0.28125 -0.9375,-0.70312 -0.3125,-0.4375 -0.4375,-1.04688 -0.0781,-0.42187 -0.0781,-1.3125 v -5.14062 h 1.40625 v 4.59375 q 0,1.10937 0.0781,1.48437 0.14062,0.5625 0.5625,0.875 0.4375,0.3125 1.0625,0.3125 0.64062,0 1.1875,-0.3125 0.5625,-0.32812 0.78125,-0.89062 0.23437,-0.5625 0.23437,-1.625 v -4.4375 h 1.40625 v 8.29687 z m 3.46094,3.1875 v -11.48437 h 1.28125 v 1.07812 q 0.45313,-0.64062 1.01563,-0.95312 0.57812,-0.3125 1.39062,-0.3125 1.0625,0 1.875,0.54687 0.8125,0.54688 1.21875,1.54688 0.42188,0.98437 0.42188,2.17187 0,1.28125 -0.46875,2.29688 -0.45313,1.01562 -1.32813,1.5625 -0.85937,0.54687 -1.82812,0.54687 -0.70313,0 -1.26563,-0.29687 -0.54687,-0.29688 -0.90625,-0.75 v 4.04687 z m 1.26563,-7.29687 q 0,1.60937 0.64062,2.375 0.65625,0.76562 1.57813,0.76562 0.9375,0 1.60937,-0.79687 0.67188,-0.79688 0.67188,-2.45313 0,-1.59375 -0.65625,-2.375 -0.65625,-0.79687 -1.5625,-0.79687 -0.89063,0 -1.59375,0.84375 -0.6875,0.84375 -0.6875,2.4375 z m 7.63281,7.29687 v -11.48437 h 1.28125 v 1.07812 q 0.45312,-0.64062 1.01562,-0.95312 0.57813,-0.3125 1.39063,-0.3125 1.0625,0 1.875,0.54687 0.8125,0.54688 1.21875,1.54688 0.42187,0.98437 0.42187,2.17187 0,1.28125 -0.46875,2.29688 -0.45312,1.01562 -1.32812,1.5625 -0.85938,0.54687 -1.82813,0.54687 -0.70312,0 -1.26562,-0.29687 -0.54688,-0.29688 -0.90625,-0.75 v 4.04687 z m 1.26562,-7.29687 q 0,1.60937 0.64063,2.375 0.65625,0.76562 1.57812,0.76562 0.9375,0 1.60938,-0.79687 0.67187,-0.79688 0.67187,-2.45313 0,-1.59375 -0.65625,-2.375 -0.65625,-0.79687 -1.5625,-0.79687 -0.89062,0 -1.59375,0.84375 -0.6875,0.84375 -0.6875,2.4375 z m 7.10157,-0.0469 q 0,-2.29687 1.28125,-3.40625 1.07812,-0.92187 2.60937,-0.92187 1.71875,0 2.79688,1.125 1.09375,1.10937 1.09375,3.09375 0,1.59375 -0.48438,2.51562 -0.48437,0.92188 -1.40625,1.4375 -0.90625,0.5 -2,0.5 -1.73437,0 -2.8125,-1.10937 -1.07812,-1.125 -1.07812,-3.23438 z m 1.45312,0 q 0,1.59375 0.6875,2.39063 0.70313,0.79687 1.75,0.79687 1.04688,0 1.73438,-0.79687 0.70312,-0.79688 0.70312,-2.4375 0,-1.53125 -0.70312,-2.32813 -0.6875,-0.79687 -1.73438,-0.79687 -1.04687,0 -1.75,0.79687 -0.6875,0.78125 -0.6875,2.375 z m 7.96094,4.15625 v -8.29687 h 1.26562 v 1.25 q 0.48438,-0.875 0.89063,-1.15625 0.40625,-0.28125 0.90625,-0.28125 0.70312,0 1.4375,0.45312 l -0.48438,1.29688 q -0.51562,-0.29688 -1.03125,-0.29688 -0.45312,0 -0.82812,0.28125 -0.35938,0.26563 -0.51563,0.76563 -0.23437,0.75 -0.23437,1.64062 v 4.34375 z m 8.40625,-1.26562 0.20312,1.25 q -0.59375,0.125 -1.0625,0.125 -0.76562,0 -1.1875,-0.23438 -0.42187,-0.25 -0.59375,-0.64062 -0.17187,-0.40625 -0.17187,-1.67188 v -4.76562 h -1.03125 v -1.09375 h 1.03125 v -2.0625 l 1.40625,-0.84375 v 2.90625 h 1.40625 v 1.09375 h -1.40625 v 4.84375 q 0,0.60937 0.0625,0.78125 0.0781,0.17187 0.25,0.28125 0.17187,0.0937 0.48437,0.0937 0.23438,0 0.60938,-0.0625 z"
       fill="#000000" />
    <path
       id="path127"
       fill-rule="nonzero"
       d="m 589.32148,346.54153 q 0,-2.29687 1.28125,-3.40625 1.07812,-0.92187 2.60937,-0.92187 1.71875,0 2.79688,1.125 1.09375,1.10937 1.09375,3.09375 0,1.59375 -0.48438,2.51562 -0.48437,0.92188 -1.40625,1.4375 -0.90625,0.5 -2,0.5 -1.73437,0 -2.8125,-1.10937 -1.07812,-1.125 -1.07812,-3.23438 z m 1.45312,0 q 0,1.59375 0.6875,2.39063 0.70313,0.79687 1.75,0.79687 1.04688,0 1.73438,-0.79687 0.70312,-0.79688 0.70312,-2.4375 0,-1.53125 -0.70312,-2.32813 -0.6875,-0.79687 -1.73438,-0.79687 -1.04687,0 -1.75,0.79687 -0.6875,0.78125 -0.6875,2.375 z m 7.94532,4.15625 v -11.45312 h 1.40625 v 11.45312 z m 8.96093,0 v -1.04687 q -0.78125,1.23437 -2.3125,1.23437 -1,0 -1.82812,-0.54687 -0.82813,-0.54688 -1.29688,-1.53125 -0.45312,-0.98438 -0.45312,-2.25 0,-1.25 0.40625,-2.25 0.42187,-1.01563 1.25,-1.54688 0.82812,-0.54687 1.85937,-0.54687 0.75,0 1.32813,0.3125 0.59375,0.3125 0.95312,0.82812 v -4.10937 h 1.40625 v 11.45312 z m -4.4375,-4.14062 q 0,1.59375 0.67188,2.39062 0.67187,0.78125 1.57812,0.78125 0.92188,0 1.5625,-0.75 0.65625,-0.76562 0.65625,-2.3125 0,-1.70312 -0.65625,-2.5 -0.65625,-0.79687 -1.625,-0.79687 -0.9375,0 -1.5625,0.76562 -0.625,0.76563 -0.625,2.42188 z m 13.63282,1.46875 1.45312,0.17187 q -0.34375,1.28125 -1.28125,1.98438 -0.92187,0.70312 -2.35937,0.70312 -1.82813,0 -2.89063,-1.125 -1.0625,-1.125 -1.0625,-3.14062 0,-2.09375 1.07813,-3.25 1.07812,-1.15625 2.79687,-1.15625 1.65625,0 2.70313,1.14062 1.0625,1.125 1.0625,3.17188 0,0.125 0,0.375 h -6.1875 q 0.0781,1.375 0.76562,2.10937 0.70313,0.71875 1.73438,0.71875 0.78125,0 1.32812,-0.40625 0.54688,-0.40625 0.85938,-1.29687 z m -4.60938,-2.28125 h 4.625 q -0.0937,-1.04688 -0.53125,-1.5625 -0.67187,-0.8125 -1.73437,-0.8125 -0.96875,0 -1.64063,0.65625 -0.65625,0.64062 -0.71875,1.71875 z m 7.82031,4.95312 v -8.29687 h 1.26563 v 1.25 q 0.48437,-0.875 0.89062,-1.15625 0.40625,-0.28125 0.90625,-0.28125 0.70313,0 1.4375,0.45312 l -0.48437,1.29688 q -0.51563,-0.29688 -1.03125,-0.29688 -0.45313,0 -0.82813,0.28125 -0.35937,0.26563 -0.51562,0.76563 -0.23438,0.75 -0.23438,1.64062 v 4.34375 z m 11.08594,0 h -1.3125 v -11.45312 h 1.40625 v 4.07812 q 0.89063,-1.10937 2.28125,-1.10937 0.76563,0 1.4375,0.3125 0.6875,0.29687 1.125,0.85937 0.45313,0.5625 0.70313,1.35938 0.25,0.78125 0.25,1.67187 0,2.14063 -1.0625,3.3125 -1.04688,1.15625 -2.53125,1.15625 -1.46875,0 -2.29688,-1.23437 z m -0.0156,-4.21875 q 0,1.5 0.40625,2.15625 0.65625,1.09375 1.79687,1.09375 0.92188,0 1.59375,-0.79687 0.67188,-0.8125 0.67188,-2.39063 0,-1.625 -0.65625,-2.39062 -0.64063,-0.78125 -1.54688,-0.78125 -0.92187,0 -1.59375,0.79687 -0.67187,0.79688 -0.67187,2.3125 z m 7.60155,4.21875 v -8.29687 h 1.26563 v 1.25 q 0.48437,-0.875 0.89062,-1.15625 0.40625,-0.28125 0.90625,-0.28125 0.70313,0 1.4375,0.45312 l -0.48437,1.29688 q -0.51563,-0.29688 -1.03125,-0.29688 -0.45313,0 -0.82813,0.28125 -0.35937,0.26563 -0.51562,0.76563 -0.23438,0.75 -0.23438,1.64062 v 4.34375 z m 4.8125,-4.15625 q 0,-2.29687 1.28125,-3.40625 1.07813,-0.92187 2.60938,-0.92187 1.71875,0 2.79687,1.125 1.09375,1.10937 1.09375,3.09375 0,1.59375 -0.48437,2.51562 -0.48438,0.92188 -1.40625,1.4375 -0.90625,0.5 -2,0.5 -1.73438,0 -2.8125,-1.10937 -1.07813,-1.125 -1.07813,-3.23438 z m 1.45313,0 q 0,1.59375 0.6875,2.39063 0.70312,0.79687 1.75,0.79687 1.04687,0 1.73437,-0.79687 0.70313,-0.79688 0.70313,-2.4375 0,-1.53125 -0.70313,-2.32813 -0.6875,-0.79687 -1.73437,-0.79687 -1.04688,0 -1.75,0.79687 -0.6875,0.78125 -0.6875,2.375 z m 9.50782,4.15625 -2.54688,-8.29687 h 1.45313 l 1.32812,4.78125 0.48438,1.78125 q 0.0312,-0.125 0.4375,-1.70313 l 1.3125,-4.85937 h 1.45312 l 1.23438,4.8125 0.42187,1.57812 0.46875,-1.59375 1.42188,-4.79687 h 1.375 l -2.59375,8.29687 h -1.46875 l -1.3125,-4.96875 -0.32813,-1.42187 -1.67187,6.39062 z m 9.46093,-2.48437 1.39062,-0.21875 q 0.10938,0.84375 0.64063,1.29687 0.54687,0.4375 1.5,0.4375 0.96875,0 1.4375,-0.39062 0.46875,-0.40625 0.46875,-0.9375 0,-0.46875 -0.40625,-0.75 -0.29688,-0.1875 -1.4375,-0.46875 -1.54688,-0.39063 -2.15625,-0.67188 -0.59375,-0.29687 -0.90625,-0.79687 -0.29688,-0.5 -0.29688,-1.10938 0,-0.5625 0.25,-1.03125 0.25,-0.46875 0.6875,-0.78125 0.32813,-0.25 0.89063,-0.40625 0.57812,-0.17187 1.21875,-0.17187 0.98437,0 1.71875,0.28125 0.73437,0.28125 1.07812,0.76562 0.35938,0.46875 0.5,1.28125 l -1.375,0.1875 q -0.0937,-0.64062 -0.54687,-1 -0.45313,-0.35937 -1.26563,-0.35937 -0.96875,0 -1.39062,0.32812 -0.40625,0.3125 -0.40625,0.73438 0,0.28125 0.17187,0.5 0.17188,0.21875 0.53125,0.375 0.21875,0.0781 1.25,0.35937 1.48438,0.39063 2.07813,0.65625 0.59375,0.25 0.92187,0.73438 0.34375,0.48437 0.34375,1.20312 0,0.70313 -0.42187,1.32813 -0.40625,0.60937 -1.1875,0.95312 -0.76563,0.34375 -1.73438,0.34375 -1.625,0 -2.46875,-0.67187 -0.84375,-0.67188 -1.07812,-2 z m 14.23437,-0.1875 1.45313,0.17187 q -0.34375,1.28125 -1.28125,1.98438 -0.92188,0.70312 -2.35938,0.70312 -1.82812,0 -2.89062,-1.125 -1.0625,-1.125 -1.0625,-3.14062 0,-2.09375 1.07812,-3.25 1.07813,-1.15625 2.79688,-1.15625 1.65625,0 2.70312,1.14062 1.0625,1.125 1.0625,3.17188 0,0.125 0,0.375 h -6.1875 q 0.0781,1.375 0.76563,2.10937 0.70312,0.71875 1.73437,0.71875 0.78125,0 1.32813,-0.40625 0.54687,-0.40625 0.85937,-1.29687 z m -4.60937,-2.28125 h 4.625 q -0.0937,-1.04688 -0.53125,-1.5625 -0.67188,-0.8125 -1.73438,-0.8125 -0.96875,0 -1.64062,0.65625 -0.65625,0.64062 -0.71875,1.71875 z m 7.82032,4.95312 v -8.29687 h 1.26562 v 1.25 q 0.48438,-0.875 0.89063,-1.15625 0.40625,-0.28125 0.90625,-0.28125 0.70312,0 1.4375,0.45312 l -0.48438,1.29688 q -0.51562,-0.29688 -1.03125,-0.29688 -0.45312,0 -0.82812,0.28125 -0.35938,0.26563 -0.51563,0.76563 -0.23437,0.75 -0.23437,1.64062 v 4.34375 z m 4.78125,-2.48437 1.39062,-0.21875 q 0.10938,0.84375 0.64063,1.29687 0.54687,0.4375 1.5,0.4375 0.96875,0 1.4375,-0.39062 0.46875,-0.40625 0.46875,-0.9375 0,-0.46875 -0.40625,-0.75 -0.29688,-0.1875 -1.4375,-0.46875 -1.54688,-0.39063 -2.15625,-0.67188 -0.59375,-0.29687 -0.90625,-0.79687 -0.29688,-0.5 -0.29688,-1.10938 0,-0.5625 0.25,-1.03125 0.25,-0.46875 0.6875,-0.78125 0.32813,-0.25 0.89063,-0.40625 0.57812,-0.17187 1.21875,-0.17187 0.98437,0 1.71875,0.28125 0.73437,0.28125 1.07812,0.76562 0.35938,0.46875 0.5,1.28125 l -1.375,0.1875 q -0.0937,-0.64062 -0.54687,-1 -0.45313,-0.35937 -1.26563,-0.35937 -0.96875,0 -1.39062,0.32812 -0.40625,0.3125 -0.40625,0.73438 0,0.28125 0.17187,0.5 0.17188,0.21875 0.53125,0.375 0.21875,0.0781 1.25,0.35937 1.48438,0.39063 2.07813,0.65625 0.59375,0.25 0.92187,0.73438 0.34375,0.48437 0.34375,1.20312 0,0.70313 -0.42187,1.32813 -0.40625,0.60937 -1.1875,0.95312 -0.76563,0.34375 -1.73438,0.34375 -1.625,0 -2.46875,-0.67187 -0.84375,-0.67188 -1.07812,-2 z m 11.1875,-0.34375 q 0,-0.28125 0,-0.42188 0,-0.82812 0.23437,-1.42187 0.17188,-0.45313 0.54688,-0.92188 0.28125,-0.32812 1.01562,-0.96875 0.73438,-0.65625 0.95313,-1.03125 0.21875,-0.39062 0.21875,-0.84375 0,-0.8125 -0.64063,-1.4375 -0.64062,-0.625 -1.57812,-0.625 -0.89063,0 -1.5,0.5625 -0.59375,0.5625 -0.78125,1.76563 l -1.45313,-0.17188 q 0.20313,-1.60937 1.15625,-2.45312 0.96875,-0.85938 2.5625,-0.85938 1.67188,0 2.67188,0.92188 1,0.90625 1,2.20312 0,0.75 -0.35938,1.39063 -0.34375,0.625 -1.35937,1.53125 -0.6875,0.60937 -0.90625,0.90625 -0.20313,0.28125 -0.3125,0.65625 -0.0937,0.375 -0.10938,1.21875 z m -0.0781,2.82812 v -1.60937 h 1.59375 v 1.60937 z"
       fill="#000000" />
    <path
       id="path129"
       fill-rule="evenodd"
       d="m 645.70428,361.9362 -59.33856,49.70081"
       fill-opacity="0"
       fill="#000000" />
    <path
       id="path131"
       fill-rule="evenodd"
       d="m 645.70428,361.9362 -50.13916,41.99554"
       stroke-linecap="butt"
       stroke-linejoin="round"
       stroke-width="2"
       stroke="#595959" />
    <path
       id="path133"
       fill-rule="evenodd"
       d="m 593.44398,401.39925 -4.83685,8.36035 9.07916,-3.29535 z"
       stroke-linecap="butt"
       stroke-width="2"
       stroke="#595959"
       fill="#595959" />
    <path
       id="path135"
       fill-rule="evenodd"
       d="m 645.70428,361.9362 79.77954,49.70081"
       fill-opacity="0"
       fill="#000000" />
    <path
       id="path137"
       fill-rule="evenodd"
       d="m 645.70428,361.9362 69.5943,43.35565"
       stroke-linecap="butt"
       stroke-linejoin="round"
       stroke-width="2"
       stroke="#595959" />
    <path
       id="path139"
       fill-rule="evenodd"
       d="m 713.55183,408.09572 9.45038,1.99527 -5.95685,-7.60303 z"
       stroke-linecap="butt"
       stroke-width="2"
       stroke="#595959"
       fill="#595959" />
    <path
       id="path141"
       fill-rule="evenodd"
       d="m 688.01662,363.637 h 62.42524 v 32.91336 h -62.42524 z"
       fill-opacity="0"
       fill="#000000" />
    <path
       id="path143"
       fill-rule="nonzero"
       d="m 708.18538,390.557 v -13.35938 h 2.625 l 5.45313,8.92188 v -8.92188 h 2.51562 V 390.557 h -2.70312 l -5.39063,-8.70313 v 8.70313 z m 12.83235,-4.96875 q 0,-1.28125 0.625,-2.46875 0.625,-1.20313 1.78125,-1.82813 1.15625,-0.625 2.57812,-0.625 2.1875,0 3.59375,1.42188 1.40625,1.42187 1.40625,3.60937 0,2.1875 -1.42187,3.64063 -1.42188,1.4375 -3.5625,1.4375 -1.32813,0 -2.54688,-0.59375 -1.20312,-0.60938 -1.82812,-1.76563 -0.625,-1.17187 -0.625,-2.82812 z m 2.625,0.125 q 0,1.45312 0.67187,2.21875 0.6875,0.75 1.6875,0.75 1,0 1.67188,-0.75 0.6875,-0.76563 0.6875,-2.23438 0,-1.42187 -0.6875,-2.1875 -0.67188,-0.76562 -1.67188,-0.76562 -1,0 -1.6875,0.76562 -0.67187,0.76563 -0.67187,2.20313 z"
       fill="#990000" />
    <path
       id="path145"
       fill-rule="evenodd"
       d="m 562.38148,363.6357 h 62.42517 v 32.91336 h -62.42517 z"
       fill-opacity="0"
       fill="#000000" />
    <path
       id="path147"
       fill-rule="nonzero"
       d="m 582.37092,390.5557 v -5.625 l -4.89063,-7.73438 h 3.17188 l 3.14062,5.28125 3.07813,-5.28125 h 3.10937 l -4.92187,7.75 v 5.60938 z m 13.49176,-3.07813 2.54687,0.42188 q -0.48437,1.40625 -1.54687,2.14062 -1.0625,0.73438 -2.65625,0.73438 -2.51563,0 -3.73438,-1.65625 -0.95312,-1.3125 -0.95312,-3.32813 0,-2.40625 1.25,-3.76562 1.26562,-1.35938 3.1875,-1.35938 2.15625,0 3.40625,1.42188 1.25,1.42187 1.1875,4.375 h -6.40625 q 0.0312,1.14062 0.60937,1.78125 0.59375,0.625 1.48438,0.625 0.59375,0 1,-0.32813 0.42187,-0.32812 0.625,-1.0625 z m 0.15625,-2.59375 q -0.0312,-1.10937 -0.57813,-1.6875 -0.54687,-0.57812 -1.32812,-0.57812 -0.84375,0 -1.39063,0.60937 -0.54687,0.60938 -0.53125,1.65625 z m 3.71942,2.90625 2.5625,-0.39062 q 0.17188,0.75 0.67188,1.14062 0.5,0.39063 1.40625,0.39063 0.98437,0 1.48437,-0.375 0.34375,-0.25 0.34375,-0.67188 0,-0.29687 -0.1875,-0.48437 -0.1875,-0.1875 -0.85937,-0.34375 -3.09375,-0.6875 -3.92188,-1.25 -1.14062,-0.78125 -1.14062,-2.17188 0,-1.26562 0.98437,-2.10937 1,-0.85938 3.07813,-0.85938 1.98437,0 2.95312,0.65625 0.96875,0.64063 1.32813,1.90625 l -2.40625,0.4375 q -0.15625,-0.5625 -0.59375,-0.85937 -0.42188,-0.29688 -1.23438,-0.29688 -1,0 -1.4375,0.28125 -0.29687,0.20313 -0.29687,0.51563 0,0.26562 0.25,0.46875 0.34375,0.25 2.39062,0.71875 2.04688,0.45312 2.85938,1.14062 0.79687,0.67188 0.79687,1.89063 0,1.34375 -1.10937,2.29687 -1.10938,0.95313 -3.28125,0.95313 -1.98438,0 -3.14063,-0.79688 -1.14062,-0.8125 -1.5,-2.1875 z"
       fill="#274e13" />
  </g>
</svg>
