<?xml version="1.0" encoding="UTF-8" standalone="no"?>
<svg
   xmlns:dc="http://purl.org/dc/elements/1.1/"
   xmlns:cc="http://creativecommons.org/ns#"
   xmlns:rdf="http://www.w3.org/1999/02/22-rdf-syntax-ns#"
   xmlns:svg="http://www.w3.org/2000/svg"
   xmlns="http://www.w3.org/2000/svg"
   xmlns:sodipodi="http://sodipodi.sourceforge.net/DTD/sodipodi-0.dtd"
   xmlns:inkscape="http://www.inkscape.org/namespaces/inkscape"
   sodipodi:docname="1T6_Illustrations.svg"
   inkscape:version="1.0 (4035a4fb49, 2020-05-01)"
   id="svg8"
   version="1.1"
   viewBox="0 0 210 297"
   height="297mm"
   width="210mm">
  <defs
     id="defs2">
    <marker
       inkscape:isstock="true"
       style="overflow:visible;"
       id="Arrow2Mend"
       refX="0.0"
       refY="0.0"
       orient="auto"
       inkscape:stockid="Arrow2Mend">
      <path
         transform="scale(0.6) rotate(180) translate(0,0)"
         d="M 8.7185878,4.0337352 L -2.2072895,0.016013256 L 8.7185884,-4.0017078 C 6.9730900,-1.6296469 6.9831476,1.6157441 8.7185878,4.0337352 z "
         style="fill-rule:evenodd;stroke-width:0.625;stroke-linejoin:round;stroke:#000000;stroke-opacity:1;fill:#000000;fill-opacity:1"
         id="path2065" />
    </marker>
    <marker
       inkscape:isstock="true"
       style="overflow:visible;"
       id="marker2336"
       refX="0.0"
       refY="0.0"
       orient="auto"
       inkscape:stockid="Arrow1Lend">
      <path
         transform="scale(0.8) rotate(180) translate(12.5,0)"
         style="fill-rule:evenodd;stroke:#000000;stroke-width:1pt;stroke-opacity:1;fill:#000000;fill-opacity:1"
         d="M 0.0,0.0 L 5.0,-5.0 L -12.5,0.0 L 5.0,5.0 L 0.0,0.0 z "
         id="path2334" />
    </marker>
    <marker
       inkscape:isstock="true"
       style="overflow:visible;"
       id="Arrow2Lend"
       refX="0.0"
       refY="0.0"
       orient="auto"
       inkscape:stockid="Arrow2Lend">
      <path
         transform="scale(1.1) rotate(180) translate(1,0)"
         d="M 8.7185878,4.0337352 L -2.2072895,0.016013256 L 8.7185884,-4.0017078 C 6.9730900,-1.6296469 6.9831476,1.6157441 8.7185878,4.0337352 z "
         style="fill-rule:evenodd;stroke-width:0.625;stroke-linejoin:round;stroke:#000000;stroke-opacity:1;fill:#000000;fill-opacity:1"
         id="path2059" />
    </marker>
    <marker
       inkscape:isstock="true"
       style="overflow:visible;"
       id="Arrow1Lend"
       refX="0.0"
       refY="0.0"
       orient="auto"
       inkscape:stockid="Arrow1Lend">
      <path
         transform="scale(0.8) rotate(180) translate(12.5,0)"
         style="fill-rule:evenodd;stroke:#000000;stroke-width:1pt;stroke-opacity:1;fill:#000000;fill-opacity:1"
         d="M 0.0,0.0 L 5.0,-5.0 L -12.5,0.0 L 5.0,5.0 L 0.0,0.0 z "
         id="path2041" />
    </marker>
    <rect
       id="rect1201"
       height="10.583333"
       width="34.77381"
       y="744.99107"
       x="44.60119" />
    <rect
       id="rect1187"
       height="44.901281"
       width="125.08214"
       y="524.91735"
       x="-137.91108" />
  </defs>
  <sodipodi:namedview
     inkscape:snap-global="false"
     inkscape:window-maximized="0"
     inkscape:window-y="195"
     inkscape:window-x="2212"
     inkscape:window-height="810"
     inkscape:window-width="1616"
     showgrid="false"
     inkscape:document-rotation="0"
     inkscape:current-layer="layer3"
     inkscape:document-units="mm"
     inkscape:cy="2402.1187"
     inkscape:cx="775.37161"
     inkscape:zoom="0.5"
     inkscape:pageshadow="2"
     inkscape:pageopacity="0.0"
     borderopacity="1.0"
     bordercolor="#666666"
     pagecolor="#ffffff"
     id="base" />
  <metadata
     id="metadata5">
    <rdf:RDF>
      <cc:Work
         rdf:about="">
        <dc:format>image/svg+xml</dc:format>
        <dc:type
           rdf:resource="http://purl.org/dc/dcmitype/StillImage" />
        <dc:title />
      </cc:Work>
    </rdf:RDF>
  </metadata>
  <g
     style="display:inline"
     id="layer1"
     inkscape:groupmode="layer"
     inkscape:label="Layer 1">
    <g
       transform="matrix(0.08965474,0,0,0.08965474,2.099781,183.04347)"
       id="XMLID_2507_">
      <path
         id="XMLID_1877_"
         d="m 354.375,217.384 25.168,10.163 c 63.535,25.656 105.133,87.315 105.133,155.834 v 42.406 c 0,42.091 -34.122,76.213 -76.213,76.213 H 256 103.537 C 61.446,502 27.324,467.878 27.324,425.787 v -42.406 c 0,-68.52 41.598,-130.178 105.133,-155.834 l 25.168,-10.163 z"
         fill="#8aa8bd" />
      <path
         id="XMLID_1783_"
         d="m 135.232,151.76 c -3.797,6.702 -5.85,13.835 -5.85,21.235 0,38.939 56.693,70.505 126.627,70.505 69.934,0 126.627,-31.566 126.627,-70.505 0,-7.4 -2.053,-14.533 -5.85,-21.235 L 256,134.742 Z"
         fill="#8aa8bd" />
      <path
         id="XMLID_4172_"
         d="M 408,502 H 104 V 339 c 0,-29.271 23.729,-53 53,-53 h 198 c 29.271,0 53,23.729 53,53 z"
         fill="#ff7b79" />
      <path
         id="XMLID_4158_"
         d="m 256,326.569 c -35.6,0 -64.46,28.86 -64.46,64.46 v 12.964 c 0,19.49 15.799,35.289 35.289,35.289 v 8.655 c 0,7.767 6.296,14.063 14.063,14.063 h 30.216 c 7.767,0 14.063,-6.296 14.063,-14.063 v -8.655 c 19.49,0 35.289,-15.799 35.289,-35.289 v -12.964 c 0,-35.6 -28.859,-64.46 -64.46,-64.46 z"
         fill="#e2e9ee" />
      <path
         id="XMLID_1878_"
         d="M 312.9,142.232 V 179.1 c 0,31.425 -25.475,56.9 -56.9,56.9 -31.425,0 -56.9,-25.475 -56.9,-56.9 v -36.868 l 56.9,-7.49 z"
         fill="#e5ae8c" />
      <path
         id="XMLID_1880_"
         d="M 376.769,151.767 313.493,43.058 c -25.656,-44.078 -89.329,-44.078 -114.986,0 l -63.277,108.709 0.24,-0.069 c 78.84,-22.662 162.472,-22.638 241.299,0.069 z"
         fill="#c5d3de" />
      <g
         id="XMLID_67_">
        <path
           id="XMLID_120_"
           d="m 278.75,405.28 c 2.63,0 5.21,-1.061 7.07,-2.931 1.86,-1.859 2.93,-4.43 2.93,-7.069 0,-2.631 -1.07,-5.2 -2.93,-7.07 -1.86,-1.86 -4.44,-2.93 -7.07,-2.93 -2.63,0 -5.21,1.069 -7.07,2.93 -1.86,1.859 -2.93,4.439 -2.93,7.07 0,2.64 1.07,5.21 2.93,7.069 1.86,1.871 4.44,2.931 7.07,2.931 z" />
        <path
           id="XMLID_142_"
           d="m 233.25,385.28 c -2.63,0 -5.21,1.069 -7.07,2.93 -1.86,1.859 -2.93,4.439 -2.93,7.07 0,2.64 1.07,5.21 2.93,7.069 1.86,1.87 4.44,2.931 7.07,2.931 2.63,0 5.21,-1.061 7.07,-2.931 1.86,-1.859 2.93,-4.43 2.93,-7.069 0,-2.631 -1.07,-5.211 -2.93,-7.07 -1.86,-1.86 -4.44,-2.93 -7.07,-2.93 z" />
        <path
           id="XMLID_145_"
           d="m 203.03,338.762 -13.959,-13.96 c -3.904,-3.903 -10.237,-3.904 -14.142,0 -3.905,3.905 -3.906,10.237 -0.001,14.143 l 15.98,15.98 c -5.96,10.702 -9.369,23.01 -9.369,36.103 v 12.964 c 0,10.673 3.714,20.493 9.914,28.242 l -16.525,16.524 c -3.905,3.905 -3.905,10.237 0,14.143 1.953,1.952 4.512,2.929 7.071,2.929 2.559,0 5.119,-0.977 7.071,-2.929 l 18.115,-18.115 c 3.043,1.471 6.27,2.62 9.644,3.382 0.125,13.162 10.872,23.83 24.062,23.83 h 30.216 c 13.191,0 23.937,-10.668 24.062,-23.83 3.373,-0.763 6.6,-1.911 9.644,-3.382 l 18.115,18.115 c 1.953,1.952 4.512,2.929 7.071,2.929 2.559,0 5.119,-0.977 7.071,-2.929 3.905,-3.905 3.905,-10.237 0,-14.143 l -16.525,-16.524 c 6.199,-7.75 9.914,-17.569 9.914,-28.242 v -12.964 c 0,-13.094 -3.409,-25.402 -9.369,-36.103 l 15.98,-15.98 c 3.905,-3.905 3.905,-10.237 0,-14.143 -3.905,-3.904 -10.237,-3.904 -14.142,0 l -13.959,13.96 c -13.51,-13.69 -32.263,-22.194 -52.97,-22.194 -20.707,0 -39.459,8.504 -52.969,22.194 z m 107.43,52.267 v 12.964 c 0,13.944 -11.345,25.289 -25.289,25.289 -5.523,0 -10,4.478 -10,10 v 8.654 c 0,2.24 -1.823,4.064 -4.063,4.064 h -30.216 c -2.241,0 -4.064,-1.823 -4.064,-4.064 v -8.654 c 0,-5.522 -4.477,-10 -10,-10 -13.944,0 -25.289,-11.345 -25.289,-25.289 v -12.964 c 0,-30.03 24.431,-54.461 54.46,-54.461 30.029,0 54.461,24.431 54.461,54.461 z" />
        <path
           id="XMLID_764_"
           d="m 464.225,283.797 c -19.921,-29.528 -47.909,-52.186 -80.938,-65.523 l -9.656,-3.899 c 12.3,-12.309 19.004,-26.583 19.004,-41.38 0,-8.988 -2.525,-17.981 -7.269,-26.354 L 322.135,38.028 C 308.275,14.216 283.552,0 255.999,0 228.447,0 203.724,14.216 189.864,38.028 l -63.277,108.748 c -0.005,0.008 -0.008,-0.008 -0.012,0 -0.014,0.024 -0.03,-0.024 -0.043,0 -4.744,8.373 -7.149,17.231 -7.149,26.219 0,14.795 6.703,29.067 18.999,41.375 l -9.669,3.904 c -33.029,13.337 -61.017,35.994 -80.938,65.523 -19.921,29.528 -30.451,63.964 -30.451,99.584 v 42.406 c 0,47.538 38.675,86.213 86.213,86.213 h 0.463 304 0.463 c 47.538,0 86.213,-38.675 86.213,-86.213 v -42.406 c 0,-35.62 -10.53,-70.056 -30.451,-99.584 z M 207.149,48.089 C 217.387,30.501 235.649,20 255.999,20 c 20.351,0 38.613,10.501 48.851,28.089 l 51.217,87.99 c -32.951,-7.587 -66.516,-11.382 -100.073,-11.382 -33.557,0 -67.119,3.795 -100.062,11.382 z m 1.951,99.235 c 31.177,-3.458 62.623,-3.458 93.8,0 V 179.1 c 0,25.861 -21.039,46.9 -46.9,46.9 -25.861,0 -46.9,-21.039 -46.9,-46.9 z m 265.576,278.463 c 0,33.27 -24.67,60.878 -56.676,65.517 V 339 c 0,-34.738 -28.262,-63 -63,-63 h -54 c -5.523,0 -10,4.478 -10,10 0,5.522 4.477,10 10,10 h 54 c 23.71,0 43,19.29 43,43 V 492 H 114 V 339 c 0,-23.71 19.29,-43 43,-43 h 53.999 c 5.523,0 10,-4.478 10,-10 0,-5.522 -4.477,-10 -10,-10 H 157 c -34.738,0 -63,28.262 -63,63 V 491.304 C 61.994,486.665 37.324,459.058 37.324,425.787 v -42.406 c 0,-64.778 38.811,-122.308 98.877,-146.562 l 20.349,-8.217 c 2.639,1.64 5.4,3.219 8.29,4.727 1.477,0.77 3.058,1.136 4.616,1.136 3.607,0 7.091,-1.958 8.875,-5.378 2.554,-4.896 0.654,-10.936 -4.243,-13.49 -22.056,-11.503 -34.706,-27.031 -34.706,-42.602 0,-4.288 0.947,-8.572 2.795,-12.783 15.493,-4.294 31.159,-7.681 46.922,-10.19 V 179.1 c 0,36.889 30.011,66.9 66.9,66.9 36.889,0 66.9,-30.012 66.9,-66.9 v -29.078 c 15.771,2.51 31.443,5.9 46.943,10.196 1.846,4.208 2.792,8.491 2.792,12.777 0,15.572 -12.652,31.102 -34.713,42.604 -4.897,2.554 -6.797,8.594 -4.243,13.491 1.784,3.42 5.267,5.378 8.875,5.378 1.558,0 3.139,-0.365 4.615,-1.135 2.891,-1.507 5.652,-3.087 8.291,-4.727 l 20.338,8.212 c 60.065,24.254 98.877,81.783 98.877,146.562 v 42.407 z" />
        <path
           id="XMLID_767_"
           d="m 385.366,146.641 c 0.08,0.127 -0.074,-0.131 0,0 z" />
        <path
           id="XMLID_768_"
           d="m 256,296 c 2.63,0 5.21,-1.07 7.07,-2.931 1.86,-1.859 2.93,-4.439 2.93,-7.069 0,-2.63 -1.07,-5.21 -2.93,-7.07 -1.86,-1.86 -4.44,-2.93 -7.07,-2.93 -2.63,0 -5.21,1.069 -7.07,2.93 -1.86,1.86 -2.93,4.44 -2.93,7.07 0,2.63 1.07,5.21 2.93,7.069 1.86,1.861 4.44,2.931 7.07,2.931 z" />
      </g>
    </g>
    <g
       transform="matrix(0.07513312,0,0,0.07513312,9.3614601,11.749191)"
       id="g1165">
      <g
         id="g1108">
        <g
           id="g1106">
          <path
             d="m 437.333,192 h -32 V 149.333 C 405.333,66.99 338.344,0 256,0 173.656,0 106.667,66.99 106.667,149.333 V 192 h -32 C 68.771,192 64,196.771 64,202.667 V 469.334 C 64,492.865 83.135,512 106.667,512 H 405.334 C 428.865,512 448,492.865 448,469.333 V 202.667 C 448,196.771 443.229,192 437.333,192 Z M 287.938,414.823 c 0.333,3.01 -0.635,6.031 -2.656,8.292 -2.021,2.26 -4.917,3.552 -7.948,3.552 h -42.667 c -3.031,0 -5.927,-1.292 -7.948,-3.552 -2.021,-2.26 -2.99,-5.281 -2.656,-8.292 l 6.729,-60.51 C 219.865,346.365 213.334,333.792 213.334,320 c 0,-23.531 19.135,-42.667 42.667,-42.667 23.532,0 42.667,19.135 42.667,42.667 0,13.792 -6.531,26.365 -17.458,34.313 z M 341.333,192 H 170.667 V 149.333 C 170.667,102.281 208.948,64 256,64 c 47.052,0 85.333,38.281 85.333,85.333 V 192 Z"
             id="path1104" />
        </g>
      </g>
      <g
         id="g1110" />
      <g
         id="g1112" />
      <g
         id="g1114" />
      <g
         id="g1116" />
      <g
         id="g1118" />
      <g
         id="g1120" />
      <g
         id="g1122" />
      <g
         id="g1124" />
      <g
         id="g1126" />
      <g
         id="g1128" />
      <g
         id="g1130" />
      <g
         id="g1132" />
      <g
         id="g1134" />
      <g
         id="g1136" />
      <g
         id="g1138" />
    </g>
    <g
       transform="matrix(0.09622439,0,0,0.09622439,8.4300024,105.85068)"
       id="g1171">
      <path
         d="M 509.586,63.642 441.245,5.029 C 435.024,-0.307 425.647,0.406 420.302,6.622 L 216.079,244.107 c -1.676,1.949 -4.322,2.811 -6.805,2.143 -17.179,-4.624 -35.708,-2.282 -51.261,6.694 -2.511,1.449 -5.675,-0.252 -5.894,-3.14 l -0.695,-9.154 c -0.738,-9.73 -9.235,-17.018 -18.979,-16.278 -9.743,0.741 -17.044,9.231 -16.305,18.961 l 0.695,9.159 c 0.22,2.901 -2.666,5.039 -5.38,3.982 -25.885,-10.083 -56.413,-3.398 -75.549,18.854 -19.136,22.252 -21.14,53.4 -7.25,77.431 1.456,2.52 -0.224,5.692 -3.129,5.913 l -9.171,0.698 c -9.743,0.741 -17.043,9.23 -16.305,18.961 0.738,9.731 9.235,17.019 18.979,16.277 l 9.171,-0.698 c 2.905,-0.221 5.045,2.661 3.985,5.372 -10.105,25.856 -3.424,56.344 18.849,75.446 22.273,19.102 53.459,21.093 77.526,7.211 2.523,-1.455 5.699,0.222 5.919,3.123 l 0.695,9.158 c 0.738,9.731 9.235,17.019 18.979,16.278 9.743,-0.741 17.044,-9.23 16.305,-18.961 l -0.695,-9.159 c -0.22,-2.901 2.666,-5.039 5.38,-3.982 25.885,10.082 56.414,3.398 75.549,-18.854 19.135,-22.251 21.14,-53.4 7.251,-77.431 -1.456,-2.52 0.224,-5.692 3.129,-5.913 l 9.171,-0.698 c 9.743,-0.741 17.044,-9.23 16.305,-18.961 -0.738,-9.73 -9.235,-17.018 -18.978,-16.277 l -9.167,0.697 c -2.892,0.22 -5.053,-2.646 -3.998,-5.344 6.535,-16.71 6.055,-35.356 -1.118,-51.617 -1.037,-2.35 -0.583,-5.093 1.093,-7.042 L 403.115,103.997 c 2.494,-2.901 6.87,-3.233 9.773,-0.743 l 13.518,11.594 c 2.903,2.49 7.279,2.157 9.773,-0.743 l 11.614,-13.506 c 2.494,-2.901 2.163,-7.271 -0.741,-9.761 L 433.534,79.244 c -2.903,-2.49 -3.235,-6.86 -0.741,-9.761 l 10.323,-12.005 c 2.494,-2.901 6.87,-3.234 9.773,-0.743 l 36.048,30.917 c 2.903,2.49 7.279,2.157 9.773,-0.743 l 11.614,-13.506 c 2.497,-2.901 2.165,-7.271 -0.738,-9.761 z M 58.437,294.651 c 13.519,-15.721 37.32,-17.531 53.056,-4.035 15.736,13.496 17.539,37.266 4.02,52.987 -13.519,15.721 -37.32,17.532 -53.056,4.036 -15.736,-13.497 -17.539,-37.267 -4.02,-52.988 z m 65.01,153.532 c -13.519,15.721 -37.32,17.532 -53.056,4.036 -15.736,-13.496 -17.539,-37.266 -4.02,-52.987 13.519,-15.721 37.32,-17.532 53.056,-4.036 15.736,13.496 17.539,37.266 4.02,52.987 z m 39.706,-161.497 c 13.519,-15.721 37.32,-17.532 53.056,-4.036 15.736,13.496 17.539,37.267 4.02,52.987 -13.519,15.721 -37.32,17.532 -53.056,4.036 -15.736,-13.495 -17.539,-37.266 -4.02,-52.987 z m 65.01,153.532 c -13.519,15.721 -37.32,17.531 -53.056,4.035 -15.736,-13.496 -17.539,-37.266 -4.02,-52.987 13.519,-15.721 37.32,-17.532 53.056,-4.036 15.736,13.497 17.539,37.267 4.02,52.988 z"
         fill="#b0aab3"
         id="path1167" />
      <path
         d="m 403.114,103.997 c 2.494,-2.901 6.87,-3.233 9.773,-0.743 l 13.518,11.594 c 2.903,2.49 7.279,2.157 9.773,-0.743 l 11.614,-13.506 c 2.494,-2.901 2.163,-7.271 -0.741,-9.761 L 433.533,79.244 c -2.903,-2.49 -3.235,-6.86 -0.741,-9.761 l 10.323,-12.005 c 2.494,-2.901 6.87,-3.234 9.773,-0.743 l 36.048,30.917 c 2.903,2.49 7.279,2.157 9.773,-0.743 l 11.614,-13.506 c 2.494,-2.9 2.163,-7.271 -0.741,-9.761 -11.217,-9.564 -27.395,-23.551 -38.613,-33.117 -3.597,-3.049 -18.691,6.148 -22.121,8.09 -12.509,7.081 -23.618,17.49 -33.853,27.47 -42.003,40.956 -82.39,83.519 -123.009,125.836 -18.243,19.005 -36.948,37.611 -54.997,56.791 -3.004,3.192 -24.799,30.631 -28.717,28.712 2.796,1.369 5.464,3.109 7.934,5.227 15.736,13.496 17.539,37.267 4.02,52.987 -13.519,15.721 -37.32,17.532 -53.056,4.036 -0.494,-0.424 -0.975,-0.858 -1.441,-1.302 -13.733,21.599 -26.487,43.819 -38.231,66.561 7.734,13.427 6.616,30.843 -4.053,43.25 -5.707,6.636 -13.248,10.784 -21.239,12.357 -4.419,10.448 -9.019,21.389 -12.688,30.188 13.462,1.06 27.124,-1.916 39.041,-8.79 2.523,-1.455 5.699,0.222 5.919,3.123 l 0.695,9.158 c 0.738,9.731 9.235,17.019 18.979,16.278 9.743,-0.741 17.044,-9.23 16.305,-18.961 l -0.695,-9.159 c -0.22,-2.901 2.666,-5.039 5.38,-3.982 25.885,10.082 56.414,3.398 75.549,-18.854 19.135,-22.251 21.14,-53.4 7.251,-77.431 -1.456,-2.52 0.224,-5.692 3.129,-5.913 l 9.171,-0.698 c 9.743,-0.741 17.044,-9.23 16.305,-18.961 -0.738,-9.73 -9.235,-17.018 -18.978,-16.277 l -9.167,0.697 c -2.892,0.22 -5.053,-2.646 -3.998,-5.344 6.535,-16.71 6.055,-35.356 -1.118,-51.617 -1.037,-2.35 -0.583,-5.093 1.093,-7.042 z M 228.163,440.218 c -13.519,15.721 -37.32,17.531 -53.056,4.035 -15.736,-13.496 -17.539,-37.266 -4.02,-52.987 13.519,-15.721 37.32,-17.532 53.056,-4.036 15.736,13.497 17.539,37.267 4.02,52.988 z"
         fill="#a199a4"
         id="path1169" />
    </g>
    <text
       style="font-size:12.7px;line-height:1.25;font-family:sans-serif;word-spacing:0px;white-space:pre;shape-inside:url(#rect1187);"
       id="text1185"
       xml:space="preserve" />
    <text
       style="font-size:10.5833px;line-height:1.25;font-family:sans-serif;word-spacing:0px;white-space:pre;shape-inside:url(#rect1201);"
       id="text1199"
       xml:space="preserve"><tspan
         style="visibility:hidden"
         x="44.601562"
         y="764.93796"><tspan
           dx="0 6.2011523 4.3614774 2.9352112 6.2631645 6.4905376 4.1547718">Private</tspan></tspan></text>
    <path
       id="path2036"
       d="m -182.54949,642.52135 h 23.80418"
       style="fill:none;stroke:#000000;stroke-width:1.8;stroke-linecap:butt;stroke-linejoin:miter;stroke-miterlimit:4;stroke-dasharray:5.4, 1.8;stroke-dashoffset:0;stroke-opacity:1;marker-end:url(#Arrow2Mend)" />
    <g
       id="g1129"
       transform="matrix(0.06838346,0,0,0.06838346,-191.91682,649.64778)"
       style="fill:#000000;fill-opacity:1">
      <g
         id="g1097"
         style="fill:#000000;fill-opacity:1">
        <g
           id="g1095"
           style="fill:#000000;fill-opacity:1">
          <path
             id="path1093"
             d="m 0,55.781 v 347.105 h 135.808 v 53.333 H 376.193 V 402.886 H 512 V 55.781 Z m 456.258,30 L 256,242.019 224.9,217.755 c 8.751,-6.338 19.493,-10.088 31.1,-10.088 v -30 c -21.241,0 -40.638,8.016 -55.351,21.168 L 55.742,85.781 Z M 309.153,260.82 v 51.559 H 202.847 V 260.82 c 0,-6.83 1.309,-13.356 3.667,-19.36 L 256,280.069 305.487,241.46 c 2.395,6.128 3.666,12.693 3.666,19.36 z M 135.808,372.886 H 30 V 103.747 l 152.232,118.769 c -5.982,11.473 -9.385,24.495 -9.385,38.304 v 51.559 h -37.039 z m 210.384,53.333 H 165.808 v -83.84 H 241 v 41.266 h 30 v -41.266 h 75.192 z M 482,372.886 H 376.192 V 312.379 H 339.153 V 260.82 c 0,-13.404 -3.261,-26.558 -9.363,-38.321 L 482,103.747 Z"
             style="fill:#000000;fill-opacity:1" />
        </g>
      </g>
      <g
         id="g1099"
         style="fill:#000000;fill-opacity:1" />
      <g
         id="g1101"
         style="fill:#000000;fill-opacity:1" />
      <g
         id="g1103"
         style="fill:#000000;fill-opacity:1" />
      <g
         id="g1105"
         style="fill:#000000;fill-opacity:1" />
      <g
         id="g1107"
         style="fill:#000000;fill-opacity:1" />
      <g
         id="g1109"
         style="fill:#000000;fill-opacity:1" />
      <g
         id="g1111"
         style="fill:#000000;fill-opacity:1" />
      <g
         id="g1113"
         style="fill:#000000;fill-opacity:1" />
      <g
         id="g1115"
         style="fill:#000000;fill-opacity:1" />
      <g
         id="g1117"
         style="fill:#000000;fill-opacity:1" />
      <g
         id="g1119"
         style="fill:#000000;fill-opacity:1" />
      <g
         id="g1121"
         style="fill:#000000;fill-opacity:1" />
      <g
         id="g1123"
         style="fill:#000000;fill-opacity:1" />
      <g
         id="g1125"
         style="fill:#000000;fill-opacity:1" />
      <g
         id="g1127"
         style="fill:#000000;fill-opacity:1" />
    </g>
  </g>
  <g
     style="display:inline"
     inkscape:label="threat"
     id="layer5"
     inkscape:groupmode="layer">
    <text
       xml:space="preserve"
       style="font-style:normal;font-variant:normal;font-weight:normal;font-stretch:normal;font-size:14.1111px;line-height:1.25;font-family:'Bauhaus 93';-inkscape-font-specification:'Bauhaus 93, ';word-spacing:0px;stroke-width:0.264583"
       x="182.27451"
       y="499.48001"
       id="text1543"><tspan
         sodipodi:role="line"
         id="tspan1541"
         x="182.27451"
         y="499.48001"
         style="font-style:normal;font-variant:normal;font-weight:normal;font-stretch:normal;font-size:14.1111px;font-family:'Berlin Sans FB Demi';-inkscape-font-specification:'Berlin Sans FB Demi';stroke-width:0.264583">Snooper</tspan></text>
    <g
       transform="translate(-292.91211,465.19106)"
       id="g1719">
      <path
         id="path1545"
         fill="#a2abb8"
         d="m 473.93959,72.367987 c -0.0153,-0.01688 -0.0285,-0.03493 -0.0432,-0.0522 -0.48693,0.500202 -0.90439,0.946787 -1.24567,1.322099 -0.66904,0.735803 -0.66904,1.860837 0,2.596639 1.0419,1.145914 2.77952,2.94437 5.10654,4.961931 5.04583,4.374732 11.72747,9.850397 22.36497,9.850397 10.63749,0 17.31913,-5.475665 22.36496,-9.850397 2.32702,-2.017432 4.06464,-3.816017 5.10654,-4.961931 0.65371,-0.718918 0.66685,-1.80838 0.0432,-2.544441 -0.9995,1.026696 -52.65544,-0.176314 -53.69735,-1.322098 z"
         style="stroke-width:0.128885" />
      <path
         id="path1547"
         fill="#c8d2dc"
         d="m 522.48722,68.675957 c -5.04583,-4.374732 -11.72747,-9.850397 -22.36496,-9.850397 -10.6375,0 -17.31914,5.475665 -22.36497,9.850397 -1.56466,1.356511 -2.86137,2.613007 -3.86087,3.639702 0.0147,0.01727 0.0278,0.03531 0.0432,0.0522 1.04191,1.145913 2.77953,2.94437 5.10654,4.96193 5.04584,4.374732 11.72748,9.850397 22.36497,9.850397 10.6375,0 17.31914,-5.475665 22.36497,-9.850397 1.56466,-1.356511 2.86137,-2.613007 3.86087,-3.639703 -0.0147,-0.01727 -0.0278,-0.03531 -0.0432,-0.0522 -1.0419,-1.145913 -2.77965,-2.94437 -5.10654,-4.96193 z"
         style="stroke-width:0.128885" />
      <path
         id="path1549"
         fill="#da0b62"
         d="m 500.12226,62.6921 c -6.7622,0 -12.24405,5.481851 -12.24405,12.244042 0,6.762192 5.48185,12.244043 12.24405,12.244043 6.76219,0 12.24404,-5.481851 12.24404,-12.244043 0,-6.762191 -5.48185,-12.244042 -12.24404,-12.244042 z"
         style="fill:#d7d7d7;fill-opacity:1;stroke-width:0.128885" />
      <path
         id="path1551"
         fill="#f9c8dc"
         d="m 505.26269,77.749695 c -1.4234,2.707995 -5.14043,9.430619 -5.14043,9.430619 0,0 2.5639,2.029031 6.2192,0.276071 3.65529,-1.753089 4.38439,-6.398092 4.38439,-6.398092 0,0 1.70154,-7.298223 -5.48713,-9.0758 l -1.3e-4,1.29e-4 c 0.16175,0.91972 0.2548,1.904657 0.2548,2.953649 1.3e-4,0.995763 -0.0839,1.934043 -0.2307,2.813424"
         style="stroke-width:0.128885" />
      <path
         id="path1553"
         fill="#efa5c4"
         d="m 510.72585,68.814121 c 0,0 -5.46973,-5.12265 -10.60347,0.214077 l 1.3e-4,1.29e-4 c 0.87732,0.319763 1.77694,0.731679 2.68532,1.25611 6.89958,3.983438 7.91802,10.773598 7.91802,10.773598 0,0 3.03923,-1.205974 3.34869,-5.248055 0.30932,-4.041823 -3.34869,-6.995859 -3.34869,-6.995859 z"
         style="stroke-width:0.128885" />
      <path
         id="path1555"
         fill="#f9c8dc"
         d="m 500.12226,62.6921 c 0,0 -7.17115,2.175573 -5.11634,9.289877 h 1.3e-4 c 0.71557,-0.599829 1.52213,-1.172979 2.43051,-1.69754 6.89958,-3.983438 13.28929,-1.470445 13.28929,-1.470445 0,0 0.47533,-3.235005 -2.87051,-5.523996 -3.34585,-2.288992 -7.73308,-0.597896 -7.73308,-0.597896 z"
         style="stroke-width:0.128885" />
      <path
         id="path1557"
         fill="#efa5c4"
         d="m 489.51853,68.814121 c 0,0 -1.70141,7.298223 5.48713,9.0758 l 1.3e-4,-1.29e-4 c -0.16175,-0.919721 -0.2548,-1.904657 -0.2548,-2.95365 0,-7.966876 5.37127,-12.244042 5.37127,-12.244042 0,0 -2.56391,-2.029032 -6.2192,-0.275942 -3.6553,1.753089 -4.38453,6.397963 -4.38453,6.397963 z"
         style="stroke-width:0.128885" />
      <path
         id="path1559"
         fill="#f9c8dc"
         d="m 489.51853,81.058164 c 0,0 5.46973,5.122649 10.60347,-0.214078 l -1.3e-4,-1.29e-4 c -0.87732,-0.319762 -1.77693,-0.731678 -2.68531,-1.256109 -6.89959,-3.983439 -7.91803,-10.773598 -7.91803,-10.773598 0,0 -3.03923,1.205974 -3.34868,5.248054 -0.30933,4.041952 3.34868,6.99586 3.34868,6.99586 z"
         style="stroke-width:0.128885" />
      <path
         id="path1561"
         fill="#efa5c4"
         d="m 500.12226,87.180185 c 0,0 4.04968,-3.224823 5.11633,-9.289877 h -1.3e-4 c -0.71557,0.599829 -1.52213,1.172979 -2.43051,1.69754 -6.89958,3.983438 -13.28929,1.470445 -13.28929,1.470445 0,0 -0.47533,3.235005 2.87052,5.523996 3.34584,2.288863 7.73308,0.597896 7.73308,0.597896 z"
         style="stroke-width:0.128885" />
      <path
         id="path1563"
         fill="#de5791"
         d="m 510.72585,81.058164 c 0,0 3.03923,-1.205974 3.34869,-5.248055 0.30945,-4.04208 -3.34869,-6.995988 -3.34869,-6.995988 0,0 -3.61817,-3.033945 -5.80689,-0.760033 4.41971,2.877092 6.57402,8.029128 5.80689,13.004076 z"
         style="stroke-width:0.128885" />
      <path
         id="path1565"
         fill="#e592b8"
         d="m 501.80948,62.256341 c -1.01586,0.177989 -5.47141,1.111243 -4.43659,3.669088 2.35163,-0.06895 4.75094,0.492984 6.93799,1.755667 0.20724,0.119605 0.40959,0.244365 0.60782,0.373379 3.42524,-0.17683 5.80715,0.759775 5.80715,0.759775 0,0 -0.97849,-6.557909 -8.91637,-6.557909 z"
         style="stroke-width:0.128885" />
      <path
         id="path1567"
         fill="#de5791"
         d="m 489.51853,68.814121 c 2.24336,-1.80155 5.014,-2.805046 7.85436,-2.888176 1.36373,-2.12969 2.74924,-3.233845 2.74924,-3.233845 0,0 -2.7553,-1.551772 -6.2192,-0.275942 -3.80403,1.400976 -4.3844,6.397834 -4.3844,6.397963 z"
         style="stroke-width:0.128885" />
      <path
         id="path1569"
         fill="#de5791"
         d="m 512.12915,99.418815 c -0.62406,0.320665 -1.05183,0.969345 -1.05183,1.719195 0,1.06768 0.86559,1.93327 1.93327,1.93327 0.74985,0 1.39853,-0.42777 1.7192,-1.05183 -0.26435,0.13597 -2.73648,-2.336035 -2.60064,-2.600635 z"
         style="stroke-width:0.128885" />
      <path
         id="path1571"
         fill="#e592b8"
         d="m 513.01072,99.204866 c -0.31783,0 -0.61697,0.0781 -0.88144,0.214078 -0.13597,0.264471 -0.21408,0.563612 -0.21408,0.881446 0,1.06768 0.86559,1.93327 1.93327,1.93327 0.31783,0 0.61697,-0.0781 0.88144,-0.21408 0.13598,-0.26447 0.21408,-0.56361 0.21408,-0.88144 0,-1.06781 -0.86559,-1.933274 -1.93327,-1.933274 z"
         style="stroke-width:0.128885" />
      <path
         id="path1573"
         fill="#de5791"
         d="m 499.24068,103.31152 c -0.62405,0.32066 -1.05182,0.96934 -1.05182,1.71919 0,1.06768 0.86559,1.93327 1.93327,1.93327 0.74985,0 1.39852,-0.42777 1.71919,-1.05183 -0.26434,0.13598 -2.73648,-2.33616 -2.60064,-2.60063 z"
         style="stroke-width:0.128885" />
      <path
         id="path1575"
         fill="#e592b8"
         d="m 500.12226,103.09744 c -0.31783,0 -0.61698,0.0781 -0.88145,0.21408 -0.13597,0.26447 -0.21407,0.56361 -0.21407,0.88144 0,1.06768 0.86559,1.93327 1.93327,1.93327 0.31783,0 0.61697,-0.0781 0.88144,-0.21408 0.13597,-0.26447 0.21408,-0.56361 0.21408,-0.88144 0,-1.06768 -0.86559,-1.93327 -1.93327,-1.93327 z"
         style="stroke-width:0.128885" />
      <path
         id="path1577"
         fill="#de5791"
         d="m 486.35222,99.418815 c -0.62406,0.320665 -1.05183,0.969345 -1.05183,1.719195 0,1.06768 0.86559,1.93327 1.93327,1.93327 0.74985,0 1.39853,-0.42777 1.71919,-1.05183 -0.26434,0.13597 -2.73648,-2.336035 -2.60063,-2.600635 z"
         style="stroke-width:0.128885" />
      <path
         id="path1579"
         fill="#e592b8"
         d="m 487.23379,99.204866 c -0.31783,0 -0.61697,0.0781 -0.88144,0.214078 -0.13598,0.264471 -0.21408,0.563612 -0.21408,0.881446 0,1.06768 0.86559,1.93327 1.93327,1.93327 0.31783,0 0.61697,-0.0781 0.88144,-0.21408 0.13598,-0.26447 0.21408,-0.56361 0.21408,-0.88144 0,-1.06781 -0.86559,-1.933274 -1.93327,-1.933274 z"
         style="stroke-width:0.128885" />
      <path
         id="path1581"
         fill="#de5791"
         d="m 486.35222,47.015085 c -0.62406,0.320665 -1.05183,0.969342 -1.05183,1.719193 0,1.06768 0.86559,1.93327 1.93327,1.93327 0.74985,0 1.39853,-0.427769 1.71919,-1.051828 -0.26434,0.135973 -2.73648,-2.336164 -2.60063,-2.600635 z"
         style="stroke-width:0.128885" />
      <path
         id="path1583"
         fill="#e592b8"
         d="m 487.23379,46.801008 c -0.31783,0 -0.61697,0.0781 -0.88144,0.214077 -0.13598,0.264471 -0.21408,0.563613 -0.21408,0.881442 0,1.067681 0.86559,1.93327 1.93327,1.93327 0.31783,0 0.61697,-0.0781 0.88144,-0.214077 0.13598,-0.264471 0.21408,-0.563613 0.21408,-0.881442 0,-1.067681 -0.86559,-1.93327 -1.93327,-1.93327 z"
         style="stroke-width:0.128885" />
      <path
         id="path1585"
         fill="#de5791"
         d="m 499.24068,43.148545 c -0.62405,0.320665 -1.05182,0.969342 -1.05182,1.719193 0,1.06768 0.86559,1.93327 1.93327,1.93327 0.74985,0 1.39852,-0.427768 1.71919,-1.051828 -0.26434,0.135973 -2.73648,-2.336163 -2.60064,-2.600635 z"
         style="stroke-width:0.128885" />
      <path
         id="path1587"
         fill="#e592b8"
         d="m 500.12226,42.934468 c -0.31783,0 -0.61698,0.0781 -0.88145,0.214077 -0.13597,0.264472 -0.21407,0.563613 -0.21407,0.881443 0,1.06768 0.86559,1.933269 1.93327,1.933269 0.31783,0 0.61697,-0.0781 0.88144,-0.214077 0.13597,-0.264471 0.21408,-0.563613 0.21408,-0.881442 0,-1.067681 -0.86559,-1.93327 -1.93327,-1.93327 z"
         style="stroke-width:0.128885" />
      <path
         id="path1589"
         fill="#de5791"
         d="m 512.12915,47.015085 c -0.62406,0.320665 -1.05183,0.969342 -1.05183,1.719193 0,1.06768 0.86559,1.93327 1.93327,1.93327 0.74985,0 1.39853,-0.427769 1.7192,-1.051828 -0.26435,0.135973 -2.73648,-2.336164 -2.60064,-2.600635 z"
         style="stroke-width:0.128885" />
      <path
         id="path1591"
         fill="#e592b8"
         d="m 513.01072,46.801008 c -0.31783,0 -0.61697,0.0781 -0.88144,0.214077 -0.13597,0.264471 -0.21408,0.563613 -0.21408,0.881442 0,1.067681 0.86559,1.93327 1.93327,1.93327 0.31783,0 0.61697,-0.0781 0.88144,-0.214077 0.13598,-0.264471 0.21408,-0.563613 0.21408,-0.881442 0,-1.067681 -0.86559,-1.93327 -1.93327,-1.93327 z"
         style="stroke-width:0.128885" />
      <path
         id="path1593"
         fill="#e9edf1"
         d="m 516.23284,74.936142 c 0,8.897682 -7.2129,16.110583 -16.11058,16.110583 -8.89769,0 -16.11059,-7.212901 -16.11059,-16.110583 0,-8.897681 7.2129,-16.110582 16.11059,-16.110582 8.89768,0 16.11058,7.21303 16.11058,16.110582 z M 500.12226,62.6921 c -6.7622,0 -12.24405,5.481851 -12.24405,12.244042 0,6.762192 5.48185,12.244043 12.24405,12.244043 6.76219,0 12.24404,-5.481851 12.24404,-12.244043 0,-6.762191 -5.48185,-12.244042 -12.24404,-12.244042 z"
         style="stroke-width:0.128885" />
      <g
         id="g1599"
         transform="matrix(0.12888466,0,0,0.12888466,467.1408,41.967833)">
        <path
           d="m 255.899,511.797 c -12.406,0 -22.5,-10.093 -22.5,-22.5 0,-9.778 6.27,-18.12 15,-21.215 v -79.899 c -16.182,-0.496 -31.144,-2.582 -45,-5.829 v 28.092 c 0,4.142 -3.357,7.5 -7.5,7.5 h -32.5 v 19.934 c 8.73,3.095 15,11.437 15,21.215 0,12.407 -10.094,22.5 -22.5,22.5 -12.406,0 -22.5,-10.093 -22.5,-22.5 0,-9.778 6.27,-18.12 15,-21.215 v -27.434 c 0,-4.142 3.357,-7.5 7.5,-7.5 h 32.5 v -24.672 c -36.894,-11.454 -65.257,-30.911 -87.578,-48.664 -3.241,-2.578 -3.779,-7.296 -1.201,-10.538 2.579,-3.242 7.295,-3.779 10.539,-1.201 15.546,12.364 34.176,25.604 56.781,36.042 -26.729,-24.258 -43.541,-59.261 -43.541,-98.115 0,-38.827 16.788,-73.808 43.485,-98.064 -34.104,15.717 -59.783,37.978 -79.6,55.159 -17.737,15.377 -30.989,29.085 -38.984,37.877 -2.606,2.866 -2.606,7.189 0,10.056 7.995,8.792 21.248,22.5 38.984,37.876 3.13,2.713 3.467,7.45 0.754,10.58 -2.714,3.131 -7.451,3.466 -10.58,0.754 -18.292,-15.859 -31.988,-30.027 -40.256,-39.119 -7.838,-8.62 -7.838,-21.62 0,-30.239 8.268,-9.093 21.963,-23.26 40.256,-39.12 20.827,-18.057 43.535,-36.938 71.908,-51.909 10.149,-5.355 20.41,-9.879 30.841,-13.585 l -29.612,-29.612 c -1.406,-1.406 -2.196,-3.314 -2.196,-5.303 V 73.715 c -8.73,-3.095 -15,-11.437 -15,-21.215 0,-12.407 10.094,-22.5 22.5,-22.5 12.406,0 22.5,10.093 22.5,22.5 0,9.778 -6.27,18.12 -15,21.215 v 24.328 l 32.97,32.969 c 16.781,-4.541 34.053,-7.057 52.03,-7.602 V 43.715 c -8.73,-3.095 -15,-11.437 -15,-21.215 0,-12.407 10.094,-22.5 22.5,-22.5 12.406,0 22.5,10.093 22.5,22.5 0,9.778 -6.27,18.12 -15,21.215 v 79.695 c 15.477,0.469 30.433,2.399 45,5.824 v -28.085 c 0,-4.142 3.357,-7.5 7.5,-7.5 h 32.5 V 73.715 c -8.73,-3.095 -15,-11.437 -15,-21.215 0,-12.407 10.094,-22.5 22.5,-22.5 12.406,0 22.5,10.093 22.5,22.5 0,9.778 -6.27,18.12 -15,21.215 v 27.434 c 0,4.142 -3.357,7.5 -7.5,7.5 h -32.5 v 24.683 c 13.265,4.137 26.237,9.566 39.032,16.317 28.373,14.971 51.081,33.853 71.908,51.91 18.292,15.859 31.988,30.026 40.256,39.119 7.838,8.62 7.838,21.62 0,30.239 -8.268,9.093 -21.963,23.26 -40.256,39.12 -20.827,18.057 -43.535,36.939 -71.908,51.909 -10.149,5.355 -20.41,9.879 -30.841,13.585 l 29.612,29.612 c 1.406,1.406 2.196,3.314 2.196,5.303 v 27.434 c 8.73,3.095 15,11.437 15,21.215 0,12.407 -10.094,22.5 -22.5,22.5 -12.406,0 -22.5,-10.093 -22.5,-22.5 0,-9.778 6.27,-18.12 15,-21.215 v -24.328 l -32.97,-32.969 c -16.781,4.541 -34.053,7.057 -52.03,7.602 v 79.898 c 8.73,3.095 15,11.437 15,21.215 10e-4,12.406 -10.093,22.499 -22.499,22.499 z m 0,-30 c -4.136,0 -7.5,3.364 -7.5,7.5 0,4.135 3.364,7.5 7.5,7.5 4.136,0 7.5,-3.365 7.5,-7.5 0,-4.135 -3.365,-7.5 -7.5,-7.5 z m 100,-30.202 c -4.136,0 -7.5,3.364 -7.5,7.5 0,4.136 3.364,7.5 7.5,7.5 4.136,0 7.5,-3.364 7.5,-7.5 0,-4.136 -3.365,-7.5 -7.5,-7.5 z m -200,0 c -4.136,0 -7.5,3.364 -7.5,7.5 0,4.136 3.364,7.5 7.5,7.5 4.136,0 7.5,-3.364 7.5,-7.5 0,-4.136 -3.365,-7.5 -7.5,-7.5 z m 100,-78.298 c 64.79,0 117.5,-52.71 117.5,-117.5 0,-24.719 -7.586,-48.366 -21.939,-68.385 -2.413,-3.366 -1.641,-8.052 1.726,-10.465 3.364,-2.413 8.051,-1.642 10.466,1.725 16.19,22.583 24.748,49.252 24.748,77.125 0,38.827 -16.788,73.808 -43.485,98.064 34.104,-15.717 59.783,-37.978 79.6,-55.159 17.737,-15.377 30.989,-29.085 38.984,-37.877 2.606,-2.866 2.606,-7.189 0,-10.056 -7.995,-8.792 -21.248,-22.5 -38.984,-37.876 -34.262,-29.705 -86.039,-74.595 -168.614,-74.595 -64.79,0 -117.5,52.71 -117.5,117.5 0,64.79 52.708,117.499 117.498,117.499 z M 355.899,45 c -4.136,0 -7.5,3.365 -7.5,7.5 0,4.136 3.364,7.5 7.5,7.5 4.136,0 7.5,-3.364 7.5,-7.5 0,-4.135 -3.365,-7.5 -7.5,-7.5 z m -200,0 c -4.136,0 -7.5,3.365 -7.5,7.5 0,4.136 3.364,7.5 7.5,7.5 4.136,0 7.5,-3.364 7.5,-7.5 0,-4.135 -3.365,-7.5 -7.5,-7.5 z m 100,-30 c -4.136,0 -7.5,3.365 -7.5,7.5 0,4.136 3.364,7.5 7.5,7.5 4.136,0 7.5,-3.364 7.5,-7.5 0,-4.135 -3.365,-7.5 -7.5,-7.5 z m -102.5,240.797 c 0,-56.508 45.965,-102.483 102.469,-102.5 h 0.057 c -0.019,0 -0.077,0 -0.057,0 56.504,0.017 102.469,45.992 102.469,102.5 0,56.508 -45.965,102.483 -102.469,102.5 h 0.057 c -0.019,0 -0.036,0 -0.057,0 -56.504,-0.016 -102.469,-45.991 -102.469,-102.5 z m 38.47,59.578 c 15.382,16.521 37.058,27.101 61.174,27.877 8.806,-8.261 22.249,-23.716 30.257,-46.648 -35.163,21.574 -68.658,22.332 -91.431,18.771 z m 113.07,-62.905 c 1.104,41.292 -15.025,70.696 -29.512,88.631 23.029,-5.27 42.625,-19.65 54.774,-39.134 -2.755,-11.76 -9.42,-31.112 -25.262,-49.497 z m -126.188,44.587 c 11.57,3.497 31.698,7.409 55.576,2.862 -21.563,-11.769 -39.122,-28.169 -51.417,-48.18 -2.168,-3.529 -1.064,-8.148 2.465,-10.316 3.527,-2.168 8.148,-1.064 10.316,2.464 3.3,5.372 7.035,10.455 11.172,15.222 -1.088,-41.295 15.051,-70.702 29.513,-88.616 -38.882,8.894 -67.978,43.765 -67.978,85.305 0.001,14.909 3.75,28.96 10.353,41.259 z m 44.432,-22.396 c 9.658,7.631 20.66,14.002 32.784,18.936 10.611,-4.222 21.621,-10.331 32.701,-18.957 1.648,-11.301 1.864,-23.891 -0.066,-37.8 -8.962,-7.078 -19.759,-13.56 -32.77,-18.843 -10.608,4.222 -21.618,10.33 -32.695,18.952 -1.647,11.275 -1.867,23.841 0.046,37.712 z m 54.353,-62.997 c 36.31,19.689 53.711,48.359 62.001,69.871 2.509,-8.14 3.861,-16.785 3.861,-25.737 0,-14.91 -3.749,-28.96 -10.353,-41.259 -11.56,-3.495 -31.657,-7.405 -55.509,-2.875 z m -18.781,-43.321 c -8.773,8.233 -22.229,23.688 -30.247,46.642 35.16,-21.568 68.649,-22.325 91.42,-18.765 -15.38,-16.519 -37.062,-27.098 -61.173,-27.877 z"
           id="path1597" />
      </g>
    </g>
  </g>
  <g
     style="display:inline"
     inkscape:label="other keys"
     id="layer4"
     inkscape:groupmode="layer">
    <g
       id="g1987">
      <text
         xml:space="preserve"
         style="font-style:normal;font-variant:normal;font-weight:normal;font-stretch:normal;font-size:12.7px;line-height:1.25;font-family:'Bauhaus 93';-inkscape-font-specification:'Bauhaus 93, ';word-spacing:0px;stroke-width:0.264583"
         x="6.3161802"
         y="632.33148"
         id="text1277"><tspan
           sodipodi:role="line"
           id="tspan1275"
           x="6.3161793"
           y="632.33148"
           style="font-style:normal;font-variant:normal;font-weight:normal;font-stretch:normal;font-size:12.7px;font-family:'Berlin Sans FB Demi';-inkscape-font-specification:'Berlin Sans FB Demi';text-align:center;text-anchor:middle;stroke-width:0.264583">Keys from</tspan><tspan
           sodipodi:role="line"
           x="6.3161812"
           y="648.51831"
           style="font-style:normal;font-variant:normal;font-weight:normal;font-stretch:normal;font-size:12.7px;font-family:'Berlin Sans FB Demi';-inkscape-font-specification:'Berlin Sans FB Demi';text-align:center;text-anchor:middle;stroke-width:0.264583"
           id="tspan1279">others</tspan></text>
      <rect
         style="fill:none;fill-opacity:1;stroke:#000000;stroke-width:0.199785;stroke-miterlimit:4;stroke-dasharray:none"
         id="rect1281"
         width="64.827011"
         height="67.564491"
         x="-26.137632"
         y="653.95227"
         rx="8.3757019"
         ry="8.3151188" />
    </g>
    <g
       transform="translate(398.90256)"
       id="g1997">
      <text
         id="text1993"
         y="632.33148"
         x="6.3161802"
         style="font-style:normal;font-variant:normal;font-weight:normal;font-stretch:normal;font-size:12.7px;line-height:1.25;font-family:'Bauhaus 93';-inkscape-font-specification:'Bauhaus 93, ';word-spacing:0px;stroke-width:0.264583"
         xml:space="preserve"><tspan
           style="font-style:normal;font-variant:normal;font-weight:normal;font-stretch:normal;font-size:12.7px;font-family:'Berlin Sans FB Demi';-inkscape-font-specification:'Berlin Sans FB Demi';text-align:center;text-anchor:middle;stroke-width:0.264583"
           y="632.33148"
           x="6.3161793"
           id="tspan1989"
           sodipodi:role="line">Keys from</tspan><tspan
           id="tspan1991"
           style="font-style:normal;font-variant:normal;font-weight:normal;font-stretch:normal;font-size:12.7px;font-family:'Berlin Sans FB Demi';-inkscape-font-specification:'Berlin Sans FB Demi';text-align:center;text-anchor:middle;stroke-width:0.264583"
           y="648.51831"
           x="6.3161812"
           sodipodi:role="line">others</tspan></text>
      <rect
         ry="8.3151188"
         rx="8.3757019"
         y="653.95227"
         x="-26.137632"
         height="67.564491"
         width="64.827011"
         id="rect1995"
         style="fill:none;fill-opacity:1;stroke:#000000;stroke-width:0.199785;stroke-miterlimit:4;stroke-dasharray:none" />
    </g>
  </g>
  <g
     style="display:inline"
     inkscape:label="keys"
     id="layer3"
     inkscape:groupmode="layer">
    <g
       transform="translate(-294.35425,447.23159)"
       id="g1381">
      <path
         d="m 379.33145,282.1558 c -2.18209,-2.16837 -5.73254,-2.16837 -7.91462,0 -0.54691,0.54355 -0.96583,1.1802 -1.24424,1.8734 -2.19375,-1.69631 -5.37521,-1.54475 -7.39042,0.4578 -1.05937,1.05273 -1.6428,2.45295 -1.64272,3.94268 0,1.48978 0.58343,2.88993 1.64272,3.94258 0.58091,0.57734 1.25934,0.99937 1.98266,1.26924 l -22.50424,22.40272 c -0.44988,0.4472 -0.44988,1.17508 7e-5,1.62222 l 1.49223,1.55908 c 0.44628,0.44347 1.16702,0.44316 1.61284,-7.2e-4 l 3.46284,-3.59793 2.85341,2.83557 c 0.22307,0.2217 0.51459,0.33239 0.80604,0.33239 0.29381,0 0.5877,-0.1126 0.81115,-0.33749 0.44521,-0.44804 0.44292,-1.17205 -0.005,-1.61719 l -0.78645,-0.78156 1.4083,-1.39953 c 0.002,0.002 0.005,0.005 0.007,0.008 l 0.79666,0.79163 c 0.22307,0.2217 0.51451,0.33239 0.80604,0.33239 0.29389,0 0.5877,-0.1126 0.81114,-0.3375 0.44522,-0.44795 0.44293,-1.17197 -0.005,-1.61718 l -2.85097,-2.83314 14.35574,-14.22889 c 0.27842,0.68314 0.69397,1.31048 1.2341,1.84719 1.09101,1.08413 2.52416,1.62624 3.95731,1.62624 1.43307,0 2.86622,-0.54211 3.95731,-1.62624 1.05936,-1.05274 1.64279,-2.45296 1.64272,-3.94268 0,-1.25118 -0.41297,-2.43824 -1.17228,-3.41031 0.68307,-0.27072 1.3233,-0.67889 1.87547,-1.22755 1.05937,-1.05274 1.64273,-2.45295 1.64273,-3.94267 -7e-5,-1.48964 -0.58351,-2.88986 -1.64281,-3.94259 z m -15.90501,6.27395 c -8e-5,-0.87618 0.34366,-1.7002 0.96781,-2.32046 0.64663,-0.64259 1.49581,-0.96384 2.34523,-0.96384 0.84919,0 1.69868,0.32133 2.34515,0.96376 0.62407,0.62026 0.96781,1.44428 0.96781,2.32047 -7e-5,0.87609 -0.34374,1.70019 -0.96781,2.32037 -1.29318,1.28503 -3.3972,1.28503 -4.69038,0 -0.62407,-0.62011 -0.96781,-1.4442 -0.96781,-2.3203 z m 11.94693,8.56978 c -1.29318,1.28495 -3.3972,1.28495 -4.69038,0 -0.62407,-0.62025 -0.96781,-1.44429 -0.96781,-2.32045 0,-0.87611 0.34374,-1.70021 0.96781,-2.32039 0.64663,-0.64251 1.49589,-0.96376 2.34523,-0.96376 0.84934,0 1.6986,0.32125 2.34515,0.96376 0.62407,0.62018 0.96781,1.44428 0.96781,2.32039 0,0.87609 -0.34374,1.7002 -0.96781,2.32045 z m 2.34592,-8.58068 c -1.2931,1.28502 -3.3972,1.28502 -4.69038,0 -0.62407,-0.62026 -0.96782,-1.44429 -0.96782,-2.32038 0,-0.87611 0.34375,-1.70021 0.96782,-2.32047 0.64662,-0.64257 1.49581,-0.96376 2.34523,-0.96376 0.84918,0 1.69868,0.32133 2.34523,0.96376 0.62406,0.62026 0.96781,1.44429 0.96781,2.32047 -8e-5,0.87609 -0.34383,1.7002 -0.96789,2.32038 z"
         id="path1075"
         style="fill:#005c00;fill-opacity:1;stroke-width:0.0762349" />
      <text
         id="text1211"
         y="274.19183"
         x="342.87537"
         style="font-style:normal;font-variant:normal;font-weight:normal;font-stretch:normal;font-size:11.2889px;line-height:1.25;font-family:'Bauhaus 93';-inkscape-font-specification:'Bauhaus 93, ';word-spacing:0px;stroke-width:0.264583"
         xml:space="preserve"><tspan
           style="font-style:normal;font-variant:normal;font-weight:normal;font-stretch:normal;font-size:11.2889px;font-family:'Berlin Sans FB Demi';-inkscape-font-specification:'Berlin Sans FB Demi';stroke-width:0.264583"
           y="274.19183"
           x="342.87537"
           id="tspan1209"
           sodipodi:role="line">private</tspan></text>
    </g>
    <text
       xml:space="preserve"
       style="font-style:normal;font-variant:normal;font-weight:normal;font-stretch:normal;font-size:12.7px;line-height:1.25;font-family:'Bauhaus 93';-inkscape-font-specification:'Bauhaus 93, ';word-spacing:0px;stroke-width:0.264583"
       x="52.119011"
       y="700.70654"
       id="text1193-4"><tspan
         sodipodi:role="line"
         id="tspan1191-9"
         x="52.119011"
         y="700.70654"
         style="font-style:normal;font-variant:normal;font-weight:normal;font-stretch:normal;font-size:12.7px;font-family:'Berlin Sans FB Demi';-inkscape-font-specification:'Berlin Sans FB Demi';stroke-width:0.264583">Personal keys</tspan></text>
    <g
       transform="translate(-263.96318,445.40162)"
       id="g1386">
      <path
         style="fill:#3939c6;fill-opacity:1;stroke-width:0.0762349"
         id="path1296"
         d="m 581.31313,286.76867 c -2.18209,-2.16837 -5.73254,-2.16837 -7.91462,0 -0.54691,0.54355 -0.96583,1.1802 -1.24424,1.8734 -2.19375,-1.69631 -5.37521,-1.54475 -7.39042,0.4578 -1.05937,1.05273 -1.6428,2.45295 -1.64272,3.94268 0,1.48978 0.58343,2.88993 1.64272,3.94258 0.58091,0.57734 1.25934,0.99937 1.98266,1.26924 l -22.50424,22.40272 c -0.44988,0.4472 -0.44988,1.17508 7e-5,1.62222 l 1.49223,1.55908 c 0.44628,0.44347 1.16702,0.44316 1.61284,-7.2e-4 l 3.46284,-3.59793 2.85341,2.83557 c 0.22307,0.2217 0.51459,0.33239 0.80604,0.33239 0.29381,0 0.5877,-0.1126 0.81115,-0.33749 0.44521,-0.44804 0.44292,-1.17205 -0.005,-1.61719 l -0.78645,-0.78156 1.4083,-1.39953 c 0.002,0.002 0.005,0.005 0.007,0.008 l 0.79666,0.79163 c 0.22307,0.2217 0.51451,0.33239 0.80604,0.33239 0.29389,0 0.5877,-0.1126 0.81114,-0.3375 0.44522,-0.44795 0.44293,-1.17197 -0.005,-1.61718 l -2.85097,-2.83314 14.35574,-14.22889 c 0.27842,0.68314 0.69397,1.31048 1.2341,1.84719 1.09101,1.08413 2.52416,1.62624 3.95731,1.62624 1.43307,0 2.86622,-0.54211 3.95731,-1.62624 1.05936,-1.05274 1.64279,-2.45296 1.64272,-3.94268 0,-1.25118 -0.41297,-2.43824 -1.17228,-3.41031 0.68307,-0.27072 1.3233,-0.67889 1.87547,-1.22755 1.05937,-1.05274 1.64273,-2.45295 1.64273,-3.94267 -7e-5,-1.48964 -0.58351,-2.88986 -1.64281,-3.94259 z m -15.90501,6.27395 c -8e-5,-0.87618 0.34366,-1.7002 0.96781,-2.32046 0.64663,-0.64259 1.49581,-0.96384 2.34523,-0.96384 0.84919,0 1.69868,0.32133 2.34515,0.96376 0.62407,0.62026 0.96781,1.44428 0.96781,2.32047 -7e-5,0.87609 -0.34374,1.70019 -0.96781,2.32037 -1.29318,1.28503 -3.3972,1.28503 -4.69038,0 -0.62407,-0.62011 -0.96781,-1.4442 -0.96781,-2.3203 z m 11.94693,8.56978 c -1.29318,1.28495 -3.3972,1.28495 -4.69038,0 -0.62407,-0.62025 -0.96781,-1.44429 -0.96781,-2.32045 0,-0.87611 0.34374,-1.70021 0.96781,-2.32039 0.64663,-0.64251 1.49589,-0.96376 2.34523,-0.96376 0.84934,0 1.6986,0.32125 2.34515,0.96376 0.62407,0.62018 0.96781,1.44428 0.96781,2.32039 0,0.87609 -0.34374,1.7002 -0.96781,2.32045 z m 2.34592,-8.58068 c -1.2931,1.28502 -3.3972,1.28502 -4.69038,0 -0.62407,-0.62026 -0.96782,-1.44429 -0.96782,-2.32038 0,-0.87611 0.34375,-1.70021 0.96782,-2.32047 0.64662,-0.64257 1.49581,-0.96376 2.34523,-0.96376 0.84918,0 1.69868,0.32133 2.34523,0.96376 0.62406,0.62026 0.96781,1.44429 0.96781,2.32047 -8e-5,0.87609 -0.34383,1.7002 -0.96789,2.32038 z" />
      <text
         xml:space="preserve"
         style="font-style:normal;font-variant:normal;font-weight:normal;font-stretch:normal;font-size:11.2889px;line-height:1.25;font-family:'Bauhaus 93';-inkscape-font-specification:'Bauhaus 93, ';word-spacing:0px;stroke-width:0.264583"
         x="544.85706"
         y="278.80469"
         id="text1300"><tspan
           sodipodi:role="line"
           id="tspan1298"
           x="544.85706"
           y="278.80469"
           style="font-style:normal;font-variant:normal;font-weight:normal;font-stretch:normal;font-size:11.2889px;font-family:'Berlin Sans FB Demi';-inkscape-font-specification:'Berlin Sans FB Demi';stroke-width:0.264583">private</tspan></text>
    </g>
    <g
       transform="translate(-264.72092,444.58576)"
       id="g1348">
      <path
         sodipodi:nodetypes="csccccccccccccccccccsscscs"
         style="fill:#3939c6;fill-opacity:1;stroke-width:0.0638862"
         id="path1294"
         d="m 627.81461,287.53354 c -1.73986,-1.73994 -4.05316,-2.6981 -6.51378,-2.6981 -2.46063,0 -4.77392,0.95815 -6.51378,2.6981 -1.4893,1.48925 -2.40172,3.38028 -2.63868,5.46858 -0.22041,1.9422 0.18744,3.92452 1.15014,5.6113 l -22.27389,22.27392 3.43636,3.43643 1.79545,-1.79551 1.94948,1.94948 3.2121,-3.21213 -1.94947,-1.94948 2.40582,-2.40583 1.94947,1.9495 3.2121,-3.21214 -1.94946,-1.94948 11.64832,-11.64839 c 1.68684,0.96263 3.66882,1.37035 5.61133,1.15013 2.0883,-0.23701 3.97925,-1.14943 5.46849,-2.63868 1.73999,-1.73993 2.69815,-4.05325 2.69815,-6.51382 -6e-5,-2.46064 -0.95822,-4.77401 -2.69815,-6.51388 z m -2.30313,6.89969 c -0.63363,0.63362 -1.46599,0.9505 -2.2983,0.9505 -0.8323,0 -1.6646,-0.31688 -2.29829,-0.9505 -1.2673,-1.26731 -1.26729,-3.3293 0,-4.59661 1.26731,-1.2673 3.32927,-1.26729 4.59659,0 1.26723,1.26731 1.26723,3.32936 0,4.59661 z" />
      <text
         id="text1304"
         y="279.5589"
         x="595.16656"
         style="font-style:normal;font-variant:normal;font-weight:normal;font-stretch:normal;font-size:11.2889px;line-height:1.25;font-family:'Bauhaus 93';-inkscape-font-specification:'Bauhaus 93, ';word-spacing:0px;stroke-width:0.264583"
         xml:space="preserve"><tspan
           style="font-style:normal;font-variant:normal;font-weight:normal;font-stretch:normal;font-size:11.2889px;font-family:'Berlin Sans FB Demi';-inkscape-font-specification:'Berlin Sans FB Demi';stroke-width:0.264583"
           y="279.5589"
           x="595.16656"
           id="tspan1302"
           sodipodi:role="line">public</tspan></text>
    </g>
    <text
       id="text1310"
       y="705.3194"
       x="281.08862"
       style="font-style:normal;font-variant:normal;font-weight:normal;font-stretch:normal;font-size:12.7px;line-height:1.25;font-family:'Bauhaus 93';-inkscape-font-specification:'Bauhaus 93, ';word-spacing:0px;stroke-width:0.264583"
       xml:space="preserve"><tspan
         style="font-style:normal;font-variant:normal;font-weight:normal;font-stretch:normal;font-size:12.7px;font-family:'Berlin Sans FB Demi';-inkscape-font-specification:'Berlin Sans FB Demi';stroke-width:0.264583"
         y="705.3194"
         x="281.08862"
         id="tspan1308"
         sodipodi:role="line">Personal keys</tspan></text>
    <g
       id="g1075"
       transform="translate(-297.12833,446.67481)">
      <path
         sodipodi:nodetypes="csccccccccccccccccccsscscs"
         style="fill:#005c00;fill-opacity:1;stroke-width:0.0638862"
         id="path1069"
         d="m 425.83293,282.92067 c -1.73986,-1.73994 -4.05316,-2.6981 -6.51378,-2.6981 -2.46063,0 -4.77392,0.95815 -6.51378,2.6981 -1.4893,1.48925 -2.40172,3.38028 -2.63868,5.46858 -0.22041,1.9422 0.18744,3.92452 1.15014,5.6113 l -22.27389,22.27392 3.43636,3.43643 1.79545,-1.79551 1.94948,1.94948 3.2121,-3.21213 -1.94947,-1.94948 2.40582,-2.40583 1.94947,1.9495 3.2121,-3.21214 -1.94946,-1.94948 11.64832,-11.64839 c 1.68684,0.96263 3.66882,1.37035 5.61133,1.15013 2.0883,-0.23701 3.97925,-1.14943 5.46849,-2.63868 1.73999,-1.73993 2.69815,-4.05325 2.69815,-6.51382 -6e-5,-2.46064 -0.95822,-4.77401 -2.69815,-6.51388 z m -2.30313,6.89969 c -0.63363,0.63362 -1.46599,0.9505 -2.2983,0.9505 -0.8323,0 -1.6646,-0.31688 -2.29829,-0.9505 -1.2673,-1.26731 -1.26729,-3.3293 0,-4.59661 1.26731,-1.2673 3.32927,-1.26729 4.59659,0 1.26723,1.26731 1.26723,3.32936 0,4.59661 z" />
      <text
         id="text1073"
         y="274.94604"
         x="393.18484"
         style="font-style:normal;font-variant:normal;font-weight:normal;font-stretch:normal;font-size:11.2889px;line-height:1.25;font-family:'Bauhaus 93';-inkscape-font-specification:'Bauhaus 93, ';word-spacing:0px;stroke-width:0.264583"
         xml:space="preserve"><tspan
           style="font-style:normal;font-variant:normal;font-weight:normal;font-stretch:normal;font-size:11.2889px;font-family:'Berlin Sans FB Demi';-inkscape-font-specification:'Berlin Sans FB Demi';stroke-width:0.264583"
           y="274.94604"
           x="393.18484"
           id="tspan1071"
           sodipodi:role="line">public</tspan></text>
    </g>
  </g>
  <g
     style="display:inline"
     inkscape:label="players"
     id="layer2"
     inkscape:groupmode="layer">
    <g
       transform="matrix(0.12531642,0,0,0.12531642,58.791875,615.55048)"
       id="g936">
      <path
         style="fill:#5c414b"
         d="M 360.21,143.774 V 114.653 C 360.21,58.541 317.088,10.258 261.038,7.619 201.194,4.801 151.79,52.485 151.79,111.71 v 32.065 c 0,53.947 -8.964,85.483 -13.487,97.961 -1.348,3.719 0.268,7.836 3.76,9.693 15.974,8.497 59.495,30.235 97.904,36.637 h 32.065 c 38.409,-6.401 81.93,-28.139 97.904,-36.637 3.492,-1.858 5.108,-5.974 3.76,-9.693 -4.522,-12.478 -13.486,-44.015 -13.486,-97.962 z"
         id="path833" />
      <path
         style="fill:#503441"
         d="m 151.79,111.71 v 32.065 c 0,53.945 -8.963,85.481 -13.486,97.959 -1.352,3.73 0.299,7.853 3.802,9.715 14.903,7.919 53.608,27.26 89.845,35.056 V 127.742 L 215.919,111.71 C 189.253,85.044 187.448,51.365 189.21,31.753 166.351,50.869 151.79,79.58 151.79,111.71 Z"
         id="path835" />
      <rect
         x="215.92"
         y="231.95"
         style="fill:#e6af78"
         width="80.160004"
         height="104.21"
         id="rect837" />
      <path
         style="fill:#d29b6e"
         d="m 215.919,264.02 c 12.341,5.148 25.873,8.013 40.081,8.013 14.207,0 27.739,-2.865 40.081,-8.013 V 231.952 H 215.92 Z"
         id="path839" />
      <path
         style="fill:#ffdc64"
         d="m 371.737,307.043 -42.677,-18.979 -57.028,24.048 -9.363,14.043 c -3.173,4.76 -10.166,4.76 -13.339,0 l -9.363,-14.043 -56.155,-24.048 -42.677,18.979 c -17.806,7.918 -29.074,25.798 -28.535,45.278 L 116.812,504.5 H 396.06 l 4.212,-152.179 c 0.539,-19.48 -10.729,-37.36 -28.535,-45.278 z"
         id="path841" />
      <g
         id="g847">
        <path
           style="fill:#fff082"
           d="m 166.219,368.226 -40.27,-50.338 c -8.671,9.103 -13.71,21.368 -13.348,34.433 l 4.212,152.179 h 49.407 z"
           id="path843" />
        <path
           style="fill:#fff082"
           d="m 346.653,368.226 40.27,-50.338 c 8.671,9.103 13.71,21.368 13.348,34.433 L 396.06,504.5 h -49.407 z"
           id="path845" />
      </g>
      <path
         style="fill:#f0c087"
         d="m 331.927,193.101 c 2.066,-6.485 3.233,-13.258 3.407,-20.061 1.234,-48.117 -69.102,-34.3 -123.283,-75.021 -4.147,29.722 -21.592,39.68 -28.195,45.755 -2.972,2.734 -6.498,-8.016 -10.537,-8.016 h -5.767 c -0.004,0 -0.008,0.002 -0.012,0.002 -0.88,0.016 -1.779,0.109 -2.695,0.286 -7.802,1.51 -13.053,8.975 -13.053,16.922 v 5.799 c 0,7.668 4.91,14.903 12.378,16.645 1.681,0.392 3.317,0.503 4.884,0.378 3.986,-0.318 7.465,2.582 8.183,6.516 6.815,37.35 39.447,65.679 78.765,65.679 33.415,0 61.936,-20.494 73.95,-49.564 0.577,-1.416 1.86,-4.975 1.975,-5.32 z"
         id="path849" />
      <path
         style="fill:#e6af78"
         d="m 207.903,167.823 v -40.081 c -8.016,0 -24.048,16.032 -24.048,16.032 0,0 -8.016,-8.016 -10.536,-8.016 h -5.768 c -0.004,0 -0.008,0.002 -0.012,0.002 -0.878,0.016 -1.776,0.109 -2.689,0.285 -7.802,1.507 -13.059,8.966 -13.059,16.912 v 5.809 c 0,7.667 4.909,14.901 12.376,16.644 1.682,0.392 3.318,0.503 4.885,0.379 3.986,-0.318 7.465,2.582 8.183,6.516 6.815,37.35 39.447,65.679 78.765,65.679 5.45,0 10.753,-0.595 15.895,-1.632 -36.521,-7.481 -63.992,-39.797 -63.992,-78.529 z"
         id="path851" />
      <g
         id="g857">
        <path
           style="fill:#fff082"
           d="m 199.312,318.979 -15.457,-30.915 17.422,-14.881 c 3.567,-3.047 8.976,-2.393 11.714,1.415 l 26.977,37.514 -16.696,12.522 c -8.003,6.003 -19.486,3.292 -23.96,-5.655 z"
           id="path853" />
        <path
           style="fill:#fff082"
           d="m 312.688,318.979 15.457,-30.915 -17.422,-14.881 c -3.567,-3.047 -8.976,-2.393 -11.715,1.415 l -26.977,37.514 16.696,12.522 c 8.004,6.003 19.487,3.292 23.961,-5.655 z"
           id="path855" />
      </g>
      <path
         style="fill:#dbd9dc"
         d="M 345.043,504.5 H 166.957 c -8.509,0 -15.536,-6.647 -16.008,-15.143 l -6.235,-112.226 c -0.511,-9.19 6.804,-16.922 16.008,-16.922 h 190.556 c 9.204,0 16.518,7.732 16.008,16.922 l -6.235,112.226 c -0.472,8.496 -7.499,15.143 -16.008,15.143 z"
         id="path859" />
      <circle
         style="fill:#ffffff"
         cx="256"
         cy="436.35999"
         r="20.040001"
         id="circle861" />
      <path
         d="M 440.371,497 H 403.77 l 3.999,-144.472 c 0.625,-22.605 -12.322,-43.149 -32.985,-52.338 l -42.677,-18.979 c -0.258,-0.115 -0.519,-0.21 -0.782,-0.294 L 325.3,275.77 c 30.448,-9.235 53.217,-20.539 54.296,-21.078 3.687,-1.843 5.183,-6.34 3.366,-10.039 C 382.809,244.342 367.71,212.8 367.71,143.774 V 111.709 C 367.71,50.112 317.597,0 256,0 194.403,0 144.291,50.112 144.291,111.709 v 32.065 c 0,69.026 -15.1,100.568 -15.24,100.855 -1.853,3.705 -0.351,8.21 3.354,10.063 1.087,0.543 23.853,11.847 54.294,21.08 l -6.84,5.843 -41.77,18.576 c -20.663,9.188 -33.61,29.732 -32.985,52.338 L 109.103,497 H 71.629 c -4.142,0 -7.5,3.358 -7.5,7.5 0,4.142 3.358,7.5 7.5,7.5 h 368.742 c 4.142,0 7.5,-3.358 7.5,-7.5 0,-4.142 -3.358,-7.5 -7.5,-7.5 z M 392.775,352.113 388.764,497 h -21.793 c 0.879,-2.258 1.427,-4.685 1.568,-7.227 l 6.235,-112.225 c 0.357,-6.43 -1.976,-12.8 -6.4,-17.478 -1.009,-1.066 -2.115,-2.023 -3.292,-2.874 l 21.83,-27.288 c 3.963,6.53 6.085,14.189 5.863,22.205 z M 305.98,315.625 c -1.135,2.27 -3.202,3.905 -5.671,4.488 -2.47,0.583 -5.05,0.044 -7.08,-1.478 l -10.815,-8.112 23.012,-32.002 13.388,11.436 z m -40.037,-7.891 c -0.026,0.036 -0.047,0.075 -0.073,0.112 -0.025,0.036 -0.054,0.069 -0.079,0.106 l -9.362,14.043 c -0.054,0.081 -0.153,0.23 -0.43,0.23 -0.277,0 -0.376,-0.149 -0.43,-0.23 l -9.362,-14.043 c -0.025,-0.037 -0.054,-0.07 -0.079,-0.106 -0.026,-0.037 -0.046,-0.076 -0.073,-0.112 l -22.637,-31.48 v -27.062 c 10.119,4.059 21.124,6.291 32.581,6.291 11.376,0 22.4,-2.222 32.581,-6.312 v 27.082 z m -59.368,-29.213 23.012,32.002 -10.815,8.111 c -2.03,1.523 -4.61,2.062 -7.08,1.479 -2.469,-0.583 -4.537,-2.219 -5.671,-4.488 v 0 L 193.188,289.957 Z M 256,15 c 53.326,0 96.71,43.384 96.71,96.709 v 32.065 c 0,54.793 9.072,87.118 13.901,100.442 -9.976,4.512 -30.807,13.306 -54.979,19.879 l -2.664,-2.275 c -1.497,-1.279 -3.435,-1.903 -5.387,-1.769 v -18.647 c 14.049,-9.101 25.501,-22.213 32.545,-38.168 4.123,-9.337 6.441,-19.712 6.705,-30.003 0.867,-33.826 -28.153,-42.394 -58.878,-51.465 -25.739,-7.599 -54.913,-16.211 -78.836,-39.482 -2.97,-2.888 -7.717,-2.822 -10.605,0.146 -2.888,2.97 -2.823,7.718 0.146,10.606 26.581,25.855 59,35.426 85.048,43.117 32.892,9.71 48.678,15.326 48.13,36.693 -0.214,8.354 -2.092,16.767 -5.432,24.33 -11.615,26.308 -37.681,43.307 -66.404,43.307 -35.029,0 -65.045,-24.999 -71.372,-59.441 -1.414,-7.7 -8.543,-13.288 -16.222,-12.726 -0.84,0.062 -1.699,-0.012 -2.563,-0.216 -3.735,-0.884 -6.553,-4.902 -6.553,-9.346 v -6.152 c 0,-4.553 2.979,-8.509 6.93,-9.202 3.255,-0.572 6.384,0.628 8.364,3.21 1.436,1.872 3.348,3.21 5.529,3.869 3.195,0.965 6.719,0.4 9.429,-1.513 6.56,-4.63 12.121,-10.504 16.527,-17.458 2.217,-3.499 1.179,-8.132 -2.32,-10.35 -3.499,-2.217 -8.132,-1.178 -10.35,2.32 -2.681,4.231 -5.911,7.927 -9.629,11.024 -5.354,-4.947 -12.757,-7.173 -20.144,-5.877 -1.507,0.265 -2.954,0.685 -4.337,1.229 V 111.711 C 159.291,58.384 202.674,15 256,15 Z M 145.389,244.217 c 3.611,-9.962 9.592,-30.551 12.381,-63.206 1.463,0.721 3.001,1.304 4.618,1.687 2.327,0.55 4.69,0.748 7.022,0.586 0.173,0.07 0.424,0.323 0.465,0.469 4.489,24.44 18.869,44.93 38.544,57.673 v 18.625 c -1.953,-0.134 -3.89,0.49 -5.387,1.769 l -2.663,2.275 c -24.174,-6.574 -45.006,-15.367 -54.98,-19.878 z m -1.206,69.679 36.162,-16.082 12.259,24.519 v 0 c 3.13,6.259 8.831,10.771 15.641,12.378 1.799,0.425 3.619,0.634 5.428,0.634 5.037,0 9.979,-1.621 14.099,-4.71 l 10.354,-7.766 4.965,7.447 c 2.884,4.327 7.71,6.91 12.91,6.91 5.2,0 10.026,-2.583 12.91,-6.91 l 4.964,-7.447 10.354,7.766 c 4.12,3.089 9.062,4.71 14.099,4.71 1.808,0 3.629,-0.209 5.428,-0.634 6.811,-1.607 12.511,-6.119 15.641,-12.378 v 0 l 12.418,-24.836 36.876,16.399 c 2.897,1.288 5.583,2.884 8.034,4.735 l -27.262,34.078 H 163.413 L 136.15,318.631 c 2.45,-1.85 5.136,-3.446 8.033,-4.735 z m -24.085,38.217 c -0.222,-8.017 1.9,-15.675 5.864,-22.204 l 21.516,26.894 c -1.389,0.944 -2.684,2.034 -3.85,3.267 -4.425,4.678 -6.758,11.048 -6.4,17.477 l 6.235,112.225 c 0.141,2.543 0.689,4.97 1.568,7.228 H 124.11 Z M 166.957,497 c -4.526,0 -8.268,-3.54 -8.519,-8.059 l -6.235,-112.226 c -0.131,-2.365 0.693,-4.615 2.321,-6.336 1.628,-1.721 3.829,-2.668 6.198,-2.668 h 190.557 c 2.369,0 4.57,0.947 6.198,2.668 1.628,1.721 2.452,3.971 2.321,6.337 l -6.235,112.226 c -0.251,4.519 -3.993,8.059 -8.519,8.059 H 166.957 Z"
         id="path863" />
      <path
         d="m 256,408.822 c -15.186,0 -27.541,12.354 -27.541,27.541 0,15.187 12.354,27.541 27.541,27.541 15.187,0 27.541,-12.354 27.541,-27.541 0,-15.187 -12.355,-27.541 -27.541,-27.541 z m 0,40.081 c -6.915,0 -12.541,-5.626 -12.541,-12.541 0,-6.915 5.625,-12.541 12.541,-12.541 6.916,0 12.541,5.626 12.541,12.541 0,6.915 -5.626,12.541 -12.541,12.541 z"
         id="path865" />
      <g
         id="g867" />
      <g
         id="g869" />
      <g
         id="g871" />
      <g
         id="g873" />
      <g
         id="g875" />
      <g
         id="g877" />
      <g
         id="g879" />
      <g
         id="g881" />
      <g
         id="g883" />
      <g
         id="g885" />
      <g
         id="g887" />
      <g
         id="g889" />
      <g
         id="g891" />
      <g
         id="g893" />
      <g
         id="g895" />
    </g>
    <g
       transform="matrix(0.12531642,0,0,0.12531642,287.76128,613.33536)"
       id="g1038">
      <rect
         x="198.961"
         y="203.03999"
         style="fill:#b48764"
         width="114.07"
         height="97.769997"
         id="rect938" />
      <path
         style="fill:#966d50"
         d="m 198.957,243.307 c 16.476,10.564 36.017,16.766 57.043,16.766 21.016,0 40.551,-6.198 57.023,-16.755 V 203.04 H 198.957 Z"
         id="path940" />
      <path
         style="fill:#5d5360"
         d="m 420.638,504.5 6.421,-168.462 c 0.837,-20.91 -11.728,-40.035 -31.253,-47.566 l -74.169,-25.446 c -3.017,-1.035 -6.46,0.142 -7.947,2.963 -10.918,20.706 -32.653,34.823 -57.689,34.823 -25.036,0 -46.771,-14.117 -57.689,-34.823 -1.488,-2.821 -4.931,-3.998 -7.947,-2.963 l -74.169,25.446 c -19.525,7.531 -32.091,26.656 -31.254,47.566 l 6.42,168.462 z"
         id="path942" />
      <g
         id="g948">
        <path
           style="fill:#6f6571"
           d="M 158.23,374.052 92.267,308.441 c -5.001,8.097 -7.725,17.622 -7.326,27.597 L 91.362,504.5 h 66.868 z"
           id="path944" />
        <path
           style="fill:#6f6571"
           d="m 353.771,374.052 65.963,-65.611 c 5.001,8.097 7.725,17.622 7.326,27.597 L 420.639,504.5 h -66.868 z"
           id="path946" />
      </g>
      <path
         style="fill:#c39772"
         d="M 345.623,121.567 V 97.123 C 345.623,47.626 305.497,7.5 256,7.5 c -49.497,0 -89.623,40.126 -89.623,89.623 v 24.443 h -0.286 c -0.004,0 -0.008,0.002 -0.012,0.002 -0.893,0.016 -1.805,0.11 -2.734,0.29 -7.93,1.532 -13.273,9.113 -13.273,17.189 v 5.904 c 0,7.793 4.99,15.145 12.578,16.917 1.71,0.399 3.373,0.512 4.966,0.385 4.051,-0.323 7.588,2.625 8.317,6.622 6.927,37.962 40.093,66.755 80.057,66.755 39.964,0 73.13,-28.793 80.057,-66.755 0.703,-3.85 4.026,-6.654 7.887,-6.573 h 1.679 c 8.999,0 16.295,-7.296 16.295,-16.295 v -8.148 c 0,-8.995 -7.29,-16.286 -16.285,-16.292 z"
         id="path950" />
      <g
         id="g956">
        <path
           style="fill:#b48764"
           d="m 207.116,154.156 v -65.18 c 0,-36.085 21.373,-67.106 52.108,-81.313 C 258.145,7.624 257.089,7.5 256,7.5 c -49.497,0 -89.623,40.126 -89.623,89.623 v 24.443 h -0.286 c -0.004,0 -0.008,0.002 -0.012,0.002 -0.893,0.016 -1.805,0.11 -2.734,0.29 -7.93,1.532 -13.273,9.113 -13.273,17.189 v 5.904 c 0,7.793 4.99,15.145 12.578,16.917 1.71,0.399 3.373,0.512 4.966,0.385 4.051,-0.323 7.588,2.625 8.317,6.622 6.927,37.962 40.093,66.755 80.057,66.755 1.101,0 2.175,-0.103 3.265,-0.147 -30.752,-14.199 -52.139,-45.23 -52.139,-81.327 z"
           id="path952" />
        <path
           style="fill:#b48764"
           d="m 256,7.5 c -49.497,0 -89.623,40.126 -89.623,89.623 v 24.443 h 10.779 c 3.332,0 6.328,-2.028 7.565,-5.122 L 194.87,91.071 c 2.475,-6.187 8.466,-10.243 15.129,-10.243 H 302 c 6.663,0 12.655,4.056 15.129,10.243 l 10.149,25.373 c 1.237,3.093 4.233,5.122 7.565,5.122 h 10.779 V 97.123 C 345.623,47.626 305.497,7.5 256,7.5 Z"
           id="path954" />
      </g>
      <path
         style="fill:#966d50"
         d="m 166.378,97.123 v 24.443 h 10.779 c 3.332,0 6.328,-2.028 7.565,-5.122 l 10.149,-25.373 c 2.152,-5.38 7.011,-8.97 12.611,-9.862 2.82,-32.725 23.239,-60.372 51.742,-73.547 C 258.145,7.624 257.089,7.5 256,7.5 c -49.496,0 -89.622,40.126 -89.622,89.623 z"
         id="path958" />
      <path
         style="fill:#dbd9dc"
         d="M 346.503,504.5 H 165.497 c -8.648,0 -15.79,-6.756 -16.27,-15.391 L 142.89,375.043 c -0.519,-9.34 6.915,-17.199 16.27,-17.199 h 193.68 c 9.355,0 16.789,7.859 16.27,17.199 l -6.337,114.066 c -0.48,8.635 -7.622,15.391 -16.27,15.391 z"
         id="path960" />
      <circle
         style="fill:#ffffff"
         cx="256"
         cy="435.25"
         r="20.368999"
         id="circle962" />
      <path
         style="fill:#6f6571"
         d="m 256,333.402 c 41.257,0 76.471,-25.591 90.826,-61.734 l -25.191,-8.642 c -3.017,-1.035 -6.459,0.142 -7.947,2.963 -10.918,20.706 -32.654,34.823 -57.689,34.823 -25.035,0 -46.771,-14.117 -57.689,-34.823 -1.488,-2.821 -4.93,-3.998 -7.947,-2.963 l -25.191,8.642 c 14.358,36.143 49.571,61.734 90.828,61.734 z"
         id="path964" />
      <path
         d="M 443.395,497 H 428.12 l 6.435,-160.662 c 0.966,-24.127 -13.521,-46.175 -36.049,-54.863 -0.087,-0.034 -0.176,-0.066 -0.265,-0.097 l -77.707,-26.66 v -39.1 c 11.506,-12.141 19.679,-27.595 22.883,-45.036 0.043,-0.202 0.393,-0.542 0.507,-0.585 2.145,0.157 4.32,0.014 6.464,-0.424 11.027,-2.258 19.031,-12.51 19.031,-24.377 v -6.349 c 0,-10.673 -6.701,-19.994 -16.295,-23.261 V 97.123 C 353.123,43.569 309.554,0 256,0 202.446,0 158.877,43.569 158.877,97.123 v 18.417 c -9.609,3.2 -16.295,12.533 -16.295,23.401 v 6.253 c 0,11.868 8.004,22.12 19.032,24.377 2.144,0.439 4.318,0.582 6.369,0.421 0.209,0.045 0.558,0.386 0.602,0.587 3.203,17.442 11.377,32.896 22.883,45.037 v 39.1 l -77.707,26.66 c -0.089,0.03 -0.177,0.063 -0.265,0.097 -22.528,8.688 -37.015,30.736 -36.049,54.863 L 83.881,497 H 68.606 c -4.142,0 -7.5,3.358 -7.5,7.5 0,4.142 3.358,7.5 7.5,7.5 h 374.787 c 4.142,0 7.5,-3.358 7.5,-7.5 0,-4.142 -3.357,-7.5 -7.498,-7.5 z m -73.134,-7.475 6.337,-114.065 c 0.215,-3.861 -0.537,-7.698 -2.115,-11.171 l 43.067,-43.067 c 1.501,4.59 2.216,9.491 2.015,14.516 L 413.106,497 h -44.495 c 0.928,-2.33 1.504,-4.842 1.65,-7.475 z M 206.467,228.292 c 14.245,9.567 31.331,15.095 49.533,15.095 18.202,0 35.288,-5.527 49.533,-15.095 v 36.903 c -10.313,17.297 -29,28.117 -49.533,28.117 -20.533,0 -39.22,-10.819 -49.533,-28.117 z M 166.98,155.037 c -0.772,0.057 -1.564,0.003 -2.358,-0.16 -4.014,-0.821 -7.04,-4.984 -7.04,-9.682 v -6.253 c 0,-4.686 3.072,-8.759 7.146,-9.474 2.712,-0.476 4.783,0.3 6.043,1.035 3.578,2.086 8.17,0.878 10.257,-2.701 2.086,-3.578 0.877,-8.17 -2.701,-10.257 -1.412,-0.823 -2.908,-1.473 -4.449,-1.984 V 97.123 C 173.878,51.84 210.717,15 256,15 c 45.283,0 82.123,36.84 82.123,82.123 v 17.971 c -0.442,0.088 -0.885,0.175 -1.323,0.279 -4.032,0.949 -6.53,4.987 -5.581,9.019 0.95,4.032 4.985,6.531 9.02,5.582 2.819,-0.664 5.727,-0.747 7.031,-0.487 4.076,0.811 7.149,4.834 7.149,9.359 v 6.349 c 0,4.698 -3.026,8.861 -7.04,9.682 -0.794,0.163 -1.588,0.217 -2.358,0.16 -7.737,-0.573 -14.932,5.068 -16.358,12.834 -6.44,35.065 -37,60.516 -72.663,60.516 -35.663,0 -66.222,-25.45 -72.663,-60.516 -1.424,-7.766 -8.617,-13.403 -16.357,-12.834 z m -48.213,140.482 42.232,-14.489 c 17.45,36.493 54.336,59.872 95.001,59.872 14.646,0 28.823,-2.952 42.138,-8.774 3.795,-1.66 5.526,-6.082 3.867,-9.877 -1.66,-3.795 -6.083,-5.526 -9.876,-3.867 -11.408,4.989 -23.564,7.518 -36.128,7.518 -34.286,0 -65.428,-19.388 -80.69,-49.782 l 16.822,-5.771 c 12.637,23.273 37.003,37.964 63.867,37.964 26.864,0 51.23,-14.69 63.867,-37.964 l 16.825,5.772 c -5.077,10.074 -12.086,19.255 -20.512,26.796 -3.086,2.763 -3.349,7.504 -0.586,10.59 1.481,1.655 3.532,2.498 5.591,2.498 1.781,0 3.568,-0.63 5,-1.912 10.326,-9.242 18.83,-20.602 24.809,-33.066 l 42.24,14.492 c 6.673,2.599 12.379,6.798 16.759,12.049 l -45.717,45.717 c -3.479,-1.903 -7.416,-2.94 -11.435,-2.94 H 159.16 c -3.954,0 -7.828,1.006 -11.265,2.851 l -45.88,-45.636 c 4.379,-5.247 10.082,-9.444 16.752,-12.041 z m -26.332,40.219 c -0.202,-5.034 0.516,-9.942 2.022,-14.539 l 43.141,42.911 c -1.634,3.52 -2.415,7.422 -2.196,11.35 l 6.337,114.065 c 0.146,2.634 0.723,5.146 1.65,7.476 H 98.894 Z M 165.497,497 c -4.666,0 -8.523,-3.649 -8.782,-8.307 l -6.337,-114.066 c -0.135,-2.438 0.714,-4.758 2.392,-6.532 1.678,-1.774 3.948,-2.751 6.39,-2.751 h 193.68 c 2.442,0 4.711,0.977 6.39,2.751 1.678,1.774 2.527,4.094 2.392,6.532 l -6.337,114.066 c -0.259,4.658 -4.116,8.307 -8.782,8.307 z"
         id="path966" />
      <path
         d="m 256,407.377 c -15.367,0 -27.869,12.502 -27.869,27.869 0,15.367 12.502,27.869 27.869,27.869 15.367,0 27.869,-12.502 27.869,-27.869 0,-15.367 -12.502,-27.869 -27.869,-27.869 z m 0,40.738 c -7.096,0 -12.869,-5.773 -12.869,-12.869 0,-7.096 5.773,-12.869 12.869,-12.869 7.096,0 12.869,5.773 12.869,12.869 0,7.096 -5.773,12.869 -12.869,12.869 z"
         id="path968" />
      <g
         id="g970" />
      <g
         id="g972" />
      <g
         id="g974" />
      <g
         id="g976" />
      <g
         id="g978" />
      <g
         id="g980" />
      <g
         id="g982" />
      <g
         id="g984" />
      <g
         id="g986" />
      <g
         id="g988" />
      <g
         id="g990" />
      <g
         id="g992" />
      <g
         id="g994" />
      <g
         id="g996" />
      <g
         id="g998" />
    </g>
    <text
       id="text1193"
       y="607.21777"
       x="74.951378"
       style="font-style:normal;font-variant:normal;font-weight:normal;font-stretch:normal;font-size:14.1111px;line-height:1.25;font-family:'Bauhaus 93';-inkscape-font-specification:'Bauhaus 93, ';word-spacing:0px;stroke-width:0.264583"
       xml:space="preserve"><tspan
         style="font-style:normal;font-variant:normal;font-weight:normal;font-stretch:normal;font-size:14.1111px;font-family:'Berlin Sans FB Demi';-inkscape-font-specification:'Berlin Sans FB Demi';stroke-width:0.264583"
         y="607.21777"
         x="74.951378"
         id="tspan1191"
         sodipodi:role="line">Mally</tspan></text>
    <text
       xml:space="preserve"
       style="font-style:normal;font-variant:normal;font-weight:normal;font-stretch:normal;font-size:12.7px;line-height:1.25;font-family:'Bauhaus 93';-inkscape-font-specification:'Bauhaus 93, ';word-spacing:0px;stroke-width:0.264583"
       x="302.42651"
       y="605.70587"
       id="text1197"><tspan
         sodipodi:role="line"
         id="tspan1195"
         x="302.42651"
         y="605.70587"
         style="font-style:normal;font-variant:normal;font-weight:normal;font-stretch:normal;font-size:12.7px;font-family:'Berlin Sans FB Demi';-inkscape-font-specification:'Berlin Sans FB Demi';stroke-width:0.264583">Carlos</tspan></text>
    <path
       id="path1521"
       d="M 150.13116,625.79255 H 263.83558"
       style="fill:none;stroke:#000000;stroke-width:3;stroke-linecap:butt;stroke-linejoin:miter;stroke-miterlimit:4;stroke-dasharray:none;stroke-opacity:1" />
    <path
       id="path1523"
       d="M 150.50164,664.9487 H 264.28901"
       style="fill:none;stroke:#000000;stroke-width:3;stroke-linecap:butt;stroke-linejoin:miter;stroke-miterlimit:4;stroke-dasharray:none;stroke-opacity:1" />
  </g>
</svg>
