<svg id="Capa_1" enable-background="new 0 0 512 512" height="512" viewBox="0 0 512 512" width="512" xmlns="http://www.w3.org/2000/svg"><g><path d="m509.586 63.642-68.341-58.613c-6.221-5.336-15.598-4.623-20.943 1.593l-204.223 237.485c-1.676 1.949-4.322 2.811-6.805 2.143-17.179-4.624-35.708-2.282-51.261 6.694-2.511 1.449-5.675-.252-5.894-3.14l-.695-9.154c-.738-9.73-9.235-17.018-18.979-16.278-9.743.741-17.044 9.231-16.305 18.961l.695 9.159c.22 2.901-2.666 5.039-5.38 3.982-25.885-10.083-56.413-3.398-75.549 18.854s-21.14 53.4-7.25 77.431c1.456 2.52-.224 5.692-3.129 5.913l-9.171.698c-9.743.741-17.043 9.23-16.305 18.961.738 9.731 9.235 17.019 18.979 16.277l9.171-.698c2.905-.221 5.045 2.661 3.985 5.372-10.105 25.856-3.424 56.344 18.849 75.446s53.459 21.093 77.526 7.211c2.523-1.455 5.699.222 5.919 3.123l.695 9.158c.738 9.731 9.235 17.019 18.979 16.278 9.743-.741 17.044-9.23 16.305-18.961l-.695-9.159c-.22-2.901 2.666-5.039 5.38-3.982 25.885 10.082 56.414 3.398 75.549-18.854 19.135-22.251 21.14-53.4 7.251-77.431-1.456-2.52.224-5.692 3.129-5.913l9.171-.698c9.743-.741 17.044-9.23 16.305-18.961-.738-9.73-9.235-17.018-18.978-16.277l-9.167.697c-2.892.22-5.053-2.646-3.998-5.344 6.535-16.71 6.055-35.356-1.118-51.617-1.037-2.35-.583-5.093 1.093-7.042l148.734-172.959c2.494-2.901 6.87-3.233 9.773-.743l13.518 11.594c2.903 2.49 7.279 2.157 9.773-.743l11.614-13.506c2.494-2.901 2.163-7.271-.741-9.761l-13.518-11.594c-2.903-2.49-3.235-6.86-.741-9.761l10.323-12.005c2.494-2.901 6.87-3.234 9.773-.743l36.048 30.917c2.903 2.49 7.279 2.157 9.773-.743l11.614-13.506c2.497-2.901 2.165-7.271-.738-9.761zm-451.149 231.009c13.519-15.721 37.32-17.531 53.056-4.035s17.539 37.266 4.02 52.987-37.32 17.532-53.056 4.036c-15.736-13.497-17.539-37.267-4.02-52.988zm65.01 153.532c-13.519 15.721-37.32 17.532-53.056 4.036s-17.539-37.266-4.02-52.987 37.32-17.532 53.056-4.036 17.539 37.266 4.02 52.987zm39.706-161.497c13.519-15.721 37.32-17.532 53.056-4.036s17.539 37.267 4.02 52.987c-13.519 15.721-37.32 17.532-53.056 4.036-15.736-13.495-17.539-37.266-4.02-52.987zm65.01 153.532c-13.519 15.721-37.32 17.531-53.056 4.035s-17.539-37.266-4.02-52.987 37.32-17.532 53.056-4.036c15.736 13.497 17.539 37.267 4.02 52.988z" fill="#b0aab3"/><path d="m403.114 103.997c2.494-2.901 6.87-3.233 9.773-.743l13.518 11.594c2.903 2.49 7.279 2.157 9.773-.743l11.614-13.506c2.494-2.901 2.163-7.271-.741-9.761l-13.518-11.594c-2.903-2.49-3.235-6.86-.741-9.761l10.323-12.005c2.494-2.901 6.87-3.234 9.773-.743l36.048 30.917c2.903 2.49 7.279 2.157 9.773-.743l11.614-13.506c2.494-2.9 2.163-7.271-.741-9.761-11.217-9.564-27.395-23.551-38.613-33.117-3.597-3.049-18.691 6.148-22.121 8.09-12.509 7.081-23.618 17.49-33.853 27.47-42.003 40.956-82.39 83.519-123.009 125.836-18.243 19.005-36.948 37.611-54.997 56.791-3.004 3.192-24.799 30.631-28.717 28.712 2.796 1.369 5.464 3.109 7.934 5.227 15.736 13.496 17.539 37.267 4.02 52.987-13.519 15.721-37.32 17.532-53.056 4.036-.494-.424-.975-.858-1.441-1.302-13.733 21.599-26.487 43.819-38.231 66.561 7.734 13.427 6.616 30.843-4.053 43.25-5.707 6.636-13.248 10.784-21.239 12.357-4.419 10.448-9.019 21.389-12.688 30.188 13.462 1.06 27.124-1.916 39.041-8.79 2.523-1.455 5.699.222 5.919 3.123l.695 9.158c.738 9.731 9.235 17.019 18.979 16.278 9.743-.741 17.044-9.23 16.305-18.961l-.695-9.159c-.22-2.901 2.666-5.039 5.38-3.982 25.885 10.082 56.414 3.398 75.549-18.854 19.135-22.251 21.14-53.4 7.251-77.431-1.456-2.52.224-5.692 3.129-5.913l9.171-.698c9.743-.741 17.044-9.23 16.305-18.961-.738-9.73-9.235-17.018-18.978-16.277l-9.167.697c-2.892.22-5.053-2.646-3.998-5.344 6.535-16.71 6.055-35.356-1.118-51.617-1.037-2.35-.583-5.093 1.093-7.042zm-174.951 336.221c-13.519 15.721-37.32 17.531-53.056 4.035s-17.539-37.266-4.02-52.987 37.32-17.532 53.056-4.036c15.736 13.497 17.539 37.267 4.02 52.988z" fill="#a199a4"/></g></svg>