<?xml version="1.0" encoding="iso-8859-1"?>
<!-- Generator: Adobe Illustrator 19.0.0, SVG Export Plug-In . SVG Version: 6.00 Build 0)  -->
<svg version="1.1" id="Capa_1" xmlns="http://www.w3.org/2000/svg" xmlns:xlink="http://www.w3.org/1999/xlink" x="0px" y="0px"
	 viewBox="0 0 512 512" style="enable-background:new 0 0 512 512;" xml:space="preserve">
<rect x="198.961" y="203.04" style="fill:#B48764;" width="114.07" height="97.77"/>
<path style="fill:#966D50;" d="M198.957,243.307c16.476,10.564,36.017,16.766,57.043,16.766c21.016,0,40.551-6.198,57.023-16.755
	V203.04H198.957V243.307z"/>
<path style="fill:#5D5360;" d="M420.638,504.5l6.421-168.462c0.837-20.91-11.728-40.035-31.253-47.566l-74.169-25.446
	c-3.017-1.035-6.46,0.142-7.947,2.963c-10.918,20.706-32.653,34.823-57.689,34.823s-46.771-14.117-57.689-34.823
	c-1.488-2.821-4.931-3.998-7.947-2.963l-74.169,25.446c-19.525,7.531-32.091,26.656-31.254,47.566l6.42,168.462H420.638z"/>
<g>
	<path style="fill:#6F6571;" d="M158.23,374.052l-65.963-65.611c-5.001,8.097-7.725,17.622-7.326,27.597L91.362,504.5h66.868
		V374.052z"/>
	<path style="fill:#6F6571;" d="M353.771,374.052l65.963-65.611c5.001,8.097,7.725,17.622,7.326,27.597L420.639,504.5h-66.868
		V374.052z"/>
</g>
<path style="fill:#C39772;" d="M345.623,121.567V97.123C345.623,47.626,305.497,7.5,256,7.5s-89.623,40.126-89.623,89.623v24.443
	h-0.286c-0.004,0-0.008,0.002-0.012,0.002c-0.893,0.016-1.805,0.11-2.734,0.29c-7.93,1.532-13.273,9.113-13.273,17.189v5.904
	c0,7.793,4.99,15.145,12.578,16.917c1.71,0.399,3.373,0.512,4.966,0.385c4.051-0.323,7.588,2.625,8.317,6.622
	c6.927,37.962,40.093,66.755,80.057,66.755s73.13-28.793,80.057-66.755c0.703-3.85,4.026-6.654,7.887-6.573h1.679
	c8.999,0,16.295-7.296,16.295-16.295v-8.148C361.908,128.864,354.618,121.573,345.623,121.567z"/>
<g>
	<path style="fill:#B48764;" d="M207.116,154.156v-65.18c0-36.085,21.373-67.106,52.108-81.313C258.145,7.624,257.089,7.5,256,7.5
		c-49.497,0-89.623,40.126-89.623,89.623v24.443h-0.286c-0.004,0-0.008,0.002-0.012,0.002c-0.893,0.016-1.805,0.11-2.734,0.29
		c-7.93,1.532-13.273,9.113-13.273,17.189v5.904c0,7.793,4.99,15.145,12.578,16.917c1.71,0.399,3.373,0.512,4.966,0.385
		c4.051-0.323,7.588,2.625,8.317,6.622c6.927,37.962,40.093,66.755,80.057,66.755c1.101,0,2.175-0.103,3.265-0.147
		C228.503,221.284,207.116,190.253,207.116,154.156z"/>
	<path style="fill:#B48764;" d="M256,7.5c-49.497,0-89.623,40.126-89.623,89.623v24.443h10.779c3.332,0,6.328-2.028,7.565-5.122
		l10.149-25.373c2.475-6.187,8.466-10.243,15.129-10.243H302c6.663,0,12.655,4.056,15.129,10.243l10.149,25.373
		c1.237,3.093,4.233,5.122,7.565,5.122h10.779V97.123C345.623,47.626,305.497,7.5,256,7.5z"/>
</g>
<path style="fill:#966D50;" d="M166.378,97.123v24.443h10.779c3.332,0,6.328-2.028,7.565-5.122l10.149-25.373
	c2.152-5.38,7.011-8.97,12.611-9.862c2.82-32.725,23.239-60.372,51.742-73.547C258.145,7.624,257.089,7.5,256,7.5
	C206.504,7.5,166.378,47.626,166.378,97.123z"/>
<path style="fill:#DBD9DC;" d="M346.503,504.5H165.497c-8.648,0-15.79-6.756-16.27-15.391l-6.337-114.066
	c-0.519-9.34,6.915-17.199,16.27-17.199h193.68c9.355,0,16.789,7.859,16.27,17.199l-6.337,114.066
	C362.293,497.744,355.151,504.5,346.503,504.5z"/>
<circle style="fill:#FFFFFF;" cx="256" cy="435.25" r="20.369"/>
<path style="fill:#6F6571;" d="M256,333.402c41.257,0,76.471-25.591,90.826-61.734l-25.191-8.642
	c-3.017-1.035-6.459,0.142-7.947,2.963c-10.918,20.706-32.654,34.823-57.689,34.823s-46.771-14.117-57.689-34.823
	c-1.488-2.821-4.93-3.998-7.947-2.963l-25.191,8.642C179.53,307.811,214.743,333.402,256,333.402z"/>
<path d="M443.395,497H428.12l6.435-160.662c0.966-24.127-13.521-46.175-36.049-54.863c-0.087-0.034-0.176-0.066-0.265-0.097
	l-77.707-26.66v-39.1c11.506-12.141,19.679-27.595,22.883-45.036c0.043-0.202,0.393-0.542,0.507-0.585
	c2.145,0.157,4.32,0.014,6.464-0.424c11.027-2.258,19.031-12.51,19.031-24.377v-6.349c0-10.673-6.701-19.994-16.295-23.261V97.123
	C353.123,43.569,309.554,0,256,0s-97.123,43.569-97.123,97.123v18.417c-9.609,3.2-16.295,12.533-16.295,23.401v6.253
	c0,11.868,8.004,22.12,19.032,24.377c2.144,0.439,4.318,0.582,6.369,0.421c0.209,0.045,0.558,0.386,0.602,0.587
	c3.203,17.442,11.377,32.896,22.883,45.037v39.1l-77.707,26.66c-0.089,0.03-0.177,0.063-0.265,0.097
	c-22.528,8.688-37.015,30.736-36.049,54.863L83.881,497H68.606c-4.142,0-7.5,3.358-7.5,7.5s3.358,7.5,7.5,7.5h374.787
	c4.142,0,7.5-3.358,7.5-7.5S447.536,497,443.395,497z M370.261,489.525l6.337-114.065c0.215-3.861-0.537-7.698-2.115-11.171
	l43.067-43.067c1.501,4.59,2.216,9.491,2.015,14.516L413.106,497h-44.495C369.539,494.67,370.115,492.158,370.261,489.525z
	 M206.467,228.292c14.245,9.567,31.331,15.095,49.533,15.095c18.202,0,35.288-5.527,49.533-15.095v36.903
	c-10.313,17.297-29,28.117-49.533,28.117c-20.533,0-39.22-10.819-49.533-28.117L206.467,228.292L206.467,228.292z M166.98,155.037
	c-0.772,0.057-1.564,0.003-2.358-0.16c-4.014-0.821-7.04-4.984-7.04-9.682v-6.253c0-4.686,3.072-8.759,7.146-9.474
	c2.712-0.476,4.783,0.3,6.043,1.035c3.578,2.086,8.17,0.878,10.257-2.701c2.086-3.578,0.877-8.17-2.701-10.257
	c-1.412-0.823-2.908-1.473-4.449-1.984V97.123C173.878,51.84,210.717,15,256,15s82.123,36.84,82.123,82.123v17.971
	c-0.442,0.088-0.885,0.175-1.323,0.279c-4.032,0.949-6.53,4.987-5.581,9.019c0.95,4.032,4.985,6.531,9.02,5.582
	c2.819-0.664,5.727-0.747,7.031-0.487c4.076,0.811,7.149,4.834,7.149,9.359v6.349c0,4.698-3.026,8.861-7.04,9.682
	c-0.794,0.163-1.588,0.217-2.358,0.16c-7.737-0.573-14.932,5.068-16.358,12.834c-6.44,35.065-37,60.516-72.663,60.516
	s-66.222-25.45-72.663-60.516C181.913,160.105,174.72,154.468,166.98,155.037z M118.767,295.519l42.232-14.489
	c17.45,36.493,54.336,59.872,95.001,59.872c14.646,0,28.823-2.952,42.138-8.774c3.795-1.66,5.526-6.082,3.867-9.877
	c-1.66-3.795-6.083-5.526-9.876-3.867c-11.408,4.989-23.564,7.518-36.128,7.518c-34.286,0-65.428-19.388-80.69-49.782l16.822-5.771
	c12.637,23.273,37.003,37.964,63.867,37.964s51.23-14.69,63.867-37.964l16.825,5.772c-5.077,10.074-12.086,19.255-20.512,26.796
	c-3.086,2.763-3.349,7.504-0.586,10.59c1.481,1.655,3.532,2.498,5.591,2.498c1.781,0,3.568-0.63,5-1.912
	c10.326-9.242,18.83-20.602,24.809-33.066l42.24,14.492c6.673,2.599,12.379,6.798,16.759,12.049l-45.717,45.717
	c-3.479-1.903-7.416-2.94-11.435-2.94H159.16c-3.954,0-7.828,1.006-11.265,2.851l-45.88-45.636
	C106.394,302.313,112.097,298.116,118.767,295.519z M92.435,335.738c-0.202-5.034,0.516-9.942,2.022-14.539l43.141,42.911
	c-1.634,3.52-2.415,7.422-2.196,11.35l6.337,114.065c0.146,2.634,0.723,5.146,1.65,7.476H98.894L92.435,335.738z M165.497,497
	c-4.666,0-8.523-3.649-8.782-8.307l-6.337-114.066c-0.135-2.438,0.714-4.758,2.392-6.532c1.678-1.774,3.948-2.751,6.39-2.751h193.68
	c2.442,0,4.711,0.977,6.39,2.751c1.678,1.774,2.527,4.094,2.392,6.532l-6.337,114.066c-0.259,4.658-4.116,8.307-8.782,8.307H165.497
	z"/>
<path d="M256,407.377c-15.367,0-27.869,12.502-27.869,27.869c0,15.367,12.502,27.869,27.869,27.869s27.869-12.502,27.869-27.869
	C283.869,419.879,271.367,407.377,256,407.377z M256,448.115c-7.096,0-12.869-5.773-12.869-12.869
	c0-7.096,5.773-12.869,12.869-12.869s12.869,5.773,12.869,12.869C268.869,442.342,263.096,448.115,256,448.115z"/>
<g>
</g>
<g>
</g>
<g>
</g>
<g>
</g>
<g>
</g>
<g>
</g>
<g>
</g>
<g>
</g>
<g>
</g>
<g>
</g>
<g>
</g>
<g>
</g>
<g>
</g>
<g>
</g>
<g>
</g>
</svg>
