<svg id="Capa_1" enable-background="new 0 0 512 512" height="512" viewBox="0 0 512 512" width="512" xmlns="http://www.w3.org/2000/svg"><g id="XMLID_2507_"><path id="XMLID_1877_" d="m354.375 217.384 25.168 10.163c63.535 25.656 105.133 87.315 105.133 155.834v42.406c0 42.091-34.122 76.213-76.213 76.213h-152.463-152.463c-42.091 0-76.213-34.122-76.213-76.213v-42.406c0-68.52 41.598-130.178 105.133-155.834l25.168-10.163z" fill="#8aa8bd"/><path id="XMLID_1783_" d="m135.232 151.76c-3.797 6.702-5.85 13.835-5.85 21.235 0 38.939 56.693 70.505 126.627 70.505s126.627-31.566 126.627-70.505c0-7.4-2.053-14.533-5.85-21.235l-120.786-17.018z" fill="#8aa8bd"/><path id="XMLID_4172_" d="m408 502h-304v-163c0-29.271 23.729-53 53-53h198c29.271 0 53 23.729 53 53z" fill="#ff7b79"/><path id="XMLID_4158_" d="m256 326.569c-35.6 0-64.46 28.86-64.46 64.46v12.964c0 19.49 15.799 35.289 35.289 35.289v8.655c0 7.767 6.296 14.063 14.063 14.063h30.216c7.767 0 14.063-6.296 14.063-14.063v-8.655c19.49 0 35.289-15.799 35.289-35.289v-12.964c0-35.6-28.859-64.46-64.46-64.46z" fill="#e2e9ee"/><path id="XMLID_1878_" d="m312.9 142.232v36.868c0 31.425-25.475 56.9-56.9 56.9-31.425 0-56.9-25.475-56.9-56.9v-36.868l56.9-7.49z" fill="#e5ae8c"/><path id="XMLID_1880_" d="m376.769 151.767-63.276-108.709c-25.656-44.078-89.329-44.078-114.986 0l-63.277 108.709.24-.069c78.84-22.662 162.472-22.638 241.299.069z" fill="#c5d3de"/><g id="XMLID_67_"><path id="XMLID_120_" d="m278.75 405.28c2.63 0 5.21-1.061 7.07-2.931 1.86-1.859 2.93-4.43 2.93-7.069 0-2.631-1.07-5.2-2.93-7.07-1.86-1.86-4.44-2.93-7.07-2.93s-5.21 1.069-7.07 2.93c-1.86 1.859-2.93 4.439-2.93 7.07 0 2.64 1.07 5.21 2.93 7.069 1.86 1.871 4.44 2.931 7.07 2.931z"/><path id="XMLID_142_" d="m233.25 385.28c-2.63 0-5.21 1.069-7.07 2.93-1.86 1.859-2.93 4.439-2.93 7.07 0 2.64 1.07 5.21 2.93 7.069 1.86 1.87 4.44 2.931 7.07 2.931s5.21-1.061 7.07-2.931c1.86-1.859 2.93-4.43 2.93-7.069 0-2.631-1.07-5.211-2.93-7.07-1.86-1.86-4.44-2.93-7.07-2.93z"/><path id="XMLID_145_" d="m203.03 338.762-13.959-13.96c-3.904-3.903-10.237-3.904-14.142 0-3.905 3.905-3.906 10.237-.001 14.143l15.98 15.98c-5.96 10.702-9.369 23.01-9.369 36.103v12.964c0 10.673 3.714 20.493 9.914 28.242l-16.525 16.524c-3.905 3.905-3.905 10.237 0 14.143 1.953 1.952 4.512 2.929 7.071 2.929s5.119-.977 7.071-2.929l18.115-18.115c3.043 1.471 6.27 2.62 9.644 3.382.125 13.162 10.872 23.83 24.062 23.83h30.216c13.191 0 23.937-10.668 24.062-23.83 3.373-.763 6.6-1.911 9.644-3.382l18.115 18.115c1.953 1.952 4.512 2.929 7.071 2.929s5.119-.977 7.071-2.929c3.905-3.905 3.905-10.237 0-14.143l-16.525-16.524c6.199-7.75 9.914-17.569 9.914-28.242v-12.964c0-13.094-3.409-25.402-9.369-36.103l15.98-15.98c3.905-3.905 3.905-10.237 0-14.143-3.905-3.904-10.237-3.904-14.142 0l-13.959 13.96c-13.51-13.69-32.263-22.194-52.97-22.194s-39.459 8.504-52.969 22.194zm107.43 52.267v12.964c0 13.944-11.345 25.289-25.289 25.289-5.523 0-10 4.478-10 10v8.654c0 2.24-1.823 4.064-4.063 4.064h-30.216c-2.241 0-4.064-1.823-4.064-4.064v-8.654c0-5.522-4.477-10-10-10-13.944 0-25.289-11.345-25.289-25.289v-12.964c0-30.03 24.431-54.461 54.46-54.461s54.461 24.431 54.461 54.461z"/><path id="XMLID_764_" d="m464.225 283.797c-19.921-29.528-47.909-52.186-80.938-65.523l-9.656-3.899c12.3-12.309 19.004-26.583 19.004-41.38 0-8.988-2.525-17.981-7.269-26.354l-63.231-108.613c-13.86-23.812-38.583-38.028-66.136-38.028-27.552 0-52.275 14.216-66.135 38.028l-63.277 108.748c-.005.008-.008-.008-.012 0-.014.024-.03-.024-.043 0-4.744 8.373-7.149 17.231-7.149 26.219 0 14.795 6.703 29.067 18.999 41.375l-9.669 3.904c-33.029 13.337-61.017 35.994-80.938 65.523-19.921 29.528-30.451 63.964-30.451 99.584v42.406c0 47.538 38.675 86.213 86.213 86.213h.463 304 .463c47.538 0 86.213-38.675 86.213-86.213v-42.406c0-35.62-10.53-70.056-30.451-99.584zm-257.076-235.708c10.238-17.588 28.5-28.089 48.85-28.089 20.351 0 38.613 10.501 48.851 28.089l51.217 87.99c-32.951-7.587-66.516-11.382-100.073-11.382s-67.119 3.795-100.062 11.382zm1.951 99.235c31.177-3.458 62.623-3.458 93.8 0v31.776c0 25.861-21.039 46.9-46.9 46.9s-46.9-21.039-46.9-46.9zm265.576 278.463c0 33.27-24.67 60.878-56.676 65.517v-152.304c0-34.738-28.262-63-63-63h-54c-5.523 0-10 4.478-10 10s4.477 10 10 10h54c23.71 0 43 19.29 43 43v153h-284v-153c0-23.71 19.29-43 43-43h53.999c5.523 0 10-4.478 10-10s-4.477-10-10-10h-53.999c-34.738 0-63 28.262-63 63v152.304c-32.006-4.639-56.676-32.246-56.676-65.517v-42.406c0-64.778 38.811-122.308 98.877-146.562l20.349-8.217c2.639 1.64 5.4 3.219 8.29 4.727 1.477.77 3.058 1.136 4.616 1.136 3.607 0 7.091-1.958 8.875-5.378 2.554-4.896.654-10.936-4.243-13.49-22.056-11.503-34.706-27.031-34.706-42.602 0-4.288.947-8.572 2.795-12.783 15.493-4.294 31.159-7.681 46.922-10.19v29.078c0 36.889 30.011 66.9 66.9 66.9s66.9-30.012 66.9-66.9v-29.078c15.771 2.51 31.443 5.9 46.943 10.196 1.846 4.208 2.792 8.491 2.792 12.777 0 15.572-12.652 31.102-34.713 42.604-4.897 2.554-6.797 8.594-4.243 13.491 1.784 3.42 5.267 5.378 8.875 5.378 1.558 0 3.139-.365 4.615-1.135 2.891-1.507 5.652-3.087 8.291-4.727l20.338 8.212c60.065 24.254 98.877 81.783 98.877 146.562v42.407z"/><path id="XMLID_767_" d="m385.366 146.641c.08.127-.074-.131 0 0z"/><path id="XMLID_768_" d="m256 296c2.63 0 5.21-1.07 7.07-2.931 1.86-1.859 2.93-4.439 2.93-7.069s-1.07-5.21-2.93-7.07-4.44-2.93-7.07-2.93-5.21 1.069-7.07 2.93c-1.86 1.86-2.93 4.44-2.93 7.07s1.07 5.21 2.93 7.069c1.86 1.861 4.44 2.931 7.07 2.931z"/></g></g></svg>